<?xml version="1.0" encoding="UTF-8" standalone="no"?>
<!-- Generator: Adobe Illustrator 18.1.1, SVG Export Plug-In . SVG Version: 6.00 Build 0)  -->

<svg
   xmlns:dc="http://purl.org/dc/elements/1.1/"
   xmlns:cc="http://creativecommons.org/ns#"
   xmlns:rdf="http://www.w3.org/1999/02/22-rdf-syntax-ns#"
   xmlns:svg="http://www.w3.org/2000/svg"
   xmlns="http://www.w3.org/2000/svg"
   xmlns:sodipodi="http://sodipodi.sourceforge.net/DTD/sodipodi-0.dtd"
   xmlns:inkscape="http://www.inkscape.org/namespaces/inkscape"
   version="1.1"
   x="0px"
   y="0px"
   viewBox="0 0 810.8 299.8"
   enable-background="new 0 0 810.8 299.8"
   xml:space="preserve"
   id="svg5018"
   inkscape:version="0.91 r13725"
   sodipodi:docname="aep-logo-group.svg"
   width="810.79999"
   height="299.79999"><metadata
     id="metadata5051"><rdf:RDF><cc:Work
         rdf:about=""><dc:format>image/svg+xml</dc:format><dc:type
           rdf:resource="http://purl.org/dc/dcmitype/StillImage" /><dc:title></dc:title></cc:Work></rdf:RDF></metadata><defs
     id="defs5049" /><sodipodi:namedview
     pagecolor="#ffffff"
     bordercolor="#666666"
     borderopacity="1"
     objecttolerance="10"
     gridtolerance="10"
     guidetolerance="10"
     inkscape:pageopacity="0"
     inkscape:pageshadow="2"
     inkscape:window-width="1600"
     inkscape:window-height="837"
     id="namedview5047"
     showgrid="false"
     fit-margin-top="0"
     fit-margin-left="0"
     fit-margin-right="0"
     fit-margin-bottom="0"
     inkscape:zoom="0.35767144"
     inkscape:cx="808.00413"
     inkscape:cy="149.90002"
     inkscape:window-x="-8"
     inkscape:window-y="-8"
     inkscape:window-maximized="1"
     inkscape:current-layer="svg5018" /><g
     id="AeP_Group"><g
       id="g5021"><path
         d="M 208.8,40.7 C 124.9,92.4 57.4,162.7 48.7,299.8 24.9,180.9 71.6,85.3 152.2,0.8 l 56.4,39.7 0.2,0.2 0,0 z"
         id="path5023"
         inkscape:connector-curvature="0"
         style="clip-rule:evenodd;fill:#0073c7;fill-rule:evenodd" /><path
         d="m 77.3,179 c -9.1,19.8 -16.4,41.8 -21.5,66.2 -4.4,1.4 -8.8,2.7 -13.2,4.1 -0.7,-20.4 0.7,-40.1 4,-59.2 10.3,-3.5 20.6,-7.3 30.7,-11.1 l 0,0 z"
         id="path5025"
         inkscape:connector-curvature="0"
         style="clip-rule:evenodd;fill:#005a99;fill-rule:evenodd" /><path
         d="M 182.1,58.3 C 177.2,61.8 172.3,65.4 167.5,69 157.2,54.1 145,39.3 130.8,24.5 c 1,-1.2 2,-2.3 3,-3.5 18,11.3 34.1,23.7 48.3,37.3 l 0,0 z"
         id="path5027"
         inkscape:connector-curvature="0"
         style="clip-rule:evenodd;fill:#005a99;fill-rule:evenodd" /><path
         d="M 216.4,289.3 C 230.9,191.8 220.5,94.9 121.1,0 227.5,58.3 270.6,155.6 283.3,271.8 l -66.2,17.5 -0.7,0 0,0 z"
         id="path5029"
         inkscape:connector-curvature="0"
         style="clip-rule:evenodd;fill:#558dd2;fill-rule:evenodd" /><path
         d="m 217.8,173.4 c -3.4,-21.3 -9.2,-42.5 -18.1,-63.6 4.4,-3.1 8.2,-6.2 11.5,-9.1 4.5,-4 7.9,-8.1 10.1,-12.2 12.3,17.6 22.5,36.4 31,56.3 -7.9,7.9 -16.9,15.7 -26.9,23.2 -2.5,1.8 -5,3.6 -7.6,5.4 l 0,0 z"
         id="path5031"
         inkscape:connector-curvature="0"
         style="clip-rule:evenodd;fill:#0073c7;fill-rule:evenodd" /><path
         d="m 154.8,15.2 c 19,7.2 42.6,27.1 52.3,36 15.1,14.8 11.9,28.5 -3,41.9 -30.5,27.5 -110.1,62.7 -181.7,85 L 0,250.6 c 79.8,-24.8 162.2,-48 218.3,-90.1 80.1,-60.2 98,-137.3 -63.5,-145.3 l 0,0 z"
         id="path5033"
         inkscape:connector-curvature="0"
         style="clip-rule:evenodd;fill:#e6e7e8;fill-rule:evenodd" /><path
         d="m 156.6,15.9 c 18.7,7.8 41.1,26.6 50.6,35.3 15.1,14.8 11.9,28.5 -3,41.9 -30.6,27.5 -110.2,62.7 -181.8,85 L 2.8,241.4 c 75.8,-22.8 152.6,-45.3 205.8,-84.3 78.1,-57.3 97,-130.4 -52,-141.2 l 0,0 z"
         id="path5035"
         inkscape:connector-curvature="0"
         style="clip-rule:evenodd;fill:#d1d2d4;fill-rule:evenodd" /><path
         d="m 179.1,117.7 c 17.3,10.7 17.3,40.3 0,65.9 -17.3,25.7 -45.4,37.8 -62.6,27 -17.3,-10.7 -17.3,-40.3 0,-65.9 17.2,-25.6 45.3,-37.7 62.6,-27 l 0,0 z"
         id="path5037"
         inkscape:connector-curvature="0"
         style="clip-rule:evenodd;fill:#ffffff;fill-rule:evenodd" /><path
         d="m 133.4,164.9 c 9.9,-1.6 18,-4.9 24.2,-9.6 6.3,-4.8 9.4,-9.9 9.4,-15.4 0,-2.3 -0.7,-4.2 -2,-5.6 -1.3,-1.4 -3.1,-2.1 -5.4,-2.1 -4.9,0 -9.7,2.9 -14.4,8.7 -4.8,5.9 -8.7,13.9 -11.8,24 l 0,0 z m -1.2,4.3 c -0.7,2 -1.2,3.8 -1.6,5.5 -0.4,1.7 -0.5,3.3 -0.5,4.8 0,4.2 1.3,7.6 3.9,10.2 2.6,2.6 6,3.9 10.2,3.9 3.7,0 7.5,-1.1 11.3,-3.4 3.9,-2.3 8.1,-5.8 12.6,-10.7 l 1.6,1.7 c -4.6,5.8 -9.7,10.4 -15.4,13.6 -5.7,3.2 -11.3,4.8 -17,4.8 -6,0 -10.7,-2 -14.3,-5.9 -3.5,-3.9 -5.3,-9.3 -5.3,-16 0,-5.7 1.4,-11.5 4.1,-17.4 2.7,-5.9 6.7,-11.6 11.8,-17 4.6,-5 9.2,-8.6 13.7,-11 4.5,-2.3 9.2,-3.5 14.2,-3.5 4.1,0 7.5,1.1 10,3.3 2.5,2.2 3.7,5.1 3.7,8.8 0,6.8 -3.7,12.7 -11.2,17.6 -7.5,5 -18.1,8.5 -31.8,10.7 l 0,0 z"
         id="path5039"
         inkscape:connector-curvature="0"
         style="fill:#081b8d" /><path
         d="m 507.3,233.8 c -1,-3.6 -3.1,-6.4 -6.3,-8.4 -3.2,-2 -7.2,-2.9 -12.1,-2.9 -6.3,0 -11.2,1.9 -14.9,5.7 -3.6,3.8 -5.5,9 -5.5,15.5 0,6.5 1.8,11.7 5.4,15.5 3.6,3.8 8.5,5.7 14.7,5.7 5.5,0 10.1,-1.5 13.7,-4.4 3.6,-2.9 5.6,-6.8 6.1,-11.7 l -17.1,0 0,-7.1 24.2,0 0,29 -5.3,0 -0.8,-9.1 c -2.1,3.4 -4.9,6 -8.5,7.8 -3.6,1.8 -7.7,2.7 -12.4,2.7 -8.4,0 -15.1,-2.6 -20.2,-7.8 -5.1,-5.2 -7.6,-12.1 -7.6,-20.6 0,-8.8 2.6,-15.7 7.7,-20.8 5.1,-5.1 12.1,-7.7 20.9,-7.7 7,0 12.8,1.7 17.6,5.2 4.8,3.5 7.4,7.9 8,13.3 l -7.6,0 0,0.1 z m 20,37 0,-40 7.2,0 0,6.7 c 1.8,-2.6 4,-4.6 6.5,-6 2.5,-1.4 5.3,-2.1 8.2,-2.1 0.7,0 1.3,0 1.8,0.2 0.5,0.1 1,0.3 1.4,0.5 l 0,7.6 c -1,-0.3 -1.9,-0.5 -2.7,-0.6 -0.8,-0.1 -1.7,-0.2 -2.5,-0.2 -3.6,0 -6.6,1.4 -9,4.1 -2.4,2.7 -3.7,6.1 -3.7,10.2 l 0,19.6 -7.2,0 0,0 z m 34.8,-20 c 0,4.5 1.3,8.1 4,10.7 2.7,2.6 6.3,3.9 10.9,3.9 4.6,0 8.2,-1.3 10.8,-3.9 2.7,-2.6 4,-6.2 4,-10.7 0,-4.5 -1.3,-8.1 -4,-10.7 -2.7,-2.6 -6.3,-3.9 -10.8,-3.9 -4.6,0 -8.2,1.3 -10.9,3.9 -2.7,2.6 -4,6.2 -4,10.7 l 0,0 z m -7.5,0 c 0,-6.5 2,-11.7 6.1,-15.6 4.1,-3.9 9.5,-5.8 16.3,-5.8 6.8,0 12.3,1.9 16.3,5.8 4.1,3.9 6.1,9.1 6.1,15.6 0,6.5 -2,11.7 -6.1,15.6 -4,3.9 -9.5,5.8 -16.3,5.8 -6.8,0 -12.3,-1.9 -16.3,-5.8 -4.1,-3.9 -6.1,-9.1 -6.1,-15.6 l 0,0 z m 91.7,-20 0,40 -7.2,0 0,-6.8 c -2.2,2.7 -4.7,4.7 -7.4,6 -2.7,1.3 -5.8,2 -9.2,2 -2.6,0 -4.9,-0.4 -7,-1.2 -2,-0.8 -3.7,-1.9 -5.1,-3.5 -1.1,-1.3 -1.9,-2.9 -2.4,-4.7 -0.5,-1.8 -0.7,-4.8 -0.7,-8.8 l 0,-23 7.3,0 0,23.2 c 0,4.2 0.7,7.2 2.2,9 1.5,1.8 3.9,2.7 7.4,2.7 4.4,0 8,-1.3 10.7,-4 2.8,-2.7 4.1,-6.2 4.1,-10.6 l 0,-20.3 7.3,0 0,0 z m 17.9,20 c 0,4.5 1.3,8 3.9,10.5 2.6,2.6 6.2,3.8 10.8,3.8 4.5,0 8.1,-1.3 10.7,-3.8 2.6,-2.6 3.9,-6.1 3.9,-10.5 0,-4.5 -1.3,-8 -3.9,-10.5 -2.6,-2.6 -6.2,-3.8 -10.7,-3.8 -4.5,0 -8.1,1.3 -10.8,3.9 -2.6,2.5 -3.9,6 -3.9,10.4 l 0,0 z m -7.3,34.2 0,-54.2 7.3,0 0,6 c 1.9,-2.3 4.2,-4.1 6.8,-5.2 2.6,-1.1 5.5,-1.7 8.7,-1.7 6.3,0 11.5,1.9 15.5,5.8 4,3.9 6,8.9 6,15.2 0,6.2 -2,11.3 -6,15.2 -4,3.9 -9.2,5.8 -15.6,5.8 -3.2,0 -6.1,-0.6 -8.6,-1.7 -2.5,-1.1 -4.8,-2.9 -6.8,-5.2 l 0,20 -7.3,0 0,0 z"
         id="path5041"
         inkscape:connector-curvature="0"
         style="fill:#0073c7" /><path
         d="m 401.8,126.8 61.8,0 -30,-46 -31.8,46 0,0 z m -53.8,44.8 74.7,-107.9 23.3,0 69.9,107.9 -23.1,0 -20.1,-30.8 -80.3,0 -20.9,30.8 -23.5,0 0,0 z m 200.4,-47.4 82.1,0 c -1.6,-6.8 -6.1,-12.2 -13.4,-16 -7.3,-3.9 -16.5,-5.8 -27.6,-5.8 -11.1,0 -20.3,1.9 -27.6,5.8 -7.2,3.9 -11.8,9.2 -13.5,16 l 0,0 z m -0.6,10.3 0,0.6 c 0,7.6 3.9,13.8 11.7,18.6 7.8,4.8 17.8,7.2 30.2,7.2 9.2,0 17.1,-1.3 23.6,-3.8 6.5,-2.5 11,-6 13.4,-10.4 l 24.6,0 c -4.2,8.7 -11.7,15.6 -22.5,20.5 -10.8,4.9 -23.9,7.3 -39.2,7.3 -19.4,0 -34.9,-3.9 -46.6,-11.6 -11.6,-7.8 -17.4,-18.1 -17.4,-31.1 0,-13 5.8,-23.4 17.5,-31.1 11.6,-7.7 27.2,-11.6 46.6,-11.6 19.9,0 35.4,3.8 46.7,11.4 11.3,7.6 16.9,18 16.9,31.4 l 0,2.8 -105.5,0 0,-0.2 z m 155,-19.8 41.4,0 c 16.7,0 28.3,-1.4 34.7,-4.2 6.5,-2.8 9.7,-7.6 9.7,-14.4 0,-6.9 -3.1,-11.8 -9.4,-14.6 -6.2,-2.8 -17.4,-4.2 -33.6,-4.2 l -42.9,0 0,37.4 0.1,0 z m -22.2,56.9 0,-107.9 72.5,0 c 19.6,0 34,2.6 43.5,7.8 9.5,5.2 14.2,13.2 14.2,24 0,10.8 -4.7,18.7 -14.2,24 -9.5,5.2 -24,7.8 -43.5,7.8 l -50.3,0 0,44.2 -22.2,0 0,0.1 z"
         id="path5043"
         inkscape:connector-curvature="0"
         style="fill:#081b8d" /><line
         stroke-miterlimit="22.926"
         x1="348"
         y1="196.10001"
         x2="810.79999"
         y2="196.10001"
         id="line5045"
         style="fill:none;stroke:#0073c7;stroke-width:4.80100012;stroke-miterlimit:22.9260006" /></g></g></svg>
