<svg version="1.1" id="Layer_1" xmlns="http://www.w3.org/2000/svg" xmlns:xlink="http://www.w3.org/1999/xlink" x="0px" y="0px"
	 viewBox="0 0 734.4 460.6" enable-background="new 0 0 734.4 460.6" xml:space="preserve">
<g>
	<g>
		<path fill="#8B8DA6" d="M607.5,87.9c0,0-69.4-38.4-176.3-43l2,13C433.2,57.9,516.2,57.2,607.5,87.9z"/>
		<path fill="#8B8DA6" d="M130.2,87.5c0,0,70.4-38.4,177.3-43l-2,13C305.5,57.6,221.5,56.8,130.2,87.5z"/>
	</g>
	<g>
		<path fill="#0E2949" d="M79.5,135.8c0,0,88.1-48.3,218.3-54.1l-2.4,16.4C295.5,98.1,190.7,97.2,79.5,135.8z"/>
		<path fill="#0E2949" d="M659.5,135.4c0,0-89.2-48.3-221-54.1l2.4,16.4C441,97.8,547,96.8,659.5,135.4z"/>
	</g>
	<g>
		<rect x="361.2" y="75.6" fill="#F58220" width="15.1" height="23"/>
		<rect x="361.2" y="36.1" fill="#F58220" width="15.4" height="21.1"/>
		<rect x="361.5" y="0" fill="#F58220" width="15.1" height="18"/>
		<polygon fill="#F58220" points="333,18 346.7,18 348.8,0 335.1,0 		"/>
		<polygon fill="#F58220" points="406.8,18 391.3,18 389,0 404.5,0 		"/>
		<polygon fill="#F58220" points="412.3,57.9 394.2,57.9 391.4,36.8 409.6,36.8 		"/>
		<polygon fill="#F58220" points="417.1,99 397.3,99 394.4,76 414.1,76 		"/>
		<polygon fill="#F58220" points="323.3,98.9 341.6,98.9 344.3,76.8 326,76.8 		"/>
		<polygon fill="#F58220" points="328.1,58.6 344,58.6 346.4,37.3 330.5,37.3 		"/>
	</g>
	<g>
		<g>
			<path fill="#0E2949" d="M62.3,224.6c-12.6-5.5-20.1-7.7-27.4-7.7c-7.7,0-12.7,2.8-12.7,7.1c0,13,44.1,9.3,44.1,39.3
				c0,16.5-14,26.1-33.3,26.1c-15.1,0-22.6-3.9-31.2-8.3v-18.5c12.5,8.2,20.1,11.1,29.6,11.1c8.3,0,12.7-2.9,12.7-7.9
				c0-14.1-44.1-8.9-44.1-39.8c0-14.9,13-24.7,33-24.7c9.6,0,18.4,2,29.3,6.7V224.6z"/>
			<path fill="#0E2949" d="M177.5,218h-31.4v70.2h-21.6V218H93.2v-15.7h84.3V218z"/>
			<path fill="#0E2949" d="M247.7,202.3c17.8,0,28.3,11.9,28.3,24.7c0,9.5-4.9,16.5-14.9,21c8.9,4.4,11.6,15,23.8,40.2h-23.8
				c-9.3-18.4-12.7-34.9-24.4-34.9h-6.2v34.9H209v-86H247.7z M230.6,237.6H242c6,0,11.8-2.5,11.8-9.8c0-6.4-4.2-9.7-12.3-9.7h-10.9
				V237.6z"/>
			<path fill="#0E2949" d="M399.4,202.3v48.8c0,28.5-19.6,38.3-43.3,38.3c-25.1,0-43.3-11.6-43.3-38.2v-48.9h21.6v49.4
				c0,12.4,9,19.8,21.5,19.8c11.4,0,22-5.9,22-21.3v-47.9H399.4z"/>
			<path fill="#0E2949" d="M519.2,280.8c-12.1,6.2-21.2,8.6-34,8.6c-33.6,0-50.4-21.7-50.4-43.9c0-22.9,18.9-44.4,52.1-44.4
				c12.1,0,22.9,2.5,31.4,7.6v19.2c-9.5-5.3-19.2-8.8-29.9-8.8c-18.4,0-31.4,10.8-31.4,26.1c0,15.4,12.8,26.4,30.9,26.4
				c11.3,0,18.9-3.5,31.4-9.5V280.8z"/>
			<path fill="#0E2949" d="M624,218h-31.4v70.2h-21.6V218h-31.4v-15.7H624V218z"/>
			<path fill="#0E2949" d="M734.4,288.3h-23.2l-7.1-17h-38.7l-6.5,17H636l34.9-86h25L734.4,288.3z M683.7,222.8L671,256.2h26.7
				L683.7,222.8z"/>
		</g>
	</g>
</g>
<rect x="359.7" y="440.6" fill="#F58220" width="15" height="20"/>
<g>
	<g>
		<path fill="#0E2949" d="M264.4,338.5h-7.7c2.9,2.8,4,4.8,4,7.8c0,3-1.8,6.4-3.5,8.1c-5,5.1-15.3,2.6-15.3,6.8c0,2,4,3.2,11.5,4.6
			c8.1,1.5,10.9,5.4,10.9,10c0,7.1-6.6,11.4-17.8,11.4c-10.2,0-17.4-4.5-17.4-10.8c0-5.3,2.9-8.4,9.5-9.9c-2.6-1.5-3.8-2.9-3.8-4.5
			c0-2.3,2.4-4.3,6-5.1v-0.2c-2.8-1.1-4.9-2.6-6.3-4.5c-1.4-1.9-2-4.1-2-6.7c0-7.6,6.3-12.4,16.5-12.4h15.5V338.5z M244.6,370.5
			c-5,0-8.6,2.2-8.6,5.4c0,3.6,3.7,5.5,10.5,5.5c6.6,0,10.4-1.9,10.4-5.2C257,371.7,249.3,370.5,244.6,370.5z M246.6,339.1
			c-4.1,0-7.5,3-7.5,6.5c0,3.9,3,6.6,7.6,6.6c4.2,0,7.2-2.8,7.2-6.7C253.9,342,250.5,339.1,246.6,339.1z"/>
		<path fill="#0E2949" d="M295,333v8.2h0.2c3.8-6.3,7.4-8.9,10.9-8.9c3,0,5.9,1.4,9,4.2l-3.9,6.1c-2.3-2.1-5.2-3.5-7-3.5
			c-5.1,0-9.2,4.9-9.2,11v18.7h-7.5V333H295z"/>
		<path fill="#0E2949" d="M373,350.5c0,11.3-8.3,19-20.4,19c-11.6,0-19.9-8-19.9-19c0-10.3,8.7-18.3,19.9-18.3
			C364.5,332.2,373,339.9,373,350.5z M340.3,350.5c0,7.6,5,12.6,12.2,12.6c7.9,0,12.9-4.8,12.9-12.5c0-6.9-5.4-12-12.9-12
			C345.5,338.6,340.3,343.7,340.3,350.5z"/>
		<path fill="#0E2949" d="M422.1,368.8v-4.5c-3.1,3.2-7.5,5.3-11.2,5.3c-7.6,0-13-5.2-13-14.3V333h7.5v22.7c0,5,2.6,7.9,7.7,7.9
			c3.4,0,6.6-1.8,9-5V333h7.5v35.8H422.1z"/>
		<path fill="#0E2949" d="M464,387.1h-7.5V333h12.9c13.8,0,21.3,6.4,21.3,18.2c0,10.8-8,18.3-19.2,18.3c-2.4,0-4.7-0.5-7.6-1.6
			V387.1z M464,361.5c2.3,1,4.7,1.6,7.1,1.6c7,0,12-5.1,12-12c0-7.4-4.1-11.7-12.3-11.7H464V361.5z"/>
	</g>
</g>
</svg>
