<?xml version="1.0" encoding="utf-8"?>
<!-- Generator: Adobe Illustrator 18.1.1, SVG Export Plug-In . SVG Version: 6.00 Build 0)  -->
<svg version="1.1" id="Layer_1" xmlns="http://www.w3.org/2000/svg" xmlns:xlink="http://www.w3.org/1999/xlink" x="0px" y="0px"
	 viewBox="0 0 194.7 285.1" enable-background="new 0 0 194.7 285.1" xml:space="preserve">
<g>
	<g>
		<rect x="2" y="2" fill="#FFFFFF" stroke="#414042" stroke-width="4" stroke-miterlimit="10" width="190.7" height="264.7"/>
		<line fill="none" stroke="#414042" stroke-width="4" stroke-miterlimit="10" x1="41.3" y1="39.8" x2="87.3" y2="39.8"/>
		<line fill="none" stroke="#414042" stroke-width="4" stroke-miterlimit="10" x1="41.3" y1="58.7" x2="153.3" y2="58.7"/>
		<line fill="none" stroke="#414042" stroke-width="4" stroke-miterlimit="10" x1="41.3" y1="77.6" x2="153.3" y2="77.6"/>
		<line fill="none" stroke="#414042" stroke-width="4" stroke-miterlimit="10" x1="41.3" y1="96.5" x2="153.3" y2="96.5"/>
		<line fill="none" stroke="#414042" stroke-width="4" stroke-miterlimit="10" x1="41.3" y1="115.4" x2="153.3" y2="115.4"/>
		<line fill="none" stroke="#414042" stroke-width="4" stroke-miterlimit="10" x1="41.3" y1="134.3" x2="153.3" y2="134.3"/>
		<line fill="none" stroke="#414042" stroke-width="4" stroke-miterlimit="10" x1="41.3" y1="153.3" x2="153.3" y2="153.3"/>
		<line fill="none" stroke="#414042" stroke-width="4" stroke-miterlimit="10" x1="41.3" y1="172.2" x2="153.3" y2="172.2"/>
		<line fill="none" stroke="#414042" stroke-width="4" stroke-miterlimit="10" x1="41.3" y1="191.1" x2="153.3" y2="191.1"/>
	</g>
	<g>
		<g>
			<line fill="#ED1C24" x1="148.4" y1="192.5" x2="123.6" y2="285.1"/>
			<path fill="#ED1C24" d="M148.4,192.5c0,0,0.1,0.1,0.3,0.4c0.2,0.2,0.5,0.6,0.8,1c0.6,0.9,1.6,2.2,2.6,3.9
				c1.1,1.6,2.2,3.6,3.5,5.8c0.6,1.1,1.2,2.3,1.9,3.5c0.2,0.3,0.2,0.6,0.2,0.9c-0.1,0.3-0.2,0.5-0.4,0.7c-0.4,0.5-0.4,1-0.6,1.6
				c-2.3,8.7-5.4,20.3-8.5,31.9c-3.1,11.6-6.2,23.2-8.5,31.9c-0.1,0.3-0.1,0.5-0.2,0.8c-0.1,0.3-0.1,0.5-0.1,0.8
				c0,0.3,0.1,0.6,0,0.8c-0.1,0.2-0.4,0.4-0.7,0.6c-1.2,0.7-2.3,1.5-3.4,2.1c-2.2,1.3-4.2,2.4-5.9,3.3c-1.7,0.9-3.2,1.6-4.1,2
				c-0.5,0.2-0.9,0.4-1.1,0.5c-0.3,0.1-0.4,0.2-0.4,0.2s-0.1-0.1-0.3-0.4c-0.2-0.2-0.4-0.6-0.7-1c-0.6-0.9-1.5-2.2-2.5-3.8
				c-1-1.6-2.2-3.6-3.4-5.8c-0.6-1.1-1.2-2.3-1.9-3.5c-0.2-0.3-0.3-0.6-0.3-0.9c0-0.3,0.2-0.5,0.4-0.7c0.2-0.2,0.3-0.5,0.3-0.8
				c0.1-0.3,0.1-0.5,0.2-0.8c2.3-8.7,5.4-20.3,8.5-31.9c3.1-11.6,6.2-23.2,8.5-31.9c0.1-0.6,0.4-1.1,0.3-1.6c0-0.3-0.1-0.6,0-0.8
				c0.1-0.2,0.3-0.5,0.6-0.6c1.2-0.7,2.3-1.5,3.4-2.1c2.2-1.3,4.2-2.4,5.9-3.3c1.7-0.9,3.2-1.6,4.2-2c0.5-0.2,0.9-0.4,1.2-0.5
				C148.3,192.5,148.4,192.5,148.4,192.5z"/>
		</g>
		<g>
			<line fill="#F1F2F2" x1="148.9" y1="192.5" x2="180.9" y2="274"/>
			<path fill="#ED1C24" d="M148.9,192.5c0,0,0.1,0,0.4,0.1c0.3,0.1,0.7,0.2,1.2,0.3c1,0.3,2.6,0.7,4.3,1.3c1.8,0.6,3.8,1.3,6.1,2.3
				c1.1,0.5,2.3,1,3.5,1.5c0.3,0.1,0.5,0.3,0.6,0.5c0.1,0.2,0.1,0.5,0.1,0.8c0,0.5,0.3,1,0.4,1.5c3,7.6,7,17.8,11,28
				c4,10.2,8,20.4,11,28c0.1,0.2,0.2,0.5,0.3,0.7c0.1,0.2,0.2,0.5,0.4,0.7c0.2,0.2,0.4,0.4,0.4,0.6c0.1,0.2-0.1,0.5-0.2,0.8
				c-0.6,1.2-1,2.4-1.6,3.5c-1,2.2-2.1,4.2-2.9,5.8c-0.8,1.6-1.7,3-2.2,3.8c-0.3,0.4-0.5,0.8-0.6,1c-0.1,0.2-0.2,0.4-0.2,0.4
				s-0.1,0-0.4-0.1c-0.3-0.1-0.7-0.2-1.2-0.3c-1-0.3-2.5-0.7-4.2-1.3c-1.7-0.6-3.9-1.3-6.1-2.3c-1.1-0.5-2.3-1-3.5-1.5
				c-0.3-0.1-0.6-0.3-0.7-0.5c-0.1-0.2-0.1-0.5-0.1-0.7c0-0.3-0.1-0.5-0.2-0.7c-0.1-0.2-0.2-0.5-0.3-0.7c-3-7.6-7-17.8-11-28
				s-8-20.4-11-28c-0.2-0.5-0.3-1-0.7-1.4c-0.2-0.2-0.4-0.4-0.5-0.6c-0.1-0.2,0-0.5,0.1-0.8c0.5-1.2,1-2.4,1.5-3.5
				c1-2.2,2-4.2,2.9-5.8c0.9-1.6,1.8-3,2.3-3.9c0.3-0.4,0.5-0.8,0.7-1C148.8,192.6,148.9,192.5,148.9,192.5z"/>
		</g>
		<polygon fill="#ED1E25" stroke="#FFFFFF" stroke-width="2" stroke-miterlimit="10" points="148.4,162.5 150.9,159.6 152.9,162.8
			155.8,160.3 157.3,163.8 160.5,161.8 161.4,165.5 164.9,163.9 165.3,167.7 169,166.7 168.8,170.5 172.6,170 171.9,173.8
			175.7,173.9 174.4,177.5 178.1,178.2 176.3,181.5 179.9,182.7 177.7,185.8 181,187.6 178.3,190.2 181.4,192.5 178.3,194.7
			181,197.4 177.7,199.1 179.9,202.2 176.3,203.4 178.1,206.8 174.4,207.5 175.7,211 171.9,211.2 172.6,214.9 168.8,214.4
			169,218.2 165.3,217.2 164.9,221 161.4,219.5 160.5,223.2 157.3,221.1 155.8,224.6 152.9,222.1 150.9,225.3 148.4,222.4
			146,225.3 144,222.1 141.1,224.6 139.6,221.1 136.4,223.2 135.4,219.5 131.9,221 131.5,217.2 127.9,218.2 128,214.4 124.3,214.9
			125,211.2 121.2,211 122.5,207.5 118.7,206.8 120.5,203.4 116.9,202.2 119.2,199.1 115.8,197.4 118.5,194.7 115.5,192.5
			118.5,190.2 115.8,187.6 119.2,185.8 116.9,182.7 120.5,181.5 118.7,178.2 122.5,177.5 121.2,173.9 125,173.8 124.3,170
			128,170.5 127.9,166.7 131.5,167.7 131.9,163.9 135.4,165.5 136.4,161.8 139.6,163.8 141.1,160.3 144,162.8 146,159.6 		"/>
	</g>
</g>
</svg>
