<svg
   xmlns:dc="http://purl.org/dc/elements/1.1/"
   xmlns:cc="http://creativecommons.org/ns#"
   xmlns:rdf="http://www.w3.org/1999/02/22-rdf-syntax-ns#"
   xmlns:svg="http://www.w3.org/2000/svg"
   xmlns="http://www.w3.org/2000/svg"
   xmlns:xlink="http://www.w3.org/1999/xlink"
   xmlns:sodipodi="http://sodipodi.sourceforge.net/DTD/sodipodi-0.dtd"
   xmlns:inkscape="http://www.inkscape.org/namespaces/inkscape"
   version="1.1"
   id="Layer_1"
   x="0px"
   y="0px"
   viewBox="0 0 162.2002 162.10041"
   enable-background="new 0 0 383.2 193.1"
   xml:space="preserve"
   inkscape:version="0.91 r13725"
   sodipodi:docname="lacam-hist-icons_BBBEE.svg"
   width="162.20021"
   height="162.10042"><metadata
     id="metadata57"><rdf:RDF><cc:Work
         rdf:about=""><dc:format>image/svg+xml</dc:format><dc:type
           rdf:resource="http://purl.org/dc/dcmitype/StillImage" /><dc:title></dc:title></cc:Work></rdf:RDF></metadata><defs
     id="defs55" /><sodipodi:namedview
     pagecolor="#ffffff"
     bordercolor="#666666"
     borderopacity="1"
     objecttolerance="10"
     gridtolerance="10"
     guidetolerance="10"
     inkscape:pageopacity="0"
     inkscape:pageshadow="2"
     inkscape:window-width="1920"
     inkscape:window-height="1017"
     id="namedview53"
     showgrid="false"
     inkscape:zoom="2.26"
     inkscape:cx="-15.199794"
     inkscape:cy="84.550206"
     inkscape:window-x="-8"
     inkscape:window-y="-8"
     inkscape:window-maximized="1"
     inkscape:current-layer="g19"
     fit-margin-top="0"
     fit-margin-left="0"
     fit-margin-right="0"
     fit-margin-bottom="0" /><g
     id="g19"
     transform="translate(-206.7998,-18.999792)"><path
       d="m 206.7998,99.999998 c 0,-44.8 36.4,-81.1 81.2,-81 44.8,0 81.1,36.4 81,81.100002 0,44.8 -36.4,81.1 -81.1,81 l -0.2,0 0.1,-81 -77,24.9 c -2.6,-7.9 -4,-16.3 -4,-25.000002 z"
       id="path21"
       inkscape:connector-curvature="0"
       style="fill:#4d4d4d" /><circle
       cx="287.60001"
       cy="100.5"
       r="50"
       id="circle23"
       style="fill:#ff00ff;stroke:#f2f2f2;stroke-width:6" /><path
       id="SVGID_x5F_1_x5F_"
       d="m 316.7,130.2 c -16.1,15.7 -42.1,15.2 -58.2,-1.3 -16.1,-16.4 -16,-42.5 0,-58.2 16,-15.7 42.1,-15.2 58.2,1.3 16.1,16.5 16.1,42.5 0,58.2 z"
       inkscape:connector-curvature="0"
       style="fill:none" /><text
       id="text26"
       transform="matrix(0.91367962,0,0,1.051409,26.137929,1.6622222)"><textPath
         xlink:href="#SVGID_x5F_1_x5F_"
         startOffset="41.536498%"
         id="textPath28"><tspan
   font-size="9.773"
   id="tspan30"
   style="font-size:9.77299976px;font-family:MyriadPro-Regular;fill:#e6e6e6">100% Woman Owned</tspan></textPath></text>
<path
       id="SVGID_x5F_2_x5F_"
       d="m 215.7,123.7 c -3.9,-11.8 -4.9,-24.7 -2.4,-37.8 7.8,-41.1 47.4,-68 88.5,-60.2 41.1,7.8 68,47.4 60.2,88.5 -7.8,41.1 -47.4,68 -88.5,60.2 -28,-5.3 -49.5,-25.4 -57.8,-50.7"
       inkscape:connector-curvature="0"
       style="fill:none" /><text
       id="text33"
       transform="matrix(0.03064192,-0.91707767,0.84602439,0.07021647,195.68145,363.3252)"><textPath
         xlink:href="#SVGID_x5F_2_x5F_"
         startOffset="29.316401%"
         id="textPath35"><tspan
   font-size="15.8672"
   id="tspan37"
   style="font-size:15.8671999px;font-family:MyriadPro-Regular;fill:#e6e6e6">70% Black Woman Owned</tspan></textPath></text>
<g
       transform="matrix(1,0,0,-1,-0.44247788,1034.292)"
       id="g39"><ellipse
         cx="287.60001"
         cy="944.5"
         rx="12.4"
         ry="11.7"
         id="ellipse41"
         style="fill:none;stroke:#cccccc;stroke-width:2" /><path
         d="m 287.6,905.9 0,26.9 m -14.8,-13 29.6,0"
         id="path43"
         inkscape:connector-curvature="0"
         style="fill:none;stroke:#e6e6e6;stroke-width:3" /><path
         d="m 289.1,932.8 0,3.5 c 2.1,1.2 5,3.4 5,5.4 0,1 -0.7,1.9 -1.9,1.9 -1,0 -1.6,-0.3 -2.5,-0.3 -1.9,0 -1.6,1 -2.1,1 -0.5,0 -0.9,-0.5 -0.9,-1.3 0,-1.2 1,-1.8 1.9,-1.8 0.6,0 0.8,0.2 1.1,0.2 0.2,0 0.3,0 0.3,-0.2 0,-0.2 -0.4,-0.6 -1,-0.6 -1.9,0 -2.2,1.4 -4.6,1.4 -1.5,0 -2.4,-1 -2.4,-2.5 0,-2 2.2,-2.9 3.8,-3.2 l 0,-3.5 3.3,0 z m 4.1,13.9 c 0,0.8 -0.9,2.1 -1.5,2.1 -0.6,0 -1,-3.4 -1,-3.8 0,-0.6 0.6,-1.3 1.2,-1.3 0.4,0 1.3,2.2 1.3,3 z m -2.5,1.8 c 0,1 -1.5,1.5 -2.1,1.5 -0.7,0 -1,-2 -1,-4 0,-0.8 0.3,-1.9 1.3,-1.9 1.1,0 1.8,2.3 1.8,4.4 z m -3.3,0.2 c 0,0.6 -0.2,1.1 -0.7,1.1 -0.8,0 -2.3,-1 -2.3,-2 0,-2 0.4,-4 1.4,-4 1.1,0 1.6,3.8 1.6,4.9 z m -3,-4.9 c 0,1.8 -0.2,4 -0.8,4 -0.8,0 -1.7,-0.6 -1.7,-1.5 0,-1.7 0.8,-3.8 1.9,-3.8 0.4,-0.2 0.6,0.2 0.6,1.3 z"
         id="path45"
         inkscape:connector-curvature="0"
         style="fill:#e6e6e6" /></g><path
       d="m 365,75 -76.9,25 0,-81 c 36,0 66.4,23.5 76.9,56 z"
       id="path47"
       inkscape:connector-curvature="0"
       style="fill:none" /><line
       x1="288.10001"
       y1="19"
       x2="288.10001"
       y2="0"
       id="line49"
       style="fill:none" /><line
       x1="383.20001"
       y1="69.099998"
       x2="365"
       y2="75"
       id="line51"
       style="fill:none" /></g></svg>