<?xml version="1.0" encoding="UTF-8" standalone="no"?>
<!-- Generator: Adobe Illustrator 18.1.1, SVG Export Plug-In . SVG Version: 6.00 Build 0)  -->

<svg
   xmlns:dc="http://purl.org/dc/elements/1.1/"
   xmlns:cc="http://creativecommons.org/ns#"
   xmlns:rdf="http://www.w3.org/1999/02/22-rdf-syntax-ns#"
   xmlns:svg="http://www.w3.org/2000/svg"
   xmlns="http://www.w3.org/2000/svg"
   xmlns:sodipodi="http://sodipodi.sourceforge.net/DTD/sodipodi-0.dtd"
   xmlns:inkscape="http://www.inkscape.org/namespaces/inkscape"
   version="1.1"
   id="Layer_1"
   x="0px"
   y="0px"
   viewBox="0 0 162.2002 162.10041"
   enable-background="new 0 0 383.2 193.1"
   xml:space="preserve"
   inkscape:version="0.91 r13725"
   sodipodi:docname="lacam-hist-icons_BBBEE.svg"
   width="162.20021"
   height="162.10042"><metadata
     id="metadata57"><rdf:RDF><cc:Work
         rdf:about=""><dc:format>image/svg+xml</dc:format><dc:type
           rdf:resource="http://purl.org/dc/dcmitype/StillImage" /><dc:title /></cc:Work></rdf:RDF></metadata><defs
     id="defs55" /><sodipodi:namedview
     pagecolor="#ffffff"
     bordercolor="#666666"
     borderopacity="1"
     objecttolerance="10"
     gridtolerance="10"
     guidetolerance="10"
     inkscape:pageopacity="0"
     inkscape:pageshadow="2"
     inkscape:window-width="1600"
     inkscape:window-height="837"
     id="namedview53"
     showgrid="false"
     inkscape:zoom="2.26"
     inkscape:cx="-15.199794"
     inkscape:cy="119.94844"
     inkscape:window-x="1592"
     inkscape:window-y="-8"
     inkscape:window-maximized="1"
     inkscape:current-layer="g19"
     fit-margin-top="0"
     fit-margin-left="0"
     fit-margin-right="0"
     fit-margin-bottom="0" /><g
     id="g19"
     transform="translate(-206.7998,-18.999792)"><path
       d="m 206.7998,99.999998 c 0,-44.8 36.4,-81.1 81.2,-81 44.8,0 81.1,36.4 81,81.100002 0,44.8 -36.4,81.1 -81.1,81 l -0.2,0 0.1,-81 -77,24.9 c -2.6,-7.9 -4,-16.3 -4,-25.000002 z"
       id="path21"
       inkscape:connector-curvature="0"
       style="fill:#4d4d4d" /><circle
       cx="287.60001"
       cy="100.5"
       r="50"
       id="circle23"
       style="fill:#ff00ff;stroke:#f2f2f2;stroke-width:6" /><path
       id="SVGID_x5F_1_x5F_"
       d="m 316.7,130.2 c -16.1,15.7 -42.1,15.2 -58.2,-1.3 -16.1,-16.4 -16,-42.5 0,-58.2 16,-15.7 42.1,-15.2 58.2,1.3 16.1,16.5 16.1,42.5 0,58.2 z"
       inkscape:connector-curvature="0"
       style="fill:none" /><g
       transform="matrix(0.91367962,0,0,1.051409,26.137929,1.6622222)"
       style=""
       id="text26"><path
         d="m 249.27546,84.493284 -1.23288,3.643259 -0.68707,-0.232504 0.47419,-1.401254 -4.51114,-1.52657 -0.47418,1.401253 -0.61474,-0.20803 q 0.0964,-0.284771 0.16129,-0.625519 0.0604,-0.342279 0.0266,-0.540118 -0.0426,-0.246168 -0.17464,-0.421819 -0.13499,-0.1817 -0.42268,-0.299206 l 0.23709,-0.700627 6.06608,2.052764 0.465,-1.374133 0.68707,0.232504 z"
         style="font-size:9.77299976px;font-family:MyriadPro-Regular;fill:#e6e6e6"
         id="path3388" /><path
         d="m 249.04267,76.904822 q 1.69613,0.885939 2.21294,1.834238 0.51479,0.94186 -0.0685,2.058508 -0.5921,1.133567 -1.6697,1.238282 -1.0754,0.100485 -2.74191,-0.769989 -1.6792,-0.877102 -2.20246,-1.823381 -0.52748,-0.948487 0.058,-2.069366 0.5921,-1.133567 1.68019,-1.227424 1.08606,-0.100296 2.73142,0.759132 z m 1.33925,2.115452 q -0.26528,-0.326996 -0.69981,-0.618569 -0.43655,-0.298012 -1.08793,-0.638248 -0.64292,-0.335818 -1.14537,-0.528276 -0.50024,-0.196687 -0.90969,-0.216744 -0.40302,-0.02208 -0.70275,0.149772 -0.29752,0.16762 -0.5074,0.569444 -0.20768,0.397595 -0.1797,0.746001 0.0302,0.344178 0.2848,0.670984 0.23789,0.307301 0.7125,0.625197 0.47683,0.313667 1.07745,0.627391 0.65984,0.344655 1.12826,0.530107 0.46843,0.185452 0.89903,0.216556 0.40283,0.03275 0.70881,-0.130455 0.30818,-0.167432 0.52912,-0.590405 0.20767,-0.397594 0.17969,-0.746001 -0.028,-0.348407 -0.28701,-0.666754 z"
         style="font-size:9.77299976px;font-family:MyriadPro-Regular;fill:#e6e6e6"
         id="path3390" /><path
         d="m 252.96063,71.369454 q 1.53775,1.138885 1.90083,2.156008 0.36209,1.010448 -0.3877,2.022828 -0.76115,1.027719 -1.84193,0.963609 -1.07794,-0.06794 -2.58884,-1.186949 -1.52241,-1.127525 -1.89217,-2.143653 -0.37359,-1.018968 0.37904,-2.035182 0.76115,-1.027719 1.8506,-0.951255 1.08845,0.06979 2.58017,1.174594 z m 0.99404,2.297957 q -0.21121,-0.364267 -0.59512,-0.719856 -0.3849,-0.362265 -0.97546,-0.799642 -0.58288,-0.431697 -1.0493,-0.699938 -0.46358,-0.272075 -0.86493,-0.355552 -0.39468,-0.08447 -0.71749,0.03869 -0.31996,0.119322 -0.58977,0.483625 -0.26697,0.360469 -0.2935,0.708989 -0.0237,0.344686 0.17701,0.707106 0.18721,0.340551 0.60663,0.728377 0.42225,0.38399 0.96679,0.787286 0.59822,0.443058 1.03212,0.699087 0.43389,0.25603 0.85442,0.353707 0.39284,0.09498 0.72047,-0.01866 0.33047,-0.117477 0.61448,-0.500954 0.26697,-0.360469 0.2935,-0.708989 0.0265,-0.34852 -0.17985,-0.703271 z"
         style="font-size:9.77299976px;font-family:MyriadPro-Regular;fill:#e6e6e6"
         id="path3392" /><path
         d="m 255.81796,66.145853 q 0.70853,0.800368 0.71386,1.490323 0.009,0.686791 -0.62711,1.249813 -0.6503,0.575675 -1.32737,0.480374 -0.67706,-0.0953 -1.38242,-0.892097 -0.70853,-0.800369 -0.71386,-1.490323 -0.005,-0.689955 0.63068,-1.252977 0.64673,-0.572512 1.32696,-0.473637 0.68023,0.09887 1.37926,0.888524 z m 1.16266,-3.661345 1.92278,7.787483 -0.58956,0.521903 -1.92278,-7.787484 0.58956,-0.521902 z m 5.11851,2.326364 q 0.70852,0.800368 0.71385,1.490322 0.005,0.689955 -0.63067,1.252977 -0.64673,0.572512 -1.32696,0.473637 -0.68023,-0.09887 -1.37926,-0.888523 -0.70853,-0.800369 -0.71743,-1.48716 -0.005,-0.689955 0.63068,-1.252977 0.6503,-0.575675 1.32736,-0.480373 0.67707,0.0953 1.38243,0.892097 z m -6.91717,1.898003 q -0.54405,-0.614568 -0.91992,-0.7152 -0.37231,-0.103795 -0.72961,0.21251 -0.36446,0.32263 -0.30659,0.704773 0.0579,0.382144 0.60508,1.000285 0.54721,0.618142 0.91951,0.721937 0.36914,0.100222 0.7336,-0.222409 0.3573,-0.316305 0.30259,-0.694875 -0.0543,-0.385306 -0.60466,-1.007021 z m 6.28116,-1.334981 q -0.54404,-0.614569 -0.91991,-0.7152 -0.37231,-0.103795 -0.72961,0.212509 -0.36446,0.322631 -0.30659,0.704774 0.0579,0.382143 0.60508,1.000285 0.54721,0.618142 0.91951,0.721937 0.36914,0.100221 0.7336,-0.222409 0.3573,-0.316305 0.30259,-0.694875 -0.0543,-0.385306 -0.60467,-1.007021 z"
         style="font-size:9.77299976px;font-family:MyriadPro-Regular;fill:#e6e6e6"
         id="path3394" /><path
         d="m 272.79901,53.967391 0.99727,7.273487 -0.98403,0.405109 -3.62652,-4.885441 0.89509,6.009937 -0.96196,0.396026 -4.44356,-5.854697 0.89577,-0.368777 3.63016,4.894267 -0.8899,-6.022396 0.88695,-0.365143 3.64313,4.950852 -0.89846,-6.080797 0.85606,-0.352427 z"
         style="font-size:9.77299976px;font-family:MyriadPro-Regular;fill:#e6e6e6"
         id="path3396" /><path
         d="m 280.31052,56.99707 q 0.26195,1.276139 -0.24087,2.149048 -0.50282,0.872909 -1.60133,1.098403 -1.10785,0.227414 -1.91389,-0.37682 -0.80137,-0.605194 -1.06333,-1.881333 -0.26195,-1.27614 0.23619,-2.148089 0.50186,-0.877583 1.60972,-1.104997 1.09851,-0.225495 1.90551,0.383414 0.80604,0.604234 1.068,1.880374 z m -0.90686,0.186153 q -0.20822,-1.014368 -0.70631,-1.423629 -0.49904,-0.413935 -1.20489,-0.269043 -0.7152,0.146812 -1.01082,0.723871 -0.29191,0.571425 -0.0837,1.585793 0.2015,0.981645 0.70343,1.409604 0.50096,0.423285 1.21149,0.277433 0.70117,-0.143933 0.99583,-0.725667 0.29838,-0.587368 0.0949,-1.578362 z"
         style="font-size:9.77299976px;font-family:MyriadPro-Regular;fill:#e6e6e6"
         id="path3398" /><path
         d="m 290.01131,59.214515 -0.89704,0.01264 -0.0428,-3.034673 q -0.005,-0.343548 -0.0427,-0.662768 -0.0331,-0.319287 -0.13602,-0.508735 -0.11264,-0.203628 -0.31929,-0.30571 -0.20666,-0.102083 -0.59315,-0.09664 -0.37695,0.0053 -0.75121,0.201482 -0.37432,0.1914 -0.74717,0.487772 0.0159,0.109543 0.0275,0.257325 0.0116,0.143011 0.0136,0.286156 l 0.0481,3.411621 -0.89704,0.01264 -0.0428,-3.034674 q -0.005,-0.353091 -0.0428,-0.667539 -0.0331,-0.319287 -0.13602,-0.508735 -0.11264,-0.203628 -0.31922,-0.300939 -0.20666,-0.102082 -0.59315,-0.09664 -0.3674,0.0052 -0.73703,0.191738 -0.36485,0.186494 -0.72829,0.473189 l 0.0561,3.97943 -0.89704,0.01264 -0.0751,-5.329764 0.89704,-0.01264 0.008,0.591665 q 0.41499,-0.354235 0.82735,-0.555716 0.41714,-0.201547 0.88952,-0.208203 0.54395,-0.0077 0.92412,0.216057 0.38495,0.223653 0.57675,0.626609 0.5375,-0.465728 0.9832,-0.672451 0.44563,-0.211494 0.95618,-0.218687 0.87795,-0.01237 1.3006,0.516188 0.42736,0.52372 0.4408,1.47802 l 0.0487,3.459337 z"
         style="font-size:9.77299976px;font-family:MyriadPro-Regular;fill:#e6e6e6"
         id="path3400" /><path
         d="m 295.81586,60.229861 -0.8793,-0.152094 0.0968,-0.559556 q -0.13138,0.0596 -0.35879,0.170396 -0.22189,0.106905 -0.42461,0.15901 -0.23971,0.06992 -0.53874,0.09084 -0.29985,0.02562 -0.68542,-0.04107 -0.71003,-0.122814 -1.12242,-0.678429 -0.41239,-0.555615 -0.28632,-1.284448 0.10329,-0.597173 0.42065,-0.920021 0.32287,-0.326736 0.83439,-0.456186 0.51622,-0.128636 1.20164,-0.08756 0.68542,0.04107 1.46308,0.136843 l 0.0236,-0.136362 q 0.0521,-0.300938 -0.0219,-0.517135 -0.0693,-0.215384 -0.24726,-0.362395 -0.16938,-0.140683 -0.42619,-0.223847 -0.25682,-0.08316 -0.54365,-0.132778 -0.34796,-0.06019 -0.79212,-0.04016 -0.44335,0.01533 -0.92955,0.110413 l -0.047,-0.0081 0.15535,-0.89811 q 0.27081,-0.0258 0.77448,-0.02585 0.50366,-5.1e-5 0.97858,0.0821 0.55485,0.09597 0.94767,0.260777 0.39834,0.160914 0.66105,0.433969 0.25882,0.267539 0.35462,0.637636 0.0958,0.370097 0.008,0.877929 l -0.61651,3.564229 z m -0.65563,-1.445185 0.25295,-1.462369 q -0.40845,-0.04644 -0.96674,-0.09457 -0.55358,-0.04733 -0.88878,-0.01329 -0.39958,0.04227 -0.67454,0.232007 -0.27415,0.185036 -0.34328,0.584719 -0.0781,0.451406 0.15479,0.728985 0.23368,0.272877 0.79324,0.369664 0.46551,0.08052 0.88199,-0.03147 0.4173,-0.11669 0.79037,-0.313672 z"
         style="font-size:9.77299976px;font-family:MyriadPro-Regular;fill:#e6e6e6"
         id="path3402" /><path
         d="m 301.74614,62.025965 -0.85276,-0.278633 0.94261,-2.884885 q 0.11412,-0.34927 0.17259,-0.66652 0.06,-0.321785 0.007,-0.529723 -0.0512,-0.227563 -0.2347,-0.387941 -0.18207,-0.164914 -0.52227,-0.276071 -0.34927,-0.11412 -0.78661,-0.06625 -0.43734,0.04787 -0.87406,0.201374 l -1.23606,3.783009 -0.85276,-0.278633 1.65549,-5.066692 0.85276,0.278633 -0.18378,0.562461 q 0.50736,-0.200703 0.99451,-0.247361 0.48715,-0.04666 0.93621,0.100067 0.82101,0.268258 1.09039,0.903479 0.26937,0.63522 -0.0345,1.565097 l -1.07452,3.288587 z"
         style="font-size:9.77299976px;font-family:MyriadPro-Regular;fill:#e6e6e6"
         id="path3404" /><path
         d="m 314.3655,61.702167 q 0.11217,0.635381 -0.0638,1.342673 -0.17197,0.709842 -0.64104,1.452096 -0.46906,0.742255 -1.04294,1.203755 -0.56731,0.460016 -1.17361,0.624431 -0.6286,0.172903 -1.2669,0.05743 -0.63426,-0.112921 -1.28373,-0.523349 -0.63334,-0.400231 -1.02116,-0.938851 -0.38379,-0.53607 -0.49448,-1.164867 -0.11068,-0.628797 0.0588,-1.334605 0.17345,-0.703258 0.64506,-1.449547 0.46397,-0.734186 1.02469,-1.192717 0.56327,-0.462566 1.19697,-0.643537 0.60482,-0.170998 1.2618,-0.04936 0.66101,0.124183 1.28224,0.516766 0.64544,0.407879 1.02265,0.945434 0.38379,0.536071 0.49554,1.15425 z m -1.53588,2.269625 q 0.73928,-1.169857 0.61509,-2.134595 -0.12163,-0.968772 -1.02928,-1.542352 -0.91572,-0.578677 -1.84292,-0.272708 -0.92061,0.304484 -1.65989,1.474342 -0.74693,1.18196 -0.61213,2.147762 0.13736,0.961769 1.0329,1.5277 0.89555,0.565932 1.81914,0.274614 0.93016,-0.292803 1.67709,-1.474763 z"
         style="font-size:9.77299976px;font-family:MyriadPro-Regular;fill:#e6e6e6"
         id="path3406" /><path
         d="m 321.43477,69.049989 -4.64409,2.961887 -0.60855,-0.564891 1.79147,-3.943025 -3.792,2.086026 -0.60505,-0.561645 2.5981,-4.86109 0.68549,0.636314 -2.09125,3.690802 3.784,-2.119495 0.5421,0.503208 -1.80796,3.953768 3.48673,-2.395447 0.66101,0.613588 z"
         style="font-size:9.77299976px;font-family:MyriadPro-Regular;fill:#e6e6e6"
         id="path3408" /><path
         d="m 321.33293,77.521184 -0.54898,-0.709554 2.4004,-1.857181 q 0.29062,-0.224848 0.51721,-0.454462 0.23037,-0.232535 0.30371,-0.43408 0.0855,-0.216999 0.0238,-0.45279 -0.058,-0.23871 -0.27699,-0.521777 -0.22485,-0.290615 -0.61356,-0.496686 -0.38871,-0.206071 -0.83623,-0.324401 l -3.14771,2.435361 -0.54897,-0.709554 4.2158,-3.261748 0.54898,0.709554 -0.468,0.362092 q 0.53248,0.118964 0.96172,0.354017 0.42923,0.235053 0.71832,0.608701 0.52854,0.683135 0.39455,1.359976 -0.13398,0.676842 -0.90769,1.275462 l -2.73631,2.11707 z"
         style="font-size:9.77299976px;font-family:MyriadPro-Regular;fill:#e6e6e6"
         id="path3410" /><path
         d="m 326.72514,81.57628 -1.94266,-3.413213 q -0.42717,0.243128 -0.67334,0.553449 -0.24201,0.307961 -0.31777,0.647576 -0.0763,0.328961 -0.008,0.680069 0.0704,0.355256 0.27341,0.711922 0.2691,0.47279 0.72718,0.843507 0.46459,0.372503 0.76273,0.471859 l 0.0236,0.04147 -0.85019,0.483895 q -0.39013,-0.299573 -0.7358,-0.646422 -0.34566,-0.346848 -0.60295,-0.798902 -0.65621,-1.152944 -0.40235,-2.153989 0.25801,-1.003406 1.40681,-1.657254 1.13635,-0.646766 2.15577,-0.408856 1.02178,0.242058 1.59774,1.253995 0.53346,0.937286 0.274,1.754835 -0.25711,0.821696 -1.2649,1.395289 l -0.42302,0.240767 z m 0.16524,-1.098859 q 0.61144,-0.353496 0.7727,-0.851592 0.16361,-0.493949 -0.19046,-1.116041 -0.35643,-0.62624 -0.93798,-0.789414 -0.57918,-0.159027 -1.15495,0.102787 l 1.51069,2.65426 z"
         style="font-size:9.77299976px;font-family:MyriadPro-Regular;fill:#e6e6e6"
         id="path3412" /><path
         d="m 326.65069,88.110573 -0.32937,-0.834483 0.51933,-0.204978 q -0.45261,-0.236902 -0.7799,-0.559185 -0.32728,-0.322284 -0.50773,-0.779474 -0.35039,-0.887748 0.12645,-1.681319 0.47859,-0.789131 1.69037,-1.267411 0.6303,-0.248776 1.19308,-0.265692 0.56453,-0.01248 1.03163,0.157145 0.45648,0.168687 0.7917,0.498096 0.33698,0.333848 0.50692,0.764405 0.15417,0.39061 0.18896,0.725731 0.0392,0.333369 -0.002,0.734601 l 2.14835,-0.84794 0.32937,0.834483 -6.90668,2.726021 z m 0.89129,-1.316267 2.84523,-1.122995 q 0.0178,-0.39691 -0.0296,-0.68601 -0.0474,-0.289099 -0.17181,-0.60425 -0.2768,-0.701321 -0.91923,-0.899217 -0.64244,-0.197895 -1.53906,0.155997 -0.88331,0.348636 -1.22581,0.832672 -0.33806,0.482285 -0.0753,1.148096 0.14016,0.355099 0.43917,0.657758 0.30346,0.300907 0.67642,0.517949 z"
         style="font-size:9.77299976px;font-family:MyriadPro-Regular;fill:#e6e6e6"
         id="path3414" /></g><path
       id="SVGID_x5F_2_x5F_"
       d="m 215.7,123.7 c -3.9,-11.8 -4.9,-24.7 -2.4,-37.8 7.8,-41.1 47.4,-68 88.5,-60.2 41.1,7.8 68,47.4 60.2,88.5 -7.8,41.1 -47.4,68 -88.5,60.2 -28,-5.3 -49.5,-25.4 -57.8,-50.7"
       inkscape:connector-curvature="0"
       style="fill:none" /><g
       transform="matrix(0.03064192,-0.91707767,0.84602439,0.07021647,195.68145,363.3252)"
       style=""
       id="text33"><path
         d="m 293.43555,14.652555 -5.43175,9.693908 -1.65762,-0.03567 5.77283,-10.058541 -6.5685,-0.14136 0.0292,-1.355526 7.89303,0.169865 -0.0372,1.727327 z"
         style="font-size:15.8671999px;font-family:MyriadPro-Regular;fill:#e6e6e6"
         id="path3351" /><path
         d="m 304.07311,20.16731 q -0.47633,3.070079 -1.66431,4.359748 -1.17914,1.283201 -3.20034,0.969608 -2.05182,-0.318344 -2.77548,-1.920288 -0.716,-1.600756 -0.24799,-4.617242 0.47158,-3.039454 1.65309,-4.337967 1.1827,-1.306169 3.21155,-0.991389 2.05183,0.318344 2.76427,1.942069 0.72128,1.617256 0.25921,4.595461 z m -2.55283,3.163445 q 0.36418,-0.578566 0.58553,-1.398822 0.23019,-0.826724 0.41312,-2.005756 0.18055,-1.163721 0.21406,-2.036641 0.0412,-0.871732 -0.1418,-1.511667 -0.1765,-0.631091 -0.59719,-1.002137 -0.41304,-0.369857 -1.14036,-0.482703 -0.71967,-0.111658 -1.24067,0.113282 -0.51335,0.226127 -0.88281,0.788193 -0.3482,0.526161 -0.58909,1.42179 -0.23322,0.896816 -0.4019,1.983976 -0.1853,1.194345 -0.22581,2.011297 -0.0405,0.816952 0.13652,1.495167 0.16,0.636372 0.57066,1.021541 0.41831,0.386357 1.18392,0.505142 0.71967,0.111658 1.24067,-0.113281 0.521,-0.22494 0.87515,-0.789381 z"
         style="font-size:15.8671999px;font-family:MyriadPro-Regular;fill:#e6e6e6"
         id="path3353" /><path
         d="m 313.5387,20.084495 q -0.56516,1.640874 -1.53607,2.199647 -0.96359,0.561297 -2.2675,0.112197 -1.33321,-0.459192 -1.73946,-1.492295 -0.40625,-1.033103 0.15639,-2.666652 0.56516,-1.640874 1.53608,-2.199647 0.97091,-0.558774 2.27482,-0.109674 1.32589,0.456668 1.72961,1.497097 0.40372,1.040428 -0.15387,2.659327 z m 6.10382,-1.281948 -9.47055,8.939455 -1.20868,-0.4163 9.47055,-8.939455 1.20868,0.4163 z m 0.80138,9.093112 q -0.56516,1.640874 -1.53608,2.199648 -0.97092,0.558773 -2.27482,0.109673 -1.32589,-0.456668 -1.72961,-1.497097 -0.40372,-1.040428 0.15386,-2.659326 0.56516,-1.640875 1.52876,-2.202171 0.97091,-0.558773 2.27482,-0.109674 1.33321,0.459192 1.73946,1.492295 0.40624,1.033103 -0.15639,2.666652 z m -8.20911,-8.260264 q 0.43396,-1.259957 0.27589,-1.871616 -0.15075,-0.609136 -0.88328,-0.861439 -0.74718,-0.257349 -1.24107,0.12976 -0.49388,0.387109 -0.93036,1.654392 -0.43648,1.267282 -0.28574,1.876418 0.15328,0.601811 0.90046,0.85916 0.73253,0.252303 1.22389,-0.127481 0.50121,-0.384586 0.94021,-1.659194 z m 6.9052,7.811164 q 0.43396,-1.259957 0.27589,-1.871616 -0.15075,-0.609136 -0.88329,-0.861439 -0.74718,-0.257349 -1.24106,0.12976 -0.49388,0.38711 -0.93037,1.654392 -0.43648,1.267283 -0.28573,1.876419 0.15327,0.60181 0.90045,0.859159 0.73254,0.252303 1.22389,-0.127481 0.50121,-0.384586 0.94022,-1.659194 z"
         style="font-size:15.8671999px;font-family:MyriadPro-Regular;fill:#e6e6e6"
         id="path3355" /><path
         d="m 335.85367,36.937247 q -0.47966,0.713799 -1.11705,1.078909 -0.63739,0.36511 -1.33164,0.411985 -0.82537,0.06144 -1.59586,-0.194954 -0.76406,-0.252069 -1.76081,-0.921864 l -3.39536,-2.281624 6.43435,-9.575197 2.8359,1.905675 q 1.0482,0.704365 1.51722,1.131554 0.46903,0.42719 0.78068,0.991326 0.3415,0.63086 0.28559,1.228029 -0.0516,0.590739 -0.45779,1.195217 -0.45805,0.681646 -1.1294,0.930595 -0.66703,0.242518 -1.44024,0.142983 l -0.0346,0.05145 q 0.83706,0.851859 0.95576,1.883732 0.12302,1.025442 -0.54678,2.022189 z m 0.75817,-5.753927 q 0.23335,-0.347254 0.27748,-0.662969 0.0441,-0.315716 -0.1137,-0.636471 -0.18556,-0.376725 -0.59049,-0.704834 -0.4006,-0.334538 -1.03723,-0.762343 l -1.51763,-1.019817 -1.85814,2.765168 1.64624,1.106242 q 0.59805,0.401877 0.99062,0.581671 0.3969,0.173363 0.82878,0.183543 0.43187,0.01018 0.75715,-0.209955 0.33604,-0.222244 0.61692,-0.640235 z m -2.11745,4.915192 q 0.38892,-0.578756 0.44432,-1.036253 0.0554,-0.457496 -0.24129,-1.002239 -0.20064,-0.368186 -0.6141,-0.711367 -0.40272,-0.34529 -1.03292,-0.768774 l -1.99992,-1.343911 -2.39398,3.562565 1.68482,1.132169 q 0.83599,0.561764 1.4259,0.83683 0.59424,0.268636 1.09063,0.26616 0.52865,-0.0088 0.9119,-0.217982 0.38326,-0.209178 0.72464,-0.717198 z"
         style="font-size:15.8671999px;font-family:MyriadPro-Regular;fill:#e6e6e6"
         id="path3357" /><path
         d="m 336.53711,42.224513 -1.12096,-0.930059 7.69772,-9.277751 1.12096,0.930059 -7.69772,9.277751 z"
         style="font-size:15.8671999px;font-family:MyriadPro-Regular;fill:#e6e6e6"
         id="path3359" /><path
         d="m 343.47588,48.796817 -1.02564,-1.023279 0.65117,-0.652685 q -0.23014,-0.04356 -0.63562,-0.108833 -0.39452,-0.06529 -0.71241,-0.185443 -0.38364,-0.131038 -0.80029,-0.382564 -0.42212,-0.246041 -0.87187,-0.694751 -0.8282,-0.826284 -0.85689,-1.949328 -0.0287,-1.123044 0.81948,-1.97318 0.69495,-0.696564 1.41795,-0.828883 0.73396,-0.132331 1.53416,0.173535 0.80569,0.311339 1.67756,1.00609 0.87187,0.694751 1.81515,1.548294 l 0.15869,-0.159058 q 0.35021,-0.351024 0.45389,-0.707241 0.10916,-0.350746 0.0101,-0.712207 -0.0935,-0.345033 -0.35691,-0.695347 -0.26337,-0.350315 -0.59794,-0.684111 -0.40587,-0.404934 -1.01442,-0.793198 -0.60308,-0.393749 -1.33757,-0.721605 l -0.0548,-0.05472 1.04517,-1.047588 q 0.38374,0.218693 1.05265,0.689064 0.66891,0.470371 1.22287,1.023051 0.6472,0.645705 1.01494,1.231471 0.37869,0.585753 0.47252,1.19375 0.0938,0.597039 -0.12464,1.178005 -0.21846,0.580966 -0.80945,1.173319 l -4.14784,4.157443 z m 0.47918,-2.531586 1.70181,-1.705758 q -0.49904,-0.443175 -1.19548,-1.028561 -0.69095,-0.579914 -1.16789,-0.847805 -0.57012,-0.317089 -1.11249,-0.32194 -0.5369,-0.01034 -1.00202,0.455868 -0.52532,0.526537 -0.47534,1.11267 0.0555,0.580649 0.70814,1.231826 0.54299,0.541736 1.20068,0.782026 0.66316,0.234805 1.34259,0.321674 z"
         style="font-size:15.8671999px;font-family:MyriadPro-Regular;fill:#e6e6e6"
         id="path3361" /><path
         d="m 349.72015,55.616772 q -0.7252,-0.355004 -1.2856,-0.751426 -0.5556,-0.390344 -1.01214,-0.967677 -0.58148,-0.735341 -0.85414,-1.517334 -0.26659,-0.786799 -0.17503,-1.57036 0.0867,-0.789639 0.56301,-1.561344 0.47627,-0.771705 1.36962,-1.47813 1.66515,-1.316737 3.33403,-1.154832 1.67369,0.167981 2.86068,1.669048 0.46133,0.583411 0.73937,1.272264 0.28283,0.694931 0.41585,1.350294 l -1.27013,1.004372 -0.0481,-0.06077 q -0.006,-0.844615 -0.22944,-1.576718 -0.21853,-0.726027 -0.63662,-1.254743 -0.7689,-0.972351 -1.87216,-1.018525 -1.09237,-0.0449 -2.35643,0.954665 -1.22759,0.970733 -1.4575,2.041492 -0.21903,1.072031 0.56909,2.068691 0.27392,0.3464 0.64861,0.63287 0.37469,0.286471 0.7464,0.456764 0.32465,0.148247 0.63743,0.256497 0.31886,0.103445 0.52309,0.149371 l 0.0481,0.06077 -1.25798,0.994762 z"
         style="font-size:15.8671999px;font-family:MyriadPro-Regular;fill:#e6e6e6"
         id="path3363" /><path
         d="m 354.47932,64.194549 -1.00906,-1.635132 1.4013,-4.943417 -1.26121,-0.332402 -2.45929,1.517651 -0.76493,-1.239536 10.25914,-6.331006 0.76493,1.239536 -6.58009,4.060633 5.89498,1.305706 0.9643,1.562606 -5.51382,-1.322425 -1.69625,6.117786 z"
         style="font-size:15.8671999px;font-family:MyriadPro-Regular;fill:#e6e6e6"
         id="path3365" /><path
         d="m 372.85295,79.83853 -11.89446,0.77274 -0.5421,-1.640479 8.33163,-5.307196 -9.83638,0.753581 -0.52995,-1.603697 9.9959,-6.518093 0.49348,1.493351 -8.34634,5.312058 9.85596,-0.74373 0.48861,1.478638 -8.43948,5.326516 9.95153,-0.750832 0.4716,1.427143 z"
         style="font-size:15.8671999px;font-family:MyriadPro-Regular;fill:#e6e6e6"
         id="path3367" /><path
         d="m 367.31916,91.496743 q -2.0893,0.329409 -3.46742,-0.55138 -1.37812,-0.88079 -1.66168,-2.679273 -0.28597,-1.813789 0.7543,-3.075873 1.04147,-1.25443 3.13077,-1.58384 2.0893,-0.329409 3.46622,0.543728 1.38577,0.879582 1.67174,2.693372 0.28356,1.798482 -0.76436,3.061773 -1.04026,1.262084 -3.12957,1.591493 z m -0.23408,-1.484705 q 1.66072,-0.261838 2.36174,-1.039049 0.70867,-0.778418 0.52647,-1.934039 -0.18462,-1.170927 -1.09841,-1.69354 -0.90494,-0.516166 -2.56566,-0.254328 -1.60716,0.253392 -2.33878,1.03543 -0.72398,0.78083 -0.54057,1.944105 0.18099,1.147967 1.10244,1.669373 0.93031,0.527853 2.55277,0.272048 z"
         style="font-size:15.8671999px;font-family:MyriadPro-Regular;fill:#e6e6e6"
         id="path3369" /><path
         d="m 363.27894,107.06165 0.0144,-1.45649 4.92727,0.0488 q 0.55781,0.006 1.07741,-0.0436 0.51953,-0.0413 0.83103,-0.20096 0.3349,-0.17489 0.50864,-0.50633 0.17374,-0.33144 0.17996,-0.95897 0.006,-0.61204 -0.29775,-1.22714 -0.29608,-0.61503 -0.7626,-1.23175 -0.17842,0.0215 -0.41874,0.0346 -0.23257,0.0132 -0.46499,0.0109 l -5.5393,-0.0549 0.0144,-1.45648 4.92726,0.0488 q 0.5733,0.006 1.08516,-0.0435 0.51953,-0.04134 0.83103,-0.200961 0.3349,-0.174885 0.5009,-0.506405 0.17374,-0.331444 0.17996,-0.958973 0.006,-0.596541 -0.2825,-1.203746 -0.28848,-0.599458 -0.73966,-1.200529 l -6.46123,-0.06404 0.0144,-1.456488 8.65371,0.08577 -0.0144,1.456488 -0.96066,-0.0095 q 0.55879,0.687366 0.86975,1.364527 0.31088,0.684909 0.30328,1.451889 -0.009,0.883189 -0.38669,1.491539 -0.37801,0.6161 -1.03952,0.91171 0.73498,0.89056 1.05315,1.62203 0.32591,0.73155 0.3177,1.56051 -0.0141,1.4255 -0.88851,2.09091 -0.8667,0.67324 -2.41616,0.65788 l -5.61677,-0.0557 z"
         style="font-size:15.8671999px;font-family:MyriadPro-Regular;fill:#e6e6e6"
         id="path3371" /><path
         d="m 361.60893,116.47386 0.25024,-1.42704 0.90812,0.15924 q -0.0963,-0.21353 -0.27531,-0.58315 -0.17273,-0.36066 -0.25656,-0.68999 -0.11263,-0.38945 -0.14547,-0.87503 -0.0405,-0.48691 0.0693,-1.11267 0.20207,-1.15232 1.1057,-1.81977 0.90363,-0.66746 2.08647,-0.46005 0.96916,0.16995 1.49214,0.68642 0.52926,0.52543 0.73751,1.3564 0.20691,0.8386 0.13765,1.95128 -0.0693,1.11267 -0.22767,2.3749 l 0.2213,0.0388 q 0.4884,0.0857 0.83969,-0.0337 0.34995,-0.11168 0.5893,-0.40008 0.22905,-0.27447 0.36504,-0.69111 0.13599,-0.41664 0.21761,-0.88215 0.099,-0.5647 0.0682,-1.28591 -0.0232,-0.71987 -0.17577,-1.50961 l 0.0134,-0.0763 1.45756,0.25559 q 0.0409,0.43979 0.0391,1.25753 -0.002,0.81773 -0.13696,1.58848 -0.15791,0.90049 -0.42695,1.53764 -0.26276,0.64612 -0.70707,1.07162 -0.43534,0.41921 -1.03658,0.57336 -0.60124,0.15414 -1.42541,0.01 l -5.78446,-1.01434 z m 2.34883,-1.05904 2.3733,0.41617 q 0.0769,-0.66297 0.15719,-1.56921 0.0789,-0.8986 0.0249,-1.44295 -0.0671,-0.6489 -0.37415,-1.09604 -0.29939,-0.44579 -0.94804,-0.55953 -0.7326,-0.12847 -1.18414,0.24857 -0.44392,0.37838 -0.60316,1.28649 -0.13248,0.75549 0.0478,1.4321 0.18788,0.67795 0.5063,1.2844 z"
         style="font-size:15.8671999px;font-family:MyriadPro-Regular;fill:#e6e6e6"
         id="path3373" /><path
         d="m 358.81028,126.13608 0.43244,-1.39089 4.70534,1.46294 q 0.56967,0.17711 1.08606,0.26464 0.52379,0.0898 0.86013,-3.2e-4 0.36823,-0.0883 0.62431,-0.39007 0.26347,-0.29941 0.43599,-0.85429 0.17711,-0.56967 0.0892,-1.27854 -0.0879,-0.70886 -0.34731,-1.41425 l -6.1702,-1.91837 0.43244,-1.39089 8.26393,2.56934 -0.43244,1.39088 -0.91739,-0.28522 q 0.33766,0.81896 0.42477,1.60871 0.0871,0.78976 -0.14061,1.52219 -0.41634,1.3391 -1.44128,1.79121 -1.02493,0.45212 -2.54159,-0.0194 l -5.36379,-1.66765 z"
         style="font-size:15.8671999px;font-family:MyriadPro-Regular;fill:#e6e6e6"
         id="path3375" /><path
         d="m 360.02457,146.54439 q -1.02383,0.22161 -2.1823,-0.0198 -1.16235,-0.23474 -2.39582,-0.94944 -1.23348,-0.7147 -2.018,-1.61698 -0.7817,-0.89169 -1.08625,-1.86509 -0.31972,-1.00904 -0.17219,-2.0518 0.14364,-1.03605 0.76901,-2.11534 0.60982,-1.05247 1.45948,-1.71526 0.84577,-0.65608 1.85901,-0.87487 1.01325,-0.21879 2.1689,0.0121 1.15177,0.23756 2.39194,0.95614 1.22006,0.70693 1.99894,1.58804 0.78559,0.88499 1.11872,1.9018 0.31514,0.97058 0.15878,2.04403 -0.16025,1.08016 -0.75842,2.11252 -0.62148,1.07259 -1.47007,1.71808 -0.84577,0.65609 -1.84173,0.87594 z m -3.77797,-2.35022 q 1.94406,1.12643 3.50148,0.86478 1.56413,-0.25776 2.43808,-1.76608 0.88172,-1.52173 0.3275,-3.00691 -0.55141,-1.4746 -2.49546,-2.60103 -1.96417,-1.13808 -3.52266,-0.85914 -1.55178,0.28282 -2.41409,1.77103 -0.8623,1.48821 -0.33207,2.96845 0.53305,1.49082 2.49722,2.6289 z"
         style="font-size:15.8671999px;font-family:MyriadPro-Regular;fill:#e6e6e6"
         id="path3377" /><path
         d="m 348.77977,158.48975 -5.20643,-7.27118 0.86282,-1.03581 6.54862,2.56096 -3.71224,-5.96603 0.85786,-1.02986 8.10728,3.78872 -0.97191,1.16678 -6.16582,-3.06894 3.7658,5.95015 -0.7686,0.92271 -6.56747,-2.58675 4.18729,5.44415 -0.9372,1.1251 z"
         style="font-size:15.8671999px;font-family:MyriadPro-Regular;fill:#e6e6e6"
         id="path3379" /><path
         d="m 335.11249,159.14287 1.09115,-0.96486 3.2641,3.69133 q 0.39519,0.44691 0.79128,0.78958 0.40123,0.34849 0.73555,0.44586 0.36066,0.11546 0.73609,-0.01 0.38056,-0.11933 0.81586,-0.50425 0.44691,-0.39518 0.73942,-1.04684 0.29251,-0.65166 0.43661,-1.38928 l -4.28029,-4.84053 1.09115,-0.96486 5.73272,6.48305 -1.09115,0.96487 -0.6364,-0.7197 q -0.1361,0.87533 -0.47125,1.59572 -0.33515,0.7204 -0.90975,1.22849 -1.05052,0.92894 -2.16131,0.78387 -1.11079,-0.14508 -2.1629,-1.33489 l -3.72088,-4.20789 z"
         style="font-size:15.8671999px;font-family:MyriadPro-Regular;fill:#e6e6e6"
         id="path3381" /><path
         d="m 329.22366,168.37006 5.27782,-3.578 q -0.44779,-0.66053 -0.98135,-1.01955 -0.52921,-0.35261 -1.08854,-0.43207 -0.54215,-0.0817 -1.10181,0.073 -0.56607,0.15911 -1.11758,0.533 -0.73107,0.49561 -1.27291,1.28416 -0.54391,0.7993 -0.66686,1.2945 l -0.0641,0.0435 -0.89123,-1.31464 q 0.43532,-0.66953 0.95282,-1.27308 0.51749,-0.60356 1.2165,-1.07743 1.78279,-1.20861 3.43532,-0.92489 1.65689,0.29014 2.86115,2.06652 1.19122,1.75713 0.93564,3.43739 -0.26198,1.6846 -1.82673,2.74539 -1.44932,0.98254 -2.80556,0.66643 -1.36266,-0.31176 -2.41911,-1.87009 l -0.44344,-0.65412 z m 1.7996,0.12787 q 0.64984,0.94476 1.47655,1.14249 0.82029,0.20207 1.78222,-0.45005 0.96835,-0.65648 1.15859,-1.6185 0.18382,-0.95768 -0.3131,-1.85635 l -4.10426,2.78241 z"
         style="font-size:15.8671999px;font-family:MyriadPro-Regular;fill:#e6e6e6"
         id="path3383" /><path
         d="m 318.69323,169.18413 1.29958,-0.65778 0.40936,0.80878 q 0.31501,-0.76728 0.78687,-1.34477 0.47185,-0.57749 1.18386,-0.93786 1.38253,-0.69976 2.73703,-0.0481 1.34759,0.65518 2.30277,2.54234 0.49682,0.98159 0.60868,1.88885 0.10495,0.91075 -0.0991,1.69135 -0.20416,0.76328 -0.68634,1.35468 -0.4891,0.59489 -1.15963,0.93428 -0.60831,0.30789 -1.14485,0.41447 -0.53303,0.11349 -1.18794,0.10631 l 1.69342,3.34571 -1.29958,0.65778 -5.44412,-10.75607 z m 2.26175,1.2432 2.24272,4.431 q 0.64432,-0.0309 1.10457,-0.15094 0.46024,-0.12006 0.95104,-0.36848 1.09219,-0.5528 1.31564,-1.62109 0.22344,-1.06828 -0.48331,-2.46464 -0.69626,-1.37561 -1.5302,-1.85661 -0.83043,-0.47408 -1.86733,0.0507 -0.55301,0.27991 -0.99739,0.80875 -0.44088,0.53576 -0.73574,1.17128 z"
         style="font-size:15.8671999px;font-family:MyriadPro-Regular;fill:#e6e6e6"
         id="path3385" /></g><g
       transform="matrix(1,0,0,-1,-0.44247788,1034.292)"
       id="g39"><ellipse
         cx="287.60001"
         cy="944.5"
         rx="12.4"
         ry="11.7"
         id="ellipse41"
         style="fill:none;stroke:#cccccc;stroke-width:2" /><path
         d="m 287.6,905.9 0,26.9 m -14.8,-13 29.6,0"
         id="path43"
         inkscape:connector-curvature="0"
         style="fill:none;stroke:#e6e6e6;stroke-width:3" /><path
         d="m 289.1,932.8 0,3.5 c 2.1,1.2 5,3.4 5,5.4 0,1 -0.7,1.9 -1.9,1.9 -1,0 -1.6,-0.3 -2.5,-0.3 -1.9,0 -1.6,1 -2.1,1 -0.5,0 -0.9,-0.5 -0.9,-1.3 0,-1.2 1,-1.8 1.9,-1.8 0.6,0 0.8,0.2 1.1,0.2 0.2,0 0.3,0 0.3,-0.2 0,-0.2 -0.4,-0.6 -1,-0.6 -1.9,0 -2.2,1.4 -4.6,1.4 -1.5,0 -2.4,-1 -2.4,-2.5 0,-2 2.2,-2.9 3.8,-3.2 l 0,-3.5 3.3,0 z m 4.1,13.9 c 0,0.8 -0.9,2.1 -1.5,2.1 -0.6,0 -1,-3.4 -1,-3.8 0,-0.6 0.6,-1.3 1.2,-1.3 0.4,0 1.3,2.2 1.3,3 z m -2.5,1.8 c 0,1 -1.5,1.5 -2.1,1.5 -0.7,0 -1,-2 -1,-4 0,-0.8 0.3,-1.9 1.3,-1.9 1.1,0 1.8,2.3 1.8,4.4 z m -3.3,0.2 c 0,0.6 -0.2,1.1 -0.7,1.1 -0.8,0 -2.3,-1 -2.3,-2 0,-2 0.4,-4 1.4,-4 1.1,0 1.6,3.8 1.6,4.9 z m -3,-4.9 c 0,1.8 -0.2,4 -0.8,4 -0.8,0 -1.7,-0.6 -1.7,-1.5 0,-1.7 0.8,-3.8 1.9,-3.8 0.4,-0.2 0.6,0.2 0.6,1.3 z"
         id="path45"
         inkscape:connector-curvature="0"
         style="fill:#e6e6e6" /></g><path
       d="m 365,75 -76.9,25 0,-81 c 36,0 66.4,23.5 76.9,56 z"
       id="path47"
       inkscape:connector-curvature="0"
       style="fill:none" /><line
       x1="288.10001"
       y1="19"
       x2="288.10001"
       y2="0"
       id="line49"
       style="fill:none" /><line
       x1="383.20001"
       y1="69.099998"
       x2="365"
       y2="75"
       id="line51"
       style="fill:none" /></g></svg>