<?xml version="1.0" encoding="utf-8"?>
<!-- Generator: Adobe Illustrator 18.1.1, SVG Export Plug-In . SVG Version: 6.00 Build 0)  -->
<svg version="1.1"
	 id="Layer_1" xmlns:dc="http://purl.org/dc/elements/1.1/" xmlns:cc="http://creativecommons.org/ns#" xmlns:rdf="http://www.w3.org/1999/02/22-rdf-syntax-ns#" xmlns:svg="http://www.w3.org/2000/svg" xmlns:sodipodi="http://sodipodi.sourceforge.net/DTD/sodipodi-0.dtd" xmlns:inkscape="http://www.inkscape.org/namespaces/inkscape" sodipodi:docname="lacam-hist-icons_Cal.svg" inkscape:version="0.91 r13725"
	 xmlns="http://www.w3.org/2000/svg" xmlns:xlink="http://www.w3.org/1999/xlink" x="0px" y="0px" viewBox="0 0 612 792"
	 enable-background="new 0 0 612 792" xml:space="preserve">
<sodipodi:namedview  inkscape:cy="76.449997" inkscape:cx="82.099998" inkscape:zoom="1.5434925" showgrid="false" guidetolerance="10" gridtolerance="10" objecttolerance="10" bordercolor="#666666" pagecolor="#ffffff" borderopacity="1" id="namedview19" inkscape:current-layer="g3" inkscape:window-maximized="1" inkscape:window-y="-8" inkscape:window-x="-8" inkscape:window-height="1017" inkscape:window-width="1920" inkscape:pageshadow="2" inkscape:pageopacity="0">
	</sodipodi:namedview>
<g id="g3">
	<path id="path5" fill="#B3B3B3" d="M567.6,680.9H44.4C19.8,680.9,0,661.2,0,636.6V184.1c0-24.6,19.8-44.4,44.4-44.4h523.3
		c24.6,0,44.4,19.8,44.4,44.4V637C612,661.2,592.2,680.9,567.6,680.9z"/>
	<rect id="rect7" y="139.8" fill="#1A1A1A" width="612" height="193.8"/>
	<g enable-background="new    ">
		<path fill="#F2F2F2" d="M160.3,281.2l33.1-42.8c4.2-5.4,7.5-9.5,7.5-16.8c0-8.5-5.6-14.6-14.4-14.6c-10.6,0-16,8.3-17.3,18
			l-8.9-1.2c2.1-14.9,10.3-25.2,26.2-25.2c14.1,0,23.7,8.6,23.7,22.8c0,8.6-4.3,15.3-9.4,21.9l-29.2,38h38.5v8.1h-49.9V281.2z"/>
		<path fill="#F2F2F2" d="M290.7,244.6c0,14.4,2.4,45.9-25,45.9c-27.4,0-25-30.5-25-45.9c0-21.1-1.1-46,25-46
			C294.2,198.6,290.7,234.5,290.7,244.6z M250.2,244.6c0,35.2,6.4,37.4,15.6,37.4c10.3,0,15.6-4.2,15.6-37.4
			c0-34.6-6-37.6-15.6-37.6C248.8,207,250.2,226.7,250.2,244.6z"/>
		<path fill="#F2F2F2" d="M343.4,210.6L327,217l-2.8-8.2l28.2-10.7v83.2h19.2v8.1h-50.7v-8.1h22.5V210.6z"/>
		<path fill="#F2F2F2" d="M401.2,266.9l13.3-68.8l9,2.4L412,258.8h24.3v-45.5h9v45.5h7.1v8.1h-7.1v22.4h-9v-22.4H401.2z"/>
	</g>
	<g enable-background="new    ">
		<path fill="#1A1A1A" d="M196.6,436.9c0,7.1-0.3,17.9-0.8,32.2s-0.8,25-0.8,32.2c0,3.5,0,8.7,0.1,15.5c0.1,6.8,0.1,12,0.1,15.4
			c0,15.9-1.5,28.9-4.4,38.8c-3.9,13.4-11,24.1-21.1,32.2c-1.4,1.1-2.4,1.6-2.9,1.6c-0.5,0-1.1-0.4-1.7-1.2
			c-5.2-5.8-10.3-11-15.3-15.6c-0.7-0.6-1-1.1-1-1.6c0-0.6,0.4-1.2,1.2-2c4.9-4.3,8.3-7.5,10-9.6c2.7-3.5,4.7-7.8,6.1-12.8
			c1.8-6.7,2.7-20.5,2.7-41.4l-0.1-16.5c0-6.8-0.4-17.9-1.3-33.1c-0.9-14.6-1.3-25.7-1.3-33.1c0-2.1,1.1-3.2,3.2-3.2
			c1.4,0,3.5,0.1,6.2,0.3c2.8,0.2,4.8,0.3,6.2,0.3c1.4,0,3.4-0.1,6.1-0.3c2.7-0.2,4.7-0.3,6-0.3
			C195.7,434.7,196.6,435.4,196.6,436.9z"/>
		<path fill="#1A1A1A" d="M325,488.8c0,0.3-0.1,0.9-0.3,2c-2.8,16.7-4.3,31-4.3,43.1c0,0.7,0.9,17.1,2.7,49l0.1,1.5
			c0.1,2.1-0.9,3.2-2.9,3.2c-2,0-5,0.2-9.1,0.7c-4,0.5-7,0.7-9,0.7c-1.4,0-2.4-2.5-3.2-7.6c-0.7-5.1-1.4-7.6-2.1-7.6
			c-0.4,0-2.4,1.4-5.9,4.3c-4.3,3.5-8.3,6.2-12,8c-5.8,2.9-11.5,4.4-17.3,4.4c-14.1,0-26-5.6-35.7-16.9
			c-9.2-10.8-13.8-23.3-13.8-37.7c0-16.2,4.6-29.5,13.9-40.1c9.7-11,22.4-16.5,38.2-16.5c11.1,0,20.9,3.9,29.2,11.6
			c1.2,1.5,3.2,3.6,5.8,6.3c0.2,0.2,0.4,0.3,0.7,0.3c0.4,0,1.1-2.3,1.9-6.9c0.8-4.6,1.8-6.9,3.1-6.9c2,0,5.6,0.5,11,1.6
			C322.1,486.6,325,487.8,325,488.8z M297.2,534.5c0-9-2.7-16.6-8-23c-5.6-6.9-12.8-10.4-21.5-10.4c-8.7,0-16,3.4-21.8,10.3
			c-5.6,6.6-8.4,14.3-8.4,23.1c0,8.8,2.8,16.5,8.4,22.9c5.8,6.8,13.1,10.2,21.8,10.2c8.5,0,15.7-3.5,21.4-10.4
			C294.5,550.7,297.2,543.1,297.2,534.5z"/>
		<path fill="#1A1A1A" d="M439,585.5c0,1.6-0.7,2.4-2.2,2.4c-2.4,0-6,0-10.8-0.1c-4.8-0.1-8.4-0.1-10.8-0.1c-1.3,0-2-1.1-2-3.2
			c0-3.6,0.1-9,0.3-16.3c0.2-7.3,0.3-12.7,0.3-16.4c0-2.9,0-7.3-0.1-13c-0.1-5.8-0.1-10.1-0.1-13c0-8.3-1.2-14.2-3.6-17.6
			c-2.9-4.1-8.3-6.1-16.2-6.1c-3.6,0-8.7,2-15.2,6.1c-6.8,4.3-10.3,8.1-10.3,11.5v65.5c0,1.8-0.7,2.7-2.1,2.7c-2.3,0-5.8,0-10.5-0.1
			c-4.7-0.1-8.2-0.1-10.5-0.1c-1.5,0-2.3-0.8-2.3-2.5c0-5.7,0.1-14.4,0.3-25.9c0.2-11.5,0.3-20.2,0.3-26c0-15.5-1.6-29.8-4.9-42.9
			c-0.2-0.7-0.3-1.1-0.3-1.4c0-0.7,0.5-1.2,1.4-1.5c0.5-0.1,4.7-0.7,12.5-2c7.8-1.3,11.9-1.9,12.3-1.9c0.4,0,0.7,0.6,0.9,1.7
			c0.4,4.5,1.2,9.1,2.5,13.6c3.8-3,8.8-6.7,15-11.1c7.6-4.7,15-7,22.2-7c13.7,0,23,4,28.1,11.9c3.7,5.8,5.6,15.3,5.6,28.3
			c0,2.3-0.1,5.7-0.2,10.4c-0.1,4.7-0.2,8.2-0.2,10.5c0,4.9,0.1,12.2,0.2,21.8C439,573.3,439,580.6,439,585.5z"/>
	</g>
	<path id="path13" fill="#333333" d="M109.2,223.6H87.6c-6.7,0-12.3-5.6-12.3-12.3v-88c0-6.7,5.6-12.3,12.3-12.3h21.6
		c6.7,0,12.3,5.6,12.3,12.3v88C121.5,218,115.9,223.6,109.2,223.6z"/>
	<path id="path15" fill="#333333" d="M520.3,223.6h-18.6c-7.5,0-13.8-6.3-13.8-13.8v-85c0-7.5,6.3-13.8,13.8-13.8h18.6
		c7.5,0,13.8,6.3,13.8,13.8v85C534.1,217.3,528.1,223.6,520.3,223.6z"/>
	<rect id="rect17" y="333.6" fill="#333333" width="612" height="30.2"/>
	<path fill="#1A1A1A" d="M271,512"/>
</g>
</svg>
