<?xml version="1.0" encoding="utf-8"?>
<!-- Generator: Adobe Illustrator 18.1.1, SVG Export Plug-In . SVG Version: 6.00 Build 0)  -->
<svg
   xmlns:dc="http://purl.org/dc/elements/1.1/"
   xmlns:cc="http://creativecommons.org/ns#"
   xmlns:rdf="http://www.w3.org/1999/02/22-rdf-syntax-ns#"
   xmlns="http://www.w3.org/2000/svg"
   version="1.1"
   id="Layer_1"
   x="0px"
   y="0px"
   viewBox="0 0 231.66209 160.08509"
   enable-background="new 0 0 383.2 354.4"
   xml:space="preserve"
   width="231.66209"
   height="160.08508" xmlns:xsi="http://www.w3.org/2001/XMLSchema-instance" ><metadata
     id="metadata4630"><rdf:RDF><cc:Work
         rdf:about=""><dc:format>image/svg+xml</dc:format><dc:type
           rdf:resource="http://purl.org/dc/dcmitype/StillImage" /><dc:title></dc:title></cc:Work></rdf:RDF></metadata><defs
     id="defs4628" /><g
     id="g4244"
     transform="translate(-0.4,-194.3)"><g
       id="g4246"><path
         d="m 195.4,196.3 0,142.6 c 0,7.4 -6,13.4 -13.4,13.4 l -155.6,0 -9.5,0 c -8,0 -14.5,-6.5 -14.5,-14.5 l 0,-113.5 23.6,0 0,-28 169.4,0 z"
         id="path4248"
         inkscape:connector-curvature="0"
         style="fill:#f2f2f2;stroke:#1a1a1a;stroke-width:4" /><path
         d="M 89.6,329"
         id="path4250"
         inkscape:connector-curvature="0"
         style="fill:#4d4d4d" /><path
         d="M 104.1,340.8"
         id="path4252"
         inkscape:connector-curvature="0"
         style="fill:#4d4d4d" /><path
         d="m 25.9,223 c 0,0 0.2,113.8 0.2,117.8 0,5.5 -3.5,10.9 -9.2,11.6"
         id="path4254"
         inkscape:connector-curvature="0"
         style="fill:none;stroke:#1a1a1a;stroke-width:4" /><text
         transform="matrix(1.2535,0,0,1,43.898,247.2578)"
         font-size="48.9679"
         id="text4256"
         style="font-size:48.96789932px;font-family:Rockwell;fill:#1a1a1a">JOBS</text>
<rect
         x="44"
         y="266"
         width="60.200001"
         height="42.799999"
         id="rect4258"
         style="fill:none;stroke:#1a1a1a;stroke-width:4" /><line
         x1="44.099998"
         y1="320"
         x2="104.1"
         y2="320"
         id="line4260"
         style="fill:none;stroke:#1a1a1a;stroke-width:4" /><line
         x1="44.099998"
         y1="330"
         x2="104.1"
         y2="330"
         id="line4262"
         style="fill:none;stroke:#1a1a1a;stroke-width:4" /><line
         x1="44.099998"
         y1="341"
         x2="104.1"
         y2="341"
         id="line4264"
         style="fill:none;stroke:#1a1a1a;stroke-width:4" /><line
         x1="119.1"
         y1="267"
         x2="179.10001"
         y2="267"
         id="line4266"
         style="fill:none;stroke:#1a1a1a;stroke-width:4" /><line
         x1="119.1"
         y1="278"
         x2="179.10001"
         y2="278"
         id="line4268"
         style="fill:none;stroke:#1a1a1a;stroke-width:4" /><line
         x1="119.1"
         y1="288"
         x2="179.10001"
         y2="288"
         id="line4270"
         style="fill:none;stroke:#1a1a1a;stroke-width:4" /><line
         x1="119.1"
         y1="299"
         x2="179.10001"
         y2="299"
         id="line4272"
         style="fill:none;stroke:#1a1a1a;stroke-width:4" /><line
         x1="119.1"
         y1="309"
         x2="179.10001"
         y2="309"
         id="line4274"
         style="fill:none;stroke:#1a1a1a;stroke-width:4" /><g
         id="g4276"><g
           id="g4278"><g
             id="g4280"><g
               id="g4282"><g
                 id="g4284"><path
                   d="m 179.8,320.5 c 0,-0.1 0,-0.3 -0.1,-0.2 l -0.1,0.3 0.2,-0.1 z"
                   id="path4286"
                   inkscape:connector-curvature="0"
                   style="fill:#202020" /><path
                   d="m 179.2,319.9 c -0.1,0.2 -0.2,0.4 -0.2,0.7 0.1,-0.3 0.1,-0.2 0.2,-0.6 0.1,0 0.2,0.1 0.1,0.2 0,-0.1 0.1,0.1 0.2,-0.1 -0.1,-0.3 -0.3,-0.3 -0.4,-0.1 0.1,0.1 0.1,0 0.1,-0.1 z"
                   id="path4288"
                   inkscape:connector-curvature="0"
                   style="fill:#202020" /><path
                   d="m 170.7,319.4 0,0 c 0,0 0,0 0,0 z"
                   id="path4290"
                   inkscape:connector-curvature="0"
                   style="fill:#202020" /><path
                   d="m 165.4,319.2 c 0.1,0 0.1,0 0,0 0,0 0,0 0,0 z"
                   id="path4292"
                   inkscape:connector-curvature="0"
                   style="fill:#202020" /><path
                   d="m 164.5,318.8 c 0,0.1 0,0.1 0,0 0,0 0,0 0,0 z"
                   id="path4294"
                   inkscape:connector-curvature="0"
                   style="fill:#202020" /><path
                   d="m 170.7,319.4 -0.1,-0.1 c -0.1,0.1 0,0.1 0.1,0.1 z"
                   id="path4296"
                   inkscape:connector-curvature="0"
                   style="fill:#202020" /><path
                   d="m 178,320.7 c 0,0 0.1,0 0,0 0.1,-0.1 0,-0.1 0,0 0,0 0,0 0,0 z"
                   id="path4298"
                   inkscape:connector-curvature="0"
                   style="fill:#202020" /><path
                   d="m 173,319.1 0,0 c 0.1,0 0.1,-0.1 0.1,-0.1 l -0.1,0.1 z"
                   id="path4300"
                   inkscape:connector-curvature="0"
                   style="fill:#202020" /><path
                   d="m 174.8,319.1 c 0,0 -0.1,0.3 -0.1,0.4 0,-0.1 0.1,-0.2 0.1,-0.2 0,-0.1 0,-0.1 0,-0.2 z"
                   id="path4302"
                   inkscape:connector-curvature="0"
                   style="fill:#202020" /><path
                   d="m 177.6,319.6 0,0 c 0.1,-0.1 0,0 0,0 z"
                   id="path4304"
                   inkscape:connector-curvature="0"
                   style="fill:#202020" /><path
                   d="m 171.7,319.1 c 0,0 0,-0.1 0,-0.1 0,0 0,0 0,0.1 z"
                   id="path4306"
                   inkscape:connector-curvature="0"
                   style="fill:#202020" /><path
                   d="m 121.8,321.2 c 0,0 0,-0.1 0,0 0,0 0,0 0,0 z"
                   id="path4308"
                   inkscape:connector-curvature="0"
                   style="fill:#202020" /><path
                   d="m 119.8,319.8 0,0 c 0,-0.1 0,-0.1 0,-0.2 l 0,0.2 z"
                   id="path4310"
                   inkscape:connector-curvature="0"
                   style="fill:#202020" /><path
                   d="m 162.9,318.5 c 0,0 0,0 0,0 0,0 0,0 0,0 z"
                   id="path4312"
                   inkscape:connector-curvature="0"
                   style="fill:#202020" /><path
                   d="m 147.7,318.7 c 0.2,0.3 -0.3,0.3 0,0.6 0,-0.1 0.3,-0.4 0,-0.6 z"
                   id="path4314"
                   inkscape:connector-curvature="0"
                   style="fill:#202020" /><path
                   d="m 178,320.7 c -0.1,0 -0.1,0 0,0 -0.1,0 0,0 0,0 z"
                   id="path4316"
                   inkscape:connector-curvature="0"
                   style="fill:#202020" /><path
                   d="m 147.7,319.3 c 0,0 0,0 0,0 l 0,0 c 0,0 0,0 0,0 z"
                   id="path4318"
                   inkscape:connector-curvature="0"
                   style="fill:#202020" /><path
                   d="m 159.1,318.7 c 0,0 0,0.1 0,0.1 0,0 0,-0.1 0,-0.1 z"
                   id="path4320"
                   inkscape:connector-curvature="0"
                   style="fill:#202020" /><path
                   d="m 161.9,319.1 0,0 c 0,-0.1 0,0 0,0 z"
                   id="path4322"
                   inkscape:connector-curvature="0"
                   style="fill:#202020" /><path
                   d="m 157.6,319.1 c 0,0 -0.1,-0.1 -0.1,0 0,-0.1 0,0 0.1,0 -0.1,-0.1 0,-0.1 0,0 z"
                   id="path4324"
                   inkscape:connector-curvature="0"
                   style="fill:#202020" /><path
                   d="m 156.1,319.1 c 0,0 0,0 0,0 0,0 0,0 0,0 l 0,0 z"
                   id="path4326"
                   inkscape:connector-curvature="0"
                   style="fill:#202020" /><path
                   d="m 126.5,321 c 0,-0.1 -0.1,-0.2 -0.1,-0.3 0,0.3 -0.2,0.4 0.1,0.3 z"
                   id="path4328"
                   inkscape:connector-curvature="0"
                   style="fill:#202020" /><path
                   d="m 178,320.5 c 0,0.1 0,0.1 0,0.1 0,0 0,0 0.1,0 -0.1,0 -0.1,0 -0.1,-0.1 z"
                   id="path4330"
                   inkscape:connector-curvature="0"
                   style="fill:#202020" /><path
                   d="m 157.5,321.3 -0.2,0 c 0.1,0 0.2,0 0.2,0 z"
                   id="path4332"
                   inkscape:connector-curvature="0"
                   style="fill:#202020" /><path
                   d="m 137.5,321 0,0 c -0.1,0 -0.1,0 0,0 z"
                   id="path4334"
                   inkscape:connector-curvature="0"
                   style="fill:#202020" /><path
                   d="m 156.6,321.3 c 0,-0.1 -0.1,-0.2 -0.1,-0.2 0,0 0,0 0,0.1 l 0.1,0.1 z"
                   id="path4336"
                   inkscape:connector-curvature="0"
                   style="fill:#202020" /><path
                   d="m 126.4,320.8 c 0,0 0,0 0,0 0,0 0,0 0,0 z"
                   id="path4338"
                   inkscape:connector-curvature="0"
                   style="fill:#202020" /><path
                   d="m 124.8,321.5 c 0.2,0 0.1,-0.4 0.2,-0.6 0.3,-0.1 0.1,0.3 0.2,0.5 0.2,-0.1 0.3,-0.4 0.4,-0.4 0,0.1 0,0.1 0,0.2 0.2,-0.3 0.5,0 0.8,-0.4 0,0 0,0.1 0,0.1 0,-0.2 0,-0.4 0,-0.5 0.1,0 0.2,-0.2 0.2,0 -0.1,0 -0.1,0.1 -0.1,0.2 l 0.1,-0.1 c 0.1,0.3 -0.1,0.1 -0.1,0.4 0.2,-0.1 0.5,-0.4 0.6,-0.3 0,0.3 -0.4,0.1 -0.2,0.4 l -0.3,-0.1 c 0.2,0.5 -0.2,0 0,0.5 0.3,0.1 0.4,-0.2 0.7,-0.1 0.1,-0.2 0,-0.3 0,-0.5 0.5,-0.3 0.4,0.9 0.7,0.4 0.1,-0.2 0.1,-0.7 0.4,-0.4 l -0.1,0.4 c 0.3,0 0.2,-0.6 0.5,-0.3 -0.1,0.2 -0.3,0.1 -0.2,0.2 0.2,0.3 0.2,-0.2 0.3,-0.2 l 0,0.3 c 0.3,-0.1 0.7,-0.3 1.1,-0.4 0,0.1 -0.1,0.2 0,0.3 0.5,-0.2 1,0 1.5,0.2 l 0.2,-0.3 c 0,0 0.1,0.1 0,0.2 0.2,0.1 0,-0.2 0.1,-0.3 0.1,0 0.1,0.2 0.1,0.3 0.3,-0.2 0.9,-0.5 1.2,-0.2 l -0.1,0.1 c 0.3,0.1 0.3,-0.6 0.5,-0.3 l 0,0.1 c 0.6,0.1 1.2,-0.1 1.6,0.3 0.1,-0.4 0.6,0.2 0.6,-0.4 0.3,0.3 0.2,0.4 0.7,0.6 0.1,0 0.2,-0.4 0.3,-0.4 l 0,0.3 0.2,-0.3 0.1,0.4 0.1,-0.1 c -0.1,0 -0.1,-0.1 -0.1,-0.2 0.2,-0.1 0.5,0.2 0.5,0.4 l 0.5,-0.3 c 0,0.1 -0.1,0.2 -0.2,0.2 0.3,-0.3 0.1,0.3 0.3,0 0,-0.1 0,-0.2 0,-0.2 0.1,0.2 0.4,0.2 0.6,0.1 l 0,0.2 c 0.4,0.1 0.8,-0.1 1.2,-0.1 -0.2,-0.1 -0.1,-0.5 0,-0.5 l 0.1,0.3 c 0.1,-0.2 -0.1,-0.1 0,-0.4 0.2,0 0.1,0.4 0,0.5 l 0.2,-0.1 c 0,0.1 0,0.1 0,0.3 0.1,-0.2 0.3,0.3 0.5,0 l 0,0.1 c 0.4,0 0.6,-0.1 1,-0.1 0,-0.3 0.1,-0.2 0.2,-0.4 0.3,0.1 0.5,0.3 0.9,0.3 0.2,-0.1 0.1,-0.2 0.2,-0.4 0,0.3 0.3,0.2 0.2,0.4 0.4,0 0.5,-0.1 0.9,-0.3 -0.1,-0.1 -0.1,-0.2 -0.1,-0.2 0.1,0 0.2,0.1 0.2,0.2 l 0,0 c 0.5,-0.4 1.2,0.7 1.6,0.2 l 0,0 0.4,-0.3 c 0.2,0 -0.1,0.2 0,0.4 0.5,-0.4 0.7,0.1 1.1,-0.2 0.3,0.8 1.1,-0.1 1.5,0.4 l 0,-0.2 c 0.1,-0.2 0.1,0.1 0.2,0.1 0,-0.1 -0.1,-0.2 0,-0.3 0.9,-0.2 1.8,0.3 2.7,0.4 0.3,0 0.2,-0.9 0.6,-0.5 l -0.1,0.3 c 0.7,-0.4 1.4,0 2,-0.3 0,0.1 0,0.2 -0.1,0.2 0.1,0.2 0.5,0 0.5,-0.2 0.1,0 0,0.2 0.1,0.3 0.1,0.1 0.3,-0.3 0.4,-0.1 0,0 0,0.1 -0.1,0.1 0.1,-0.1 0.4,0 0.3,-0.2 0.2,0.1 0.5,-0.1 0.7,0 0.1,-0.3 0.4,0.1 0.5,-0.3 0,0.5 0.4,0.4 0.6,0.2 -0.1,0.1 0.1,0.1 0.1,0.3 0.2,0 0.3,-0.1 0.3,-0.3 0.3,0.5 0.7,-0.4 0.8,0.3 0.5,-0.2 1,-0.4 1.5,-0.5 0,0.5 -0.5,0 -0.5,0.5 0.5,-0.2 0.7,-0.6 1.2,-0.5 0.1,0.1 -0.1,0.2 -0.1,0.3 0.5,-0.2 0.9,0 1.3,-0.2 0,0 0,0.1 -0.1,0.1 0.1,0 0.2,0.1 0.2,-0.1 l -0.1,0.1 c -0.1,-0.3 0.3,-0.6 0.3,-0.8 -0.1,0.6 0.4,0.1 0.2,0.9 0.1,0 0.1,-0.1 0.1,-0.3 0.1,0 0.1,0.1 0,0.3 0.3,-0.1 0.2,-0.3 0.4,-0.3 0,0.1 -0.1,0.1 -0.1,0.3 0.1,-0.2 0.3,-0.4 0.5,-0.3 0,0.1 0,0.1 -0.1,0.1 0.4,0 0.6,-0.5 1,-0.3 -0.1,0.4 0.1,0.1 0.2,0.5 l 0.2,-0.1 -0.1,-0.2 c 0.2,0 0.4,-0.3 0.5,-0.1 l -0.1,0.2 0.4,-0.1 -0.2,-0.1 c 0.2,-0.2 0,-0.5 0.2,-0.4 -0.1,0 0.2,0 0.3,0.2 0,0 0,0 0,0 0.1,-0.1 0.2,-0.2 0.3,-0.2 0,0.1 0,0.4 0,0.5 0.1,-0.3 0.5,-0.1 0.6,-0.4 0,0.1 0,0.3 0,0.3 l 0.1,-0.3 c 0.1,0.1 0.1,0.1 0.1,0.3 0.3,0 -0.1,-0.5 0.2,-0.3 0,0 0,0.1 -0.1,0.1 0.3,0.1 0.6,-0.2 0.9,0 0.1,0.4 -0.3,0.1 -0.2,0.4 0.4,-0.1 0.9,-0.5 1.3,-0.4 l -0.1,0 c 0.1,-0.5 0.3,0.3 0.5,0 -0.1,0 -0.1,0.3 -0.1,0.2 0.3,0.1 0.6,-0.1 1,-0.3 l -0.1,0.1 c 0.2,0.1 0.4,0.1 0.6,0.1 0.1,-0.1 0.2,-0.1 0.1,-0.3 0.6,0.8 1.1,-0.4 1.5,0.2 -0.1,0 -0.1,0.1 -0.1,0.1 l 0.4,-0.1 c 0,-0.2 -0.1,-0.1 -0.1,-0.3 0.1,-0.1 0.2,-0.2 0.3,-0.2 -0.2,0.2 0,0.4 0.1,0.5 0,-0.1 0,-0.1 0,-0.2 0.2,0.4 0,-0.5 0.3,-0.2 l 0,0.1 c 0.1,-0.1 0.2,-0.2 0.3,-0.2 0,0.3 -0.1,0.1 -0.1,0.3 0.2,0 0.3,-0.5 0.5,-0.2 -0.1,0.1 -0.2,0.1 -0.2,0.1 0.2,0.3 0.2,0.2 0.3,0.3 l 0,0 0.3,0.1 -0.1,-0.1 c 0.2,-0.7 0.4,-0.1 0.7,-0.6 -0.3,0.4 0,0.3 -0.1,0.6 0.1,0.1 0.2,0.2 0.2,0.3 0.1,-0.2 0.2,0.2 0.4,-0.2 0,0.1 0.1,0 0.1,0.3 0.2,-0.1 0,-0.2 0,-0.3 0.3,-0.3 0.6,0.4 1,-0.1 0.3,-0.2 0.4,-0.5 0.7,-0.7 0.1,0.2 -0.1,0.4 -0.1,0.4 0.2,0.1 0.3,0.1 0.5,0 0,0.1 0,0.2 0,0.3 0.1,0 0.1,-0.4 0.3,-0.2 0,0.1 -0.1,0.3 -0.1,0.4 0.2,-0.1 0.3,-0.3 0.5,-0.4 0,0.2 -0.1,0.3 -0.1,0.4 0.2,-0.1 0.5,-0.2 0.5,-0.4 l -0.1,-0.1 c 0.1,0 0,0.2 0,0.3 -0.1,0.2 -0.2,-0.1 -0.2,-0.2 l 0.1,-0.1 c -0.1,-0.6 -0.4,0.1 -0.7,0.1 l 0.1,-0.4 -0.2,0.3 c 0,-0.1 -0.1,-0.3 0,-0.4 -0.2,-0.2 -0.1,0.1 -0.3,-0.1 0,0 0,-0.1 0,-0.1 l -0.2,0.1 c 0,-0.1 0,-0.3 0.1,-0.2 -0.3,-0.2 -0.5,0.3 -0.6,0 l 0,0 c -0.4,0.1 0,0.3 -0.3,0.7 l -0.2,-0.8 0,0.3 c 0,0 -0.1,0 -0.1,-0.2 -0.1,0.2 0,0.1 -0.1,0.3 -0.2,-0.3 -0.5,0.1 -0.6,-0.4 -0.1,0.2 0.2,0.2 0,0.3 -0.1,-0.5 -0.2,0.1 -0.4,-0.2 0.1,-0.3 0.2,-0.1 0,-0.4 -0.1,0.5 -0.3,-0.1 -0.5,0 0,0.4 -0.3,0.2 -0.6,0.3 0,-0.1 -0.5,-0.2 -0.7,-0.3 l 0,-0.1 c 0,0.4 -0.3,0.3 -0.5,0.4 0,-0.2 0,-0.3 0.1,-0.4 l -0.2,0 c 0,0.1 -0.1,0.2 -0.2,0.2 l 0,-0.3 c -0.2,0 -0.4,0.3 -0.7,0.1 0,0.3 0.2,0.7 -0.1,0.9 0,-0.1 0,-0.4 0.1,-0.4 0,0 -0.1,0.1 -0.1,0.1 l 0.1,-0.2 c -0.1,-0.1 -0.1,0.2 -0.2,0.2 0,-0.2 -0.1,-0.1 -0.1,-0.3 0,0 0.1,0.1 0.1,0 -0.1,0 -0.3,-0.2 -0.3,-0.3 0,0.1 0,0.3 -0.1,0.3 -0.2,0 -0.1,-0.2 -0.2,-0.3 -0.1,0.1 -0.2,0 -0.2,0.3 -0.1,0 -0.1,-0.1 -0.1,-0.2 -0.1,0.1 -0.5,0 -0.4,0.4 l 0,0 c 0,0 0,0 0,0 0,0 0,0 0,0 l 0,0 c -0.4,0.3 -0.8,-0.2 -1.1,0 l 0,-0.1 c -0.2,0.1 -0.5,0.1 -0.6,0.3 -0.1,0 -0.2,-0.2 -0.1,-0.3 -0.2,0.1 -0.2,0.2 -0.4,0 0.2,-0.2 -0.1,-0.2 0.2,-0.1 -0.2,-0.1 -0.3,-0.2 -0.5,0 0.1,-0.3 -0.2,-0.3 -0.3,-0.2 l 0.2,0.2 c -0.1,0 -0.2,0 -0.3,0 l 0.1,-0.3 c -0.4,-0.4 -0.8,0.7 -1.1,0 -0.1,0.2 0.2,0.2 0.1,0.4 -0.2,0 -0.4,-0.5 -0.5,-0.5 -0.3,-0.2 -0.3,0.5 -0.6,0.4 0,0.1 0.1,0.4 -0.1,0.5 -0.2,0 -0.3,-0.5 -0.1,-0.6 0,0 0.1,0 0.1,0.1 0.1,0 0.2,-0.1 0.1,-0.2 l 0,0.1 c -0.1,-0.1 -0.4,-0.1 -0.3,-0.3 -0.2,0.1 -0.1,0.2 0,0.3 -0.3,-0.2 -0.4,0 -0.7,-0.1 0,0.1 0.1,0.2 0,0.2 -0.4,-0.1 -0.2,0.2 -0.4,0.3 -0.2,-0.2 0.1,-0.4 -0.2,-0.3 -0.2,-0.1 0,-0.3 0,-0.4 -0.2,0.2 -0.5,-0.2 -0.6,-0.2 l 0.1,-0.1 c -0.1,0.1 -0.1,0.1 -0.2,0.1 l 0.1,0.2 c -0.1,0 -0.1,0 -0.1,-0.1 -0.1,0.2 0.1,0.4 -0.1,0.6 -0.1,-0.1 -0.3,0.1 -0.3,-0.2 0.3,0.1 0,-0.3 0.2,-0.4 -0.1,0 -0.1,0 -0.2,0 0,0 0,-0.1 0,-0.1 -0.3,-0.3 -0.1,0.4 -0.5,0.3 0,-0.2 -0.1,-0.3 -0.1,-0.3 0.1,0 0.1,0.3 -0.1,0.4 -0.2,-0.1 -0.2,0.1 -0.3,0.1 l 0.1,0.1 c 0,0.2 -0.1,0.2 -0.3,0.2 0,-0.1 0.1,-0.1 0.1,-0.2 -0.2,0.3 -0.4,-0.3 -0.6,-0.1 -0.1,-0.1 0,-0.3 -0.1,-0.4 -0.2,0.2 -0.3,-0.2 -0.5,-0.1 0.1,0.2 0.1,0.2 -0.1,0.4 l 0.4,-0.2 -0.3,0.3 c 0.1,0 0.3,-0.1 0.3,-0.1 -0.1,0.2 -0.1,0.1 -0.1,0.3 -0.2,-0.4 -0.3,0.2 -0.6,0 l 0,-0.6 c -0.3,-0.3 -0.5,0.3 -0.9,0.2 l 0.1,0.1 c -0.1,0.2 -0.2,0 -0.4,0.1 0,-0.2 -0.1,-0.3 -0.1,-0.4 0,0.1 -0.3,0 -0.3,0.4 l -0.2,-0.3 c -0.3,-0.1 -0.4,0.6 -0.7,0.5 0.1,-0.2 0,-0.4 0.2,-0.5 -0.1,0 -0.2,0 -0.2,0.1 -0.1,-0.1 -0.3,0.3 -0.4,0.1 0,0.1 -0.1,0.3 -0.2,0.3 0,0 0,-0.1 0,-0.1 0,0.1 -0.2,0.1 -0.1,0.4 -0.3,-0.6 -0.9,0 -1.2,-0.5 -0.2,0.1 -0.5,0.1 -0.7,0.1 0,-0.1 0,-0.1 0,-0.1 -0.3,-0.2 -0.2,0.6 -0.5,0.4 -0.2,-0.3 0.2,-0.2 0.1,-0.3 0,-0.6 -0.4,0.1 -0.6,-0.3 l 0.1,0 c -0.2,-0.2 -0.4,0.2 -0.7,0.2 0,0 0,-0.1 0,-0.1 -0.2,0.3 -0.5,0.4 -0.8,0.5 0.1,-0.3 0.1,-0.1 0.1,-0.4 -0.1,0 0,0.4 -0.2,0.5 -0.1,-0.1 -0.2,-0.3 -0.3,-0.5 l 0.2,0 c -0.1,-0.4 -0.3,0 -0.4,0 l 0,-0.2 c -0.3,0.1 -0.3,0.4 -0.7,0.4 l 0,0.1 c -0.2,0.4 -0.2,-0.2 -0.4,0.1 l -0.1,-0.4 c -0.1,0.1 -0.5,0.4 -0.7,0.5 0.1,-0.3 0.4,-0.4 0.6,-0.6 -0.1,0 -0.4,0 -0.5,0.2 0.1,0 0.1,-0.1 0.2,-0.1 -0.2,0.3 -0.4,0.5 -0.6,0.5 0,-0.8 -0.7,-0.2 -0.9,-0.8 -0.5,0.3 -0.9,-0.1 -1.4,-0.1 0.2,0.6 -0.2,0 -0.1,0.6 -0.1,0 -0.2,0 -0.2,0 l -0.4,-0.4 c -0.1,-0.2 0.1,-0.1 0.1,-0.3 -0.3,0 -0.1,-0.3 -0.3,-0.4 0,0.2 -0.1,0.3 -0.2,0.2 l 0.2,0.3 c -0.4,0.3 -0.3,-0.5 -0.7,-0.2 l 0.1,-0.2 c -0.2,0.1 -0.7,0 -0.9,0.5 0,-0.1 -0.1,-0.2 0,-0.3 -0.5,-0.1 -1,0.5 -1.4,0.2 l 0,-0.1 c -0.1,0 -0.2,0.3 -0.3,0.1 0,-0.1 0,-0.1 0,-0.2 0,0.1 -0.2,0.3 -0.3,0.2 l 0.1,-0.2 c -0.5,-0.2 -0.7,0.4 -1.1,0.5 0,-0.4 -0.4,-0.6 -0.5,-0.7 l 0,-0.1 c -0.5,-0.1 -0.9,0.4 -1.4,0.5 -0.3,-0.5 -1,-0.2 -1.5,-0.5 0.1,0.1 0,0.3 -0.1,0.4 -0.1,-0.1 -0.3,0.3 -0.3,-0.1 l 0,0 c -0.1,-0.4 -0.3,-0.3 -0.5,-0.3 l 0,0.5 c -0.5,-0.8 -1.3,0.3 -1.5,-0.4 -0.1,0.1 -0.3,0.1 -0.4,0.3 l 0,-0.3 c -0.3,-0.1 -0.5,-0.1 -0.9,0 l 0.1,-0.2 c -0.2,0 -0.3,0.8 -0.5,0.8 l -0.1,-0.4 c -0.4,0 -0.8,-0.4 -1.2,0 0,-0.1 0,-0.2 0.1,-0.2 -0.2,0 -0.7,-0.3 -0.6,0.3 0,-0.4 -0.4,0 -0.6,0.1 l 0,-0.3 c -0.2,0.4 -0.2,0.5 -0.4,0.6 -0.1,0 -0.1,-0.2 0,-0.2 -0.2,-0.1 -0.2,0.3 -0.4,0.1 l 0.1,-0.2 c -0.2,0 -0.2,0.1 -0.3,0.3 -0.1,0.1 -0.4,-0.1 -0.4,-0.3 0,0.2 -0.1,0.4 -0.3,0.3 0,-0.1 0,-0.2 0,-0.2 -0.3,-0.2 -0.5,0.3 -0.7,0.1 0,-0.1 0,-0.1 0,-0.2 0.3,0 0.5,0 0.5,0 0,-0.3 -0.2,-0.3 0,-0.7 -0.2,0.2 -0.5,0.6 -0.7,0.5 0,0 0,0 0,-0.1 l 0,0 c 0,0 -0.1,0 -0.1,0 -0.1,0 -0.1,-0.1 -0.2,-0.1 0,-0.2 -0.2,-0.1 -0.4,-0.1 0,0.3 -0.1,0.2 0,0.5 0,0 0,0 0.1,0 0,0 0,0 0,0 0,0 0,0 0,0 0.1,0 0.2,0 0.3,0 -0.1,0.1 -0.2,0.3 -0.3,0.1 -0.1,0.2 -0.1,0.4 -0.2,0.5 -0.1,-0.4 -0.4,-0.6 -0.5,-0.8 -0.3,0.2 -0.8,0.1 -1,0.6 -0.1,0.1 -0.1,-0.2 -0.1,-0.2 0.1,-0.1 0.1,0 0.1,-0.1 -0.2,0.1 -0.6,0.1 -0.6,0.4 -0.2,-0.2 0.1,-0.3 -0.2,-0.3 l 0,-0.1 c -0.6,-0.6 -1,0.9 -1.7,0.2 0,0 0.1,0.1 0.1,0.1 -0.8,-0.3 -1.7,0.3 -2.5,-0.2 -0.2,-0.1 -0.3,0.1 -0.4,0.3 l 0,-0.3 -0.2,0.3 c -0.3,0.3 -0.6,-0.7 -1,-0.3 l 0.1,0.2 c -0.2,0 -0.5,0.1 -0.5,-0.1 0,0 0,0.2 -0.1,0.1 l 0,-0.2 -0.4,0.3 c -0.3,-0.1 0,-0.6 -0.4,-0.7 -0.2,0.1 -0.4,0.5 -0.4,0.6 0.1,0 0.2,0.1 0.2,0.3 l -0.1,0.1 c 0,0.5 -0.1,0.9 0.2,1.3 l 0.2,-0.3 0.1,0.2 -0.2,0 c 0.1,0.2 0.2,0 0.3,-0.1 0,0.1 0.1,0.2 0.1,0.2 l 0.2,-0.4 c 0,0.2 -0.1,0.4 0.1,0.5 0.1,-0.2 -0.1,-0.4 0.1,-0.5 0.1,0.2 0.1,0.4 0.2,0.2 0,0.1 0,0.2 -0.1,0.2 0.1,-0.1 0.3,-0.1 0.4,-0.3 0.1,0.3 0.4,-0.1 0.4,0.4 0,-0.1 0.2,-0.3 0.3,-0.4 -0.2,0.5 0.4,0 0.4,0.6 0.2,-0.5 0.6,-0.2 0.8,-0.5 0,0 0,0.1 -0.1,0.1 0.2,0 0.2,0.2 0.3,0.3 0,-0.4 0.3,-0.5 0.4,-0.7 0.2,0.4 -0.1,0.5 -0.1,0.8 0,-0.3 0.3,-0.3 0.3,-0.6 0.1,0.2 0.1,0.1 0.2,0.4 0,-0.5 0.1,-0.1 0.3,-0.4 0.2,0.2 0.1,0.5 0.3,0.3 1.2,0.3 1,0.5 1,0.5 z m 5.4,-0.9 c 0,0 0,0 0,0 0,0 -0.1,0 -0.1,0 0,0 0.1,0 0.1,0 z m 0.5,0 c -0.1,0 -0.1,0 -0.2,0 0,-0.1 0,-0.2 0,-0.2 0,0.1 0.1,0.1 0.2,0.2 z m -1,-1.9 c 0.1,0 0.1,0 0.1,0.1 0,0 -0.1,0 -0.1,0 0,0 0,0 0,0 0,-0.1 0,-0.1 0,-0.1 z"
                   id="path4340"
                   inkscape:connector-curvature="0"
                   style="fill:#202020" /><path
                   d="m 129.6,319 c 0,0 0,0 0,0 0,0.1 0,0.1 0,0 0,0.1 0,0 0,0 0,0 0,0 0,0 z"
                   id="path4342"
                   inkscape:connector-curvature="0"
                   style="fill:#202020" /><path
                   d="m 170.7,319.4 0,0 c 0,0 0.1,0.1 0,0 0.1,0.1 0.1,0.1 0,0 z"
                   id="path4344"
                   inkscape:connector-curvature="0"
                   style="fill:#202020" /><polygon
                   points="136.9,321.1 136.9,321.1 136.9,321.1 "
                   id="polygon4346"
                   style="fill:#202020" /><path
                   d="m 173.2,320.4 c 0.1,0 0.1,0.1 0,0 0.1,0.1 0.1,0 0,0 z"
                   id="path4348"
                   inkscape:connector-curvature="0"
                   style="fill:#202020" /><path
                   d="m 174.3,320.5 0.2,0.1 c -0.1,-0.1 -0.1,-0.1 -0.2,-0.1 z"
                   id="path4350"
                   inkscape:connector-curvature="0"
                   style="fill:#202020" /><path
                   d="m 175.2,320.6 c 0,0 0,-0.1 0,-0.1 0,0 0,0 0,0 l 0,0.1 z"
                   id="path4352"
                   inkscape:connector-curvature="0"
                   style="fill:#202020" /><path
                   d="m 162,320.9 c -0.1,0 -0.1,0 0,0 -0.2,0.1 -0.1,0.1 0,0 z"
                   id="path4354"
                   inkscape:connector-curvature="0"
                   style="fill:#202020" /><path
                   d="m 165.9,320.3 c 0,0.1 -0.1,0.1 -0.1,0.1 0,0 0.1,0 0.1,-0.1 z"
                   id="path4356"
                   inkscape:connector-curvature="0"
                   style="fill:#202020" /><path
                   d="m 157.6,321.3 c 0,0 0,0 0,0 0,0 -0.1,0 0,0 l 0,0 z"
                   id="path4358"
                   inkscape:connector-curvature="0"
                   style="fill:#202020" /><path
                   d="m 165.6,320.4 c 0.1,0.1 0.1,0 0.2,0 -0.1,0 -0.2,0 -0.2,0 z"
                   id="path4360"
                   inkscape:connector-curvature="0"
                   style="fill:#202020" /><path
                   d="m 178.8,320.7 0,0 c 0,0 0,0 0,0 l 0,0 z"
                   id="path4362"
                   inkscape:connector-curvature="0"
                   style="fill:#202020" /><path
                   d="m 178.8,320.7 0,0 c 0,0 0,0 0,0 z"
                   id="path4364"
                   inkscape:connector-curvature="0"
                   style="fill:#202020" /><path
                   d="m 178.9,320.6 0,0 c 0,0.1 0,0.1 0,0 z"
                   id="path4366"
                   inkscape:connector-curvature="0"
                   style="fill:#202020" /><path
                   d="m 177.7,320.6 0,0.1 c 0,0 0,0 0,-0.1 z"
                   id="path4368"
                   inkscape:connector-curvature="0"
                   style="fill:#202020" /><path
                   d="m 177.3,320.6 c 0.1,0 0.2,0.2 0.3,0.2 l 0,-0.1 c 0,0.2 -0.2,-0.2 -0.3,-0.1 z"
                   id="path4370"
                   inkscape:connector-curvature="0"
                   style="fill:#202020" /><path
                   d="m 175.9,319.4 0.3,0.1 c 0,-0.1 -0.1,-0.3 0,-0.3 -0.3,-0.3 0.1,0.2 -0.3,0.2 z"
                   id="path4372"
                   inkscape:connector-curvature="0"
                   style="fill:#202020" /><path
                   d="m 175.1,319.2 c 0.2,-0.1 0,-0.2 0,-0.2 -0.1,0.1 -0.2,0.1 0,0.2 z"
                   id="path4374"
                   inkscape:connector-curvature="0"
                   style="fill:#202020" /><path
                   d="m 168.8,319.2 0,-0.3 c -0.1,0.1 0,0.2 0,0.3 z"
                   id="path4376"
                   inkscape:connector-curvature="0"
                   style="fill:#202020" /><polygon
                   points="167.6,320.5 167.7,320.7 167.8,320.5 "
                   id="polygon4378"
                   style="fill:#202020" /><polygon
                   points="166.9,318.7 166.9,318.7 166.7,318.8 "
                   id="polygon4380"
                   style="fill:#202020" /><path
                   d="m 156.3,318.8 0,0.3 c 0.2,0 0.2,-0.4 0,-0.3 z"
                   id="path4382"
                   inkscape:connector-curvature="0"
                   style="fill:#202020" /><path
                   d="m 151.8,319.1 c 0,-0.2 -0.2,-0.3 -0.3,-0.1 0.1,0 0.2,0.2 0.3,0.1 z"
                   id="path4384"
                   inkscape:connector-curvature="0"
                   style="fill:#202020" /><polygon
                   points="138.2,318.6 138.2,318.5 138.1,318.6 "
                   id="polygon4386"
                   style="fill:#202020" /></g></g></g></g></g><g
         id="g4388"><g
           id="g4390"><g
             id="g4392"><g
               id="g4394"><g
                 id="g4396"><path
                   d="m 179.4,330.7 c 0,-0.1 0,-0.3 -0.1,-0.2 l -0.1,0.3 0.2,-0.1 z"
                   id="path4398"
                   inkscape:connector-curvature="0"
                   style="fill:#202020" /><path
                   d="m 178.9,330.1 c -0.1,0.2 -0.2,0.4 -0.2,0.7 0.1,-0.3 0.1,-0.2 0.2,-0.6 0.1,0 0.2,0.1 0.1,0.2 0,-0.1 0.1,0.1 0.2,-0.1 -0.1,-0.3 -0.3,-0.3 -0.4,-0.1 0,0 0.1,-0.1 0.1,-0.1 z"
                   id="path4400"
                   inkscape:connector-curvature="0"
                   style="fill:#202020" /><path
                   d="m 170.3,329.5 0,0 c 0.1,0.1 0.1,0 0,0 z"
                   id="path4402"
                   inkscape:connector-curvature="0"
                   style="fill:#202020" /><path
                   d="m 165.1,329.4 c 0,-0.1 0,-0.1 0,0 0,-0.1 0,-0.1 0,0 z"
                   id="path4404"
                   inkscape:connector-curvature="0"
                   style="fill:#202020" /><path
                   d="m 164.2,329 c 0,0 0,0 0,0 0,0 0,0 0,0 z"
                   id="path4406"
                   inkscape:connector-curvature="0"
                   style="fill:#202020" /><path
                   d="m 170.3,329.5 -0.1,-0.1 c 0,0.1 0.1,0.1 0.1,0.1 z"
                   id="path4408"
                   inkscape:connector-curvature="0"
                   style="fill:#202020" /><path
                   d="m 177.7,330.9 c 0,-0.1 0,-0.1 0,0 0,-0.1 0,-0.1 0,0 0,-0.1 0,-0.1 0,0 z"
                   id="path4410"
                   inkscape:connector-curvature="0"
                   style="fill:#202020" /><path
                   d="m 172.7,329.3 0,0 c 0.1,0 0.1,-0.1 0.1,-0.1 l -0.1,0.1 z"
                   id="path4412"
                   inkscape:connector-curvature="0"
                   style="fill:#202020" /><path
                   d="m 174.5,329.2 c 0,0 -0.1,0.3 -0.1,0.4 0,-0.1 0.1,-0.2 0.1,-0.2 0,0 0,-0.1 0,-0.2 z"
                   id="path4414"
                   inkscape:connector-curvature="0"
                   style="fill:#202020" /><path
                   d="m 177.3,329.7 0,0 c 0,0 0,0 0,0 z"
                   id="path4416"
                   inkscape:connector-curvature="0"
                   style="fill:#202020" /><path
                   d="m 171.4,329.2 c 0,0 0,-0.1 0,-0.1 0,0 0,0.1 0,0.1 z"
                   id="path4418"
                   inkscape:connector-curvature="0"
                   style="fill:#202020" /><path
                   d="m 121.5,331.3 c 0,0 0,0 0,0 0,0 0,0 0,0 z"
                   id="path4420"
                   inkscape:connector-curvature="0"
                   style="fill:#202020" /><path
                   d="m 119.4,329.9 0,0 c 0,-0.1 0,-0.1 0,-0.2 l 0,0.2 z"
                   id="path4422"
                   inkscape:connector-curvature="0"
                   style="fill:#202020" /><path
                   d="m 162.5,328.6 c 0,0 0,0 0,0 0.1,0 0.1,0 0,0 z"
                   id="path4424"
                   inkscape:connector-curvature="0"
                   style="fill:#202020" /><path
                   d="m 147.4,328.8 c 0.2,0.3 -0.3,0.3 0,0.6 0,-0.1 0.2,-0.4 0,-0.6 z"
                   id="path4426"
                   inkscape:connector-curvature="0"
                   style="fill:#202020" /><path
                   d="m 177.6,330.8 c 0,0 0,0 0,0 0,0 0,0 0,0 z"
                   id="path4428"
                   inkscape:connector-curvature="0"
                   style="fill:#202020" /><path
                   d="m 147.4,329.4 c 0,0 0,0 0,0 l 0,0 c 0,0.1 0,0 0,0 z"
                   id="path4430"
                   inkscape:connector-curvature="0"
                   style="fill:#202020" /><path
                   d="m 158.7,328.8 c 0,0 0,0.1 0,0.1 0.1,0 0.1,0 0,-0.1 z"
                   id="path4432"
                   inkscape:connector-curvature="0"
                   style="fill:#202020" /><path
                   d="m 161.6,329.2 0,0 c -0.1,0 -0.1,0 0,0 z"
                   id="path4434"
                   inkscape:connector-curvature="0"
                   style="fill:#202020" /><path
                   d="m 157.3,329.2 c 0,0 -0.1,-0.1 -0.1,0 0,0 0,0 0.1,0 -0.1,0 -0.1,0 0,0 z"
                   id="path4436"
                   inkscape:connector-curvature="0"
                   style="fill:#202020" /><path
                   d="m 155.7,329.2 c 0,0 0.1,0 0,0 0.1,0 0.1,0 0,0 l 0,0 z"
                   id="path4438"
                   inkscape:connector-curvature="0"
                   style="fill:#202020" /><path
                   d="m 126.2,331.2 c 0,-0.1 -0.1,-0.2 -0.1,-0.3 0,0.2 -0.2,0.3 0.1,0.3 z"
                   id="path4440"
                   inkscape:connector-curvature="0"
                   style="fill:#202020" /><path
                   d="m 177.7,330.7 c 0,0.1 0,0.1 0,0.1 0,0 0,0 0.1,0 -0.1,0 -0.1,-0.1 -0.1,-0.1 z"
                   id="path4442"
                   inkscape:connector-curvature="0"
                   style="fill:#202020" /><path
                   d="m 157.2,331.4 -0.2,0 c 0,0 0.1,0 0.2,0 z"
                   id="path4444"
                   inkscape:connector-curvature="0"
                   style="fill:#202020" /><path
                   d="m 137.1,331.1 0,0 c 0,0.1 0,0.1 0,0 z"
                   id="path4446"
                   inkscape:connector-curvature="0"
                   style="fill:#202020" /><path
                   d="m 156.2,331.4 c 0,-0.1 -0.1,-0.2 -0.1,-0.2 0,0 0,0 0,0.1 l 0.1,0.1 z"
                   id="path4448"
                   inkscape:connector-curvature="0"
                   style="fill:#202020" /><path
                   d="m 126.1,330.9 c 0,0 0,0 0,0 0,0 0,0 0,0 z"
                   id="path4450"
                   inkscape:connector-curvature="0"
                   style="fill:#202020" /><path
                   d="m 124.5,331.6 c 0.2,0 0.1,-0.4 0.2,-0.6 0.3,-0.1 0.1,0.3 0.2,0.5 0.2,-0.1 0.3,-0.4 0.4,-0.4 0,0.1 0,0.1 0,0.2 0.2,-0.3 0.5,0 0.8,-0.4 0,0 0,0.1 0,0.1 0,-0.2 0,-0.4 0,-0.5 0.1,0 0.2,-0.2 0.2,0 -0.1,0 -0.1,0.1 -0.1,0.2 l 0.1,-0.1 c 0.1,0.3 -0.1,0.1 -0.1,0.4 0.2,-0.1 0.5,-0.4 0.6,-0.3 0,0.3 -0.4,0.1 -0.2,0.4 l -0.3,-0.1 c 0.2,0.5 -0.2,0 0,0.5 0.3,0.1 0.4,-0.2 0.7,-0.1 0.1,-0.2 0,-0.3 0,-0.5 0.5,-0.3 0.4,0.9 0.7,0.4 0.1,-0.2 0.1,-0.7 0.4,-0.4 l -0.1,0.4 c 0.3,0 0.2,-0.6 0.5,-0.3 -0.1,0.2 -0.3,0.1 -0.2,0.2 0.2,0.3 0.2,-0.2 0.3,-0.2 l 0,0.3 c 0.3,-0.1 0.7,-0.3 1.1,-0.4 0,0.1 -0.1,0.2 0,0.3 0.5,-0.2 1,0 1.5,0.2 l 0.2,-0.3 c 0,0 0.1,0.1 0,0.2 0.2,0.1 0,-0.2 0.1,-0.3 0.1,0 0.1,0.2 0.1,0.3 0.3,-0.2 0.9,-0.5 1.2,-0.2 l -0.1,0.1 c 0.3,0.1 0.3,-0.6 0.5,-0.3 l 0,0.1 c 0.6,0.1 1.2,-0.1 1.6,0.3 0.1,-0.4 0.6,0.2 0.6,-0.4 0.3,0.3 0.2,0.4 0.7,0.6 0.1,0 0.2,-0.4 0.3,-0.4 l 0,0.3 0.2,-0.3 0.1,0.4 0.1,-0.1 c -0.1,0 -0.1,-0.1 -0.1,-0.2 0.2,-0.1 0.5,0.2 0.5,0.4 l 0.5,-0.3 c 0,0.1 -0.1,0.2 -0.2,0.2 0.3,-0.3 0.1,0.3 0.3,0 0,-0.1 0,-0.2 0,-0.2 0.1,0.2 0.4,0.2 0.6,0.1 l 0,0.2 c 0.4,0.1 0.8,-0.1 1.2,-0.1 -0.2,-0.1 -0.1,-0.5 0,-0.5 l 0.1,0.3 c 0.1,-0.2 -0.1,-0.1 0,-0.4 0.2,0 0.1,0.4 0,0.5 l 0.2,-0.1 c 0,0.1 0,0.1 0,0.3 0.1,-0.2 0.3,0.3 0.5,0 l 0,0.1 c 0.4,0 0.6,-0.1 1,-0.1 0,-0.3 0.1,-0.2 0.2,-0.4 0.3,0.1 0.5,0.3 0.9,0.3 0.2,-0.1 0.1,-0.2 0.2,-0.4 0,0.3 0.3,0.2 0.2,0.4 0.4,0 0.5,-0.1 0.9,-0.3 -0.1,-0.1 -0.1,-0.2 -0.1,-0.2 0.1,0 0.2,0.1 0.2,0.2 l 0,0 c 0.5,-0.4 1.2,0.7 1.6,0.2 l 0,0 0.4,-0.3 c 0.2,0 -0.1,0.2 0,0.4 0.5,-0.4 0.7,0.1 1.1,-0.2 0.3,0.8 1.1,-0.1 1.5,0.4 l 0,-0.2 c 0.1,-0.2 0.1,0.1 0.2,0.1 0,-0.1 -0.1,-0.2 0,-0.3 0.9,-0.2 1.8,0.3 2.7,0.4 0.3,0 0.2,-0.9 0.6,-0.5 l -0.1,0.3 c 0.7,-0.4 1.4,0 2,-0.3 0,0.1 0,0.2 -0.1,0.2 0.1,0.2 0.5,0 0.5,-0.2 0.1,0 0,0.2 0.1,0.3 0.1,0.1 0.3,-0.3 0.4,-0.1 0,0 0,0.1 -0.1,0.1 0.1,-0.1 0.4,0 0.3,-0.2 0.2,0.1 0.5,-0.1 0.7,0 0.1,-0.3 0.4,0.1 0.5,-0.3 0,0.5 0.4,0.4 0.6,0.2 -0.1,0.1 0.1,0.1 0.1,0.3 0.2,0 0.3,-0.1 0.3,-0.3 0.3,0.5 0.7,-0.4 0.8,0.3 0.5,-0.2 1,-0.4 1.5,-0.5 0,0.5 -0.5,0 -0.5,0.5 0.5,-0.2 0.7,-0.6 1.2,-0.5 0.1,0.1 -0.1,0.2 -0.1,0.3 0.5,-0.2 0.9,0 1.3,-0.2 0,0 0,0.1 -0.1,0.1 0.1,0 0.2,0.1 0.2,-0.1 l -0.1,0.1 c -0.1,-0.3 0.3,-0.6 0.3,-0.8 -0.1,0.6 0.4,0.1 0.2,0.9 0.1,0 0.1,-0.1 0.1,-0.3 0.1,0 0.1,0.1 0,0.3 0.3,-0.1 0.2,-0.3 0.4,-0.3 0,0.1 -0.1,0.1 -0.1,0.3 0.1,-0.2 0.3,-0.4 0.5,-0.3 0,0.1 0,0.1 -0.1,0.1 0.4,0 0.6,-0.5 1,-0.3 -0.1,0.4 0.1,0.1 0.2,0.5 l 0.2,-0.1 -0.1,-0.2 c 0.2,0 0.4,-0.3 0.5,-0.1 l -0.1,0.2 0.4,-0.1 -0.2,-0.1 c 0.2,-0.2 0,-0.5 0.2,-0.4 -0.1,0 0.2,0 0.3,0.2 0,0 0,0 0,0 0.1,-0.1 0.2,-0.2 0.3,-0.2 0,0.1 0,0.4 0,0.5 0.1,-0.3 0.5,-0.1 0.6,-0.4 0,0.1 0,0.3 0,0.3 l 0.1,-0.3 c 0.1,0.1 0.1,0.1 0.1,0.3 0.3,0 -0.1,-0.5 0.2,-0.3 0,0 0,0.1 -0.1,0.1 0.3,0.1 0.6,-0.2 0.9,0 0.1,0.4 -0.3,0.1 -0.2,0.4 0.4,-0.1 0.9,-0.5 1.3,-0.4 l -0.1,0 c 0.1,-0.5 0.3,0.3 0.5,0 -0.1,0 -0.1,0.3 -0.1,0.2 0.3,0.1 0.6,-0.1 1,-0.3 l -0.1,0.1 c 0.2,0.1 0.4,0.1 0.6,0.1 0.1,-0.1 0.2,-0.1 0.1,-0.3 0.6,0.8 1.1,-0.4 1.5,0.2 -0.1,0 -0.1,0.1 -0.1,0.1 l 0.4,-0.1 c 0,-0.2 -0.1,-0.1 -0.1,-0.3 0.1,-0.1 0.2,-0.2 0.3,-0.2 -0.2,0.2 0,0.4 0.1,0.5 0,-0.1 0,-0.1 0,-0.2 0.2,0.4 0,-0.5 0.3,-0.2 l 0,0.1 c 0.1,-0.1 0.2,-0.2 0.3,-0.2 0,0.3 -0.1,0.1 -0.1,0.3 0.2,0 0.3,-0.5 0.5,-0.2 -0.1,0.1 -0.2,0.1 -0.2,0.1 0.2,0.3 0.2,0.2 0.3,0.3 l 0,0 0.3,0.1 -0.1,-0.1 c 0.2,-0.7 0.4,-0.1 0.7,-0.6 -0.3,0.4 0,0.3 -0.1,0.6 0.1,0.1 0.2,0.2 0.2,0.3 0.1,-0.2 0.2,0.2 0.4,-0.2 0,0.1 0.1,0 0.1,0.3 0.2,-0.1 0,-0.2 0,-0.3 0.3,-0.3 0.6,0.4 1,-0.1 0.3,-0.2 0.4,-0.5 0.7,-0.7 0.1,0.2 -0.1,0.4 -0.1,0.4 0.2,0.1 0.3,0.1 0.5,0 0,0.1 0,0.2 0,0.3 0.1,0 0.1,-0.4 0.3,-0.2 0,0.1 -0.1,0.3 -0.1,0.4 0.2,-0.1 0.3,-0.3 0.5,-0.4 0,0.2 -0.1,0.3 -0.1,0.4 0.2,-0.1 0.5,-0.2 0.5,-0.4 l -0.1,-0.1 c 0.1,0 0,0.2 0,0.3 -0.1,0.2 -0.2,-0.1 -0.2,-0.2 l 0.1,-0.1 c -0.1,-0.6 -0.4,0.1 -0.7,0.1 l 0.1,-0.4 -0.2,0.3 c 0,-0.1 -0.1,-0.3 0,-0.4 -0.2,-0.2 -0.1,0.1 -0.3,-0.1 0,0 0,-0.1 0,-0.1 l -0.2,0.1 c 0,-0.1 0,-0.3 0.1,-0.2 -0.3,-0.2 -0.5,0.3 -0.6,0 l 0,0 c -0.4,0.1 0,0.3 -0.3,0.7 l -0.2,-0.8 0,0.3 c 0,0 -0.1,0 -0.1,-0.2 -0.1,0.2 0,0.1 -0.1,0.3 -0.2,-0.3 -0.5,0.1 -0.6,-0.4 -0.1,0.2 0.2,0.2 0,0.3 -0.1,-0.5 -0.2,0.1 -0.4,-0.2 0.1,-0.3 0.2,-0.1 0,-0.4 -0.1,0.5 -0.3,-0.1 -0.5,0 0,0.4 -0.3,0.2 -0.6,0.3 0,-0.1 -0.5,-0.2 -0.7,-0.3 l 0,-0.1 c 0,0.4 -0.3,0.3 -0.5,0.4 0,-0.2 0,-0.3 0.1,-0.4 l -0.2,0 c 0,0.1 -0.1,0.2 -0.2,0.2 l 0,-0.3 c -0.2,0 -0.4,0.3 -0.7,0.1 0,0.3 0.2,0.7 -0.1,0.9 0,-0.1 0,-0.4 0.1,-0.4 0,0 -0.1,0.1 -0.1,0.1 l 0.1,-0.2 c -0.1,-0.1 -0.1,0.2 -0.2,0.2 0,-0.2 -0.1,-0.1 -0.1,-0.3 0,0 0.1,0.1 0.1,0 -0.1,0 -0.3,-0.2 -0.3,-0.3 0,0.1 0,0.3 -0.1,0.3 -0.2,0 -0.1,-0.2 -0.2,-0.3 -0.1,0.1 -0.2,0 -0.2,0.3 -0.1,0 -0.1,-0.1 -0.1,-0.2 -0.1,0.1 -0.5,0 -0.4,0.4 l 0,0 c 0,0 0,0 0,0 0,0 0,0 0,0 l 0,0 c -0.4,0.3 -0.8,-0.2 -1.1,0 l 0,-0.1 c -0.2,0.1 -0.5,0.1 -0.6,0.3 -0.1,0 -0.2,-0.2 -0.1,-0.3 -0.2,0.1 -0.2,0.2 -0.4,0 0.2,-0.2 -0.1,-0.2 0.2,-0.1 -0.2,-0.1 -0.3,-0.2 -0.5,0 0.1,-0.3 -0.2,-0.3 -0.3,-0.2 l 0.2,0.2 c -0.1,0 -0.2,0 -0.3,0 l 0.1,-0.3 c -0.4,-0.4 -0.8,0.7 -1.1,0 -0.1,0.2 0.2,0.2 0.1,0.4 -0.2,0 -0.4,-0.5 -0.5,-0.5 -0.3,-0.2 -0.3,0.5 -0.6,0.4 0,0.1 0.1,0.4 -0.1,0.5 -0.2,0 -0.3,-0.5 -0.1,-0.6 0,0 0.1,0 0.1,0.1 0.1,0 0.2,-0.1 0.1,-0.2 l 0,0.1 c -0.1,-0.1 -0.4,-0.1 -0.3,-0.3 -0.2,0.1 -0.1,0.2 0,0.3 -0.3,-0.2 -0.4,0 -0.7,-0.1 0,0.1 0.1,0.2 0,0.2 -0.4,-0.1 -0.2,0.2 -0.4,0.3 -0.2,-0.2 0.1,-0.4 -0.2,-0.3 -0.2,-0.1 0,-0.3 0,-0.4 -0.2,0.2 -0.5,-0.2 -0.6,-0.2 l 0.1,-0.1 c -0.1,0.1 -0.1,0.1 -0.2,0.1 l 0.1,0.2 c -0.1,0 -0.1,0 -0.1,-0.1 -0.1,0.2 0.1,0.4 -0.1,0.6 -0.1,-0.1 -0.3,0.1 -0.3,-0.2 0.3,0.1 0,-0.3 0.2,-0.4 -0.1,0 -0.1,0 -0.2,0 0,0 0,-0.1 0,-0.1 -0.3,-0.3 -0.1,0.4 -0.5,0.3 0,-0.2 -0.1,-0.3 -0.1,-0.3 0.1,0 0.1,0.3 -0.1,0.4 -0.2,-0.1 -0.2,0.1 -0.3,0.1 l 0.1,0.1 c 0,0.2 -0.1,0.2 -0.3,0.2 0,-0.1 0.1,-0.1 0.1,-0.2 -0.2,0.3 -0.4,-0.3 -0.6,-0.1 -0.1,-0.1 0,-0.3 -0.1,-0.4 -0.2,0.2 -0.3,-0.2 -0.5,-0.1 0.1,0.2 0.1,0.2 -0.1,0.4 l 0.4,-0.2 -0.3,0.3 c 0.1,0 0.3,-0.1 0.3,-0.1 -0.1,0.2 -0.1,0.1 -0.1,0.3 -0.2,-0.4 -0.3,0.2 -0.6,0 l 0,-0.6 c -0.3,-0.3 -0.5,0.3 -0.9,0.2 l 0.1,0.1 c -0.1,0.2 -0.2,0 -0.4,0.1 0,-0.2 -0.1,-0.3 -0.1,-0.4 0,0.1 -0.3,0 -0.3,0.4 l -0.2,-0.3 c -0.3,-0.1 -0.4,0.6 -0.7,0.5 0.1,-0.2 0,-0.4 0.2,-0.5 -0.1,0 -0.2,0 -0.2,0.1 -0.1,-0.1 -0.3,0.3 -0.4,0.1 0,0.1 -0.1,0.3 -0.2,0.3 0,0 0,-0.1 0,-0.1 0,0.1 -0.2,0.1 -0.1,0.4 -0.3,-0.6 -0.9,0 -1.2,-0.5 -0.2,0.1 -0.5,0.1 -0.7,0.1 0,-0.1 0,-0.1 0,-0.1 -0.3,-0.2 -0.2,0.6 -0.5,0.4 -0.2,-0.3 0.2,-0.2 0.1,-0.3 0,-0.6 -0.4,0.1 -0.6,-0.3 l 0.1,0 c -0.2,-0.2 -0.4,0.2 -0.7,0.2 0,0 0,-0.1 0,-0.1 -0.2,0.3 -0.5,0.4 -0.8,0.5 0.1,-0.3 0.1,-0.1 0.1,-0.4 -0.1,0 0,0.4 -0.2,0.5 -0.1,-0.1 -0.2,-0.3 -0.3,-0.5 l 0.2,0 c -0.1,-0.4 -0.3,0 -0.4,0 l 0,-0.2 c -0.3,0.1 -0.3,0.4 -0.7,0.4 l 0,0.1 c -0.2,0.4 -0.2,-0.2 -0.4,0.1 l -0.1,-0.4 c -0.1,0.1 -0.5,0.4 -0.7,0.5 0.1,-0.3 0.4,-0.4 0.6,-0.6 -0.1,0 -0.4,0 -0.5,0.2 0.1,0 0.1,-0.1 0.2,-0.1 -0.2,0.3 -0.4,0.5 -0.6,0.5 0,-0.8 -0.7,-0.2 -0.9,-0.8 -0.5,0.3 -0.9,-0.1 -1.4,-0.1 0.2,0.6 -0.2,0 -0.1,0.6 -0.1,0 -0.2,0 -0.2,0 l -0.4,-0.4 c -0.1,-0.2 0.1,-0.1 0.1,-0.3 -0.3,0 -0.1,-0.3 -0.3,-0.4 0,0.2 -0.1,0.3 -0.2,0.2 l 0.2,0.3 c -0.4,0.3 -0.3,-0.5 -0.7,-0.2 l 0.1,-0.2 c -0.2,0.1 -0.7,0 -0.9,0.5 0,-0.1 -0.1,-0.2 0,-0.3 -0.5,-0.1 -1,0.5 -1.4,0.2 l 0,-0.1 c -0.1,0 -0.2,0.3 -0.3,0.1 0,-0.1 0,-0.1 0,-0.2 0,0.1 -0.2,0.3 -0.3,0.2 l 0.1,-0.2 c -0.5,-0.2 -0.7,0.4 -1.1,0.5 0,-0.4 -0.4,-0.6 -0.5,-0.7 l 0,-0.1 c -0.5,-0.1 -0.9,0.4 -1.4,0.5 -0.3,-0.5 -1,-0.2 -1.5,-0.5 0.1,0.1 0,0.3 -0.1,0.4 -0.1,-0.1 -0.3,0.3 -0.3,-0.1 l 0,0 c -0.1,-0.4 -0.3,-0.3 -0.5,-0.3 l 0,0.5 c -0.5,-0.8 -1.3,0.3 -1.5,-0.4 -0.1,0.1 -0.3,0.1 -0.4,0.3 l 0,-0.3 c -0.3,-0.1 -0.5,-0.1 -0.9,0 l 0.1,-0.2 c -0.2,0 -0.3,0.8 -0.5,0.8 l -0.1,-0.4 c -0.4,0 -0.8,-0.4 -1.2,0 0,-0.1 0,-0.2 0.1,-0.2 -0.2,0 -0.7,-0.3 -0.6,0.3 0,-0.4 -0.4,0 -0.6,0.1 l 0,-0.3 c -0.2,0.4 -0.2,0.5 -0.4,0.6 -0.1,0 -0.1,-0.2 0,-0.2 -0.2,-0.1 -0.2,0.3 -0.4,0.1 l 0.1,-0.2 c -0.2,0 -0.2,0.1 -0.3,0.3 -0.1,0.1 -0.4,-0.1 -0.4,-0.3 0,0.2 -0.1,0.4 -0.3,0.3 0,-0.1 0,-0.2 0,-0.2 -0.3,-0.2 -0.5,0.3 -0.7,0.1 0,-0.1 0,-0.1 0,-0.2 0.3,0 0.5,0 0.5,0 0,-0.3 -0.2,-0.3 0,-0.7 -0.2,0.2 -0.5,0.6 -0.7,0.5 0,0 0,0 0,-0.1 l 0,0 c 0,0 -0.1,0 -0.1,0 -0.1,0 -0.1,-0.1 -0.2,-0.1 0,-0.2 -0.2,-0.1 -0.4,-0.1 0,0.3 -0.1,0.2 0,0.5 0,0 0,0 0.1,0 0,0 0,0 0,0 0,0 0,0 0,0 0.1,0 0.2,0 0.3,0 -0.1,0.1 -0.2,0.3 -0.3,0.1 -0.1,0.2 -0.1,0.4 -0.2,0.5 -0.1,-0.4 -0.4,-0.6 -0.5,-0.8 -0.3,0.2 -0.8,0.1 -1,0.6 -0.1,0.1 -0.1,-0.2 -0.1,-0.2 0.1,-0.1 0.1,0 0.1,-0.1 -0.2,0.1 -0.6,0.1 -0.6,0.4 -0.2,-0.2 0.1,-0.3 -0.2,-0.3 l 0,-0.1 c -0.6,-0.6 -1,0.9 -1.7,0.2 0,0 0.1,0.1 0.1,0.1 -0.8,-0.3 -1.7,0.3 -2.5,-0.2 -0.2,-0.1 -0.3,0.1 -0.4,0.3 l 0,-0.3 -0.2,0.3 c -0.3,0.3 -0.6,-0.7 -1,-0.3 l 0.1,0.2 c -0.2,0 -0.5,0.1 -0.5,-0.1 0,0 0,0.2 -0.1,0.1 l 0,-0.2 -0.4,0.3 c -0.3,-0.1 0,-0.6 -0.4,-0.7 -0.2,0.1 -0.4,0.5 -0.4,0.6 0.1,0 0.2,0.1 0.2,0.3 l -0.1,0.1 c 0,0.5 -0.1,0.9 0.2,1.3 l 0.2,-0.3 0.1,0.2 -0.2,0 c 0.1,0.2 0.2,0 0.3,-0.1 0,0.1 0.1,0.2 0.1,0.2 l 0.2,-0.4 c 0,0.2 -0.1,0.4 0.1,0.5 0.1,-0.2 -0.1,-0.4 0.1,-0.5 0.1,0.2 0.1,0.4 0.2,0.2 0,0.1 0,0.2 -0.1,0.2 0.1,-0.1 0.3,-0.1 0.4,-0.3 0.1,0.3 0.4,-0.1 0.4,0.4 0,-0.1 0.2,-0.3 0.3,-0.4 -0.2,0.5 0.4,0 0.4,0.6 0.2,-0.5 0.6,-0.2 0.8,-0.5 0,0 0,0.1 -0.1,0.1 0.2,0 0.2,0.2 0.3,0.3 0,-0.4 0.3,-0.5 0.4,-0.7 0.2,0.4 -0.1,0.5 -0.1,0.8 0,-0.3 0.3,-0.3 0.3,-0.6 0.1,0.2 0.1,0.1 0.2,0.4 0,-0.5 0.1,-0.1 0.3,-0.4 0.2,0.2 0.1,0.5 0.3,0.3 1.2,0.3 1,0.5 1,0.5 z m 5.4,-0.9 c 0,0.1 0,0.1 0,0 0,0 -0.1,0 -0.1,0 0,0.1 0,0.1 0.1,0 z m 0.4,0 c -0.1,0 -0.1,0 -0.2,0 0,-0.1 0,-0.2 0,-0.2 0.1,0.1 0.2,0.2 0.2,0.2 z m -0.9,-1.9 c 0.1,0 0.1,0 0.1,0.1 0,0 -0.1,0 -0.1,0 0,0 0,0 0,0 0,0 0,-0.1 0,-0.1 z"
                   id="path4452"
                   inkscape:connector-curvature="0"
                   style="fill:#202020" /><path
                   d="m 129.3,329.2 c -0.1,0 -0.1,0 0,0 -0.1,0 0,0 0,0 0,0 0,0 0,0 0,0 0,0 0,0 z"
                   id="path4454"
                   inkscape:connector-curvature="0"
                   style="fill:#202020" /><path
                   d="m 170.4,329.6 0,0 c 0,0 0,0 0,0 0,0 0,0 0,0 z"
                   id="path4456"
                   inkscape:connector-curvature="0"
                   style="fill:#202020" /><polygon
                   points="136.6,331.3 136.6,331.2 136.6,331.3 "
                   id="polygon4458"
                   style="fill:#202020" /><path
                   d="m 172.9,330.5 c 0,0.1 0,0.1 0,0 0,0.1 0,0.1 0,0 z"
                   id="path4460"
                   inkscape:connector-curvature="0"
                   style="fill:#202020" /><path
                   d="m 174,330.6 0.2,0.1 c -0.1,0 -0.2,-0.1 -0.2,-0.1 z"
                   id="path4462"
                   inkscape:connector-curvature="0"
                   style="fill:#202020" /><path
                   d="m 174.8,330.7 c 0,0 0,-0.1 0,-0.1 0,0 0,0 0,0 l 0,0.1 z"
                   id="path4464"
                   inkscape:connector-curvature="0"
                   style="fill:#202020" /><path
                   d="m 161.6,331.1 c 0,0 0,0 0,0 -0.1,0 0,0 0,0 z"
                   id="path4466"
                   inkscape:connector-curvature="0"
                   style="fill:#202020" /><path
                   d="m 165.5,330.4 c 0,0.1 -0.1,0.1 -0.1,0.1 0.1,0.1 0.1,0.1 0.1,-0.1 z"
                   id="path4468"
                   inkscape:connector-curvature="0"
                   style="fill:#202020" /><path
                   d="m 157.2,331.4 c 0,0 0,0 0,0 0,0 0,0 0,0 l 0,0 z"
                   id="path4470"
                   inkscape:connector-curvature="0"
                   style="fill:#202020" /><path
                   d="m 165.2,330.6 c 0.1,0.1 0.1,0 0.2,0 0,-0.1 -0.1,-0.1 -0.2,0 z"
                   id="path4472"
                   inkscape:connector-curvature="0"
                   style="fill:#202020" /><path
                   d="m 178.4,330.9 0,0 c 0.1,0 0.1,0 0,0 l 0,0 z"
                   id="path4474"
                   inkscape:connector-curvature="0"
                   style="fill:#202020" /><path
                   d="m 178.5,330.8 0,0 c 0,0 0,0 0,0 z"
                   id="path4476"
                   inkscape:connector-curvature="0"
                   style="fill:#202020" /><path
                   d="m 178.6,330.7 0,0 c -0.1,0.1 0,0.1 0,0 z"
                   id="path4478"
                   inkscape:connector-curvature="0"
                   style="fill:#202020" /><path
                   d="m 177.3,330.7 0,0.1 c 0,0 0,0 0,-0.1 z"
                   id="path4480"
                   inkscape:connector-curvature="0"
                   style="fill:#202020" /><path
                   d="m 177,330.8 c 0.1,0 0.2,0.2 0.3,0.2 l 0,-0.1 c 0,0.1 -0.2,-0.3 -0.3,-0.1 z"
                   id="path4482"
                   inkscape:connector-curvature="0"
                   style="fill:#202020" /><path
                   d="m 175.6,329.5 0.3,0.1 c 0,-0.1 -0.1,-0.3 0,-0.3 -0.4,-0.3 0.1,0.3 -0.3,0.2 z"
                   id="path4484"
                   inkscape:connector-curvature="0"
                   style="fill:#202020" /><path
                   d="m 174.7,329.4 c 0.2,-0.1 0,-0.2 0,-0.2 -0.1,0 -0.1,0.1 0,0.2 z"
                   id="path4486"
                   inkscape:connector-curvature="0"
                   style="fill:#202020" /><path
                   d="m 168.5,329.4 0,-0.3 c -0.1,0 0,0.1 0,0.3 z"
                   id="path4488"
                   inkscape:connector-curvature="0"
                   style="fill:#202020" /><polygon
                   points="167.3,330.7 167.4,330.8 167.4,330.6 "
                   id="polygon4490"
                   style="fill:#202020" /><polygon
                   points="166.5,328.9 166.6,328.8 166.4,328.9 "
                   id="polygon4492"
                   style="fill:#202020" /><path
                   d="m 156,328.9 0,0.3 c 0.1,0 0.1,-0.3 0,-0.3 z"
                   id="path4494"
                   inkscape:connector-curvature="0"
                   style="fill:#202020" /><path
                   d="m 151.5,329.3 c 0,-0.2 -0.2,-0.3 -0.3,-0.1 0.1,0 0.2,0.1 0.3,0.1 z"
                   id="path4496"
                   inkscape:connector-curvature="0"
                   style="fill:#202020" /><polygon
                   points="137.8,328.8 137.9,328.7 137.7,328.7 "
                   id="polygon4498"
                   style="fill:#202020" /></g></g></g></g></g><g
         id="g4500"><g
           id="g4502"><g
             id="g4504"><g
               id="g4506"><g
                 id="g4508"><path
                   d="m 179.4,341.7 c 0,-0.1 0,-0.3 -0.1,-0.2 l -0.1,0.3 0.2,-0.1 z"
                   id="path4510"
                   inkscape:connector-curvature="0"
                   style="fill:#202020" /><path
                   d="m 178.9,341.1 c -0.1,0.2 -0.2,0.4 -0.2,0.7 0.1,-0.3 0.1,-0.2 0.2,-0.6 0.1,0 0.2,0.1 0.1,0.2 0,-0.1 0.1,0.1 0.2,-0.1 -0.1,-0.3 -0.3,-0.3 -0.4,-0.1 0,0 0.1,-0.1 0.1,-0.1 z"
                   id="path4512"
                   inkscape:connector-curvature="0"
                   style="fill:#202020" /><path
                   d="m 170.3,340.5 0,0 c 0.1,0.1 0.1,0 0,0 z"
                   id="path4514"
                   inkscape:connector-curvature="0"
                   style="fill:#202020" /><path
                   d="m 165.1,340.4 c 0,-0.1 0,-0.1 0,0 0,-0.1 0,-0.1 0,0 z"
                   id="path4516"
                   inkscape:connector-curvature="0"
                   style="fill:#202020" /><path
                   d="m 164.2,340 c 0,0 0,0 0,0 0,0 0,0 0,0 z"
                   id="path4518"
                   inkscape:connector-curvature="0"
                   style="fill:#202020" /><path
                   d="m 170.3,340.5 -0.1,-0.1 c 0,0.1 0.1,0.1 0.1,0.1 z"
                   id="path4520"
                   inkscape:connector-curvature="0"
                   style="fill:#202020" /><path
                   d="m 177.7,341.9 c 0,-0.1 0,-0.1 0,0 0,-0.1 0,-0.1 0,0 0,-0.1 0,-0.1 0,0 z"
                   id="path4522"
                   inkscape:connector-curvature="0"
                   style="fill:#202020" /><path
                   d="m 172.7,340.3 0,0 c 0.1,0 0.1,-0.1 0.1,-0.1 l -0.1,0.1 z"
                   id="path4524"
                   inkscape:connector-curvature="0"
                   style="fill:#202020" /><path
                   d="m 174.5,340.2 c 0,0 -0.1,0.3 -0.1,0.4 0,-0.1 0.1,-0.2 0.1,-0.2 0,0 0,-0.1 0,-0.2 z"
                   id="path4526"
                   inkscape:connector-curvature="0"
                   style="fill:#202020" /><path
                   d="m 177.3,340.7 0,0 c 0,0 0,0 0,0 z"
                   id="path4528"
                   inkscape:connector-curvature="0"
                   style="fill:#202020" /><path
                   d="m 171.4,340.2 c 0,0 0,-0.1 0,-0.1 0,0 0,0.1 0,0.1 z"
                   id="path4530"
                   inkscape:connector-curvature="0"
                   style="fill:#202020" /><path
                   d="m 121.5,342.3 c 0,0 0,0 0,0 0,0 0,0 0,0 z"
                   id="path4532"
                   inkscape:connector-curvature="0"
                   style="fill:#202020" /><path
                   d="m 119.4,340.9 0,0 c 0,-0.1 0,-0.1 0,-0.2 l 0,0.2 z"
                   id="path4534"
                   inkscape:connector-curvature="0"
                   style="fill:#202020" /><path
                   d="m 162.5,339.6 c 0,0 0,0 0,0 0.1,0 0.1,0 0,0 z"
                   id="path4536"
                   inkscape:connector-curvature="0"
                   style="fill:#202020" /><path
                   d="m 147.4,339.8 c 0.2,0.3 -0.3,0.3 0,0.6 0,-0.1 0.2,-0.4 0,-0.6 z"
                   id="path4538"
                   inkscape:connector-curvature="0"
                   style="fill:#202020" /><path
                   d="m 177.6,341.8 c 0,0 0,0 0,0 0,0 0,0 0,0 z"
                   id="path4540"
                   inkscape:connector-curvature="0"
                   style="fill:#202020" /><path
                   d="m 147.4,340.4 c 0,0 0,0 0,0 l 0,0 c 0,0.1 0,0 0,0 z"
                   id="path4542"
                   inkscape:connector-curvature="0"
                   style="fill:#202020" /><path
                   d="m 158.7,339.8 c 0,0 0,0.1 0,0.1 0.1,0 0.1,0 0,-0.1 z"
                   id="path4544"
                   inkscape:connector-curvature="0"
                   style="fill:#202020" /><path
                   d="m 161.6,340.2 0,0 c -0.1,0 -0.1,0 0,0 z"
                   id="path4546"
                   inkscape:connector-curvature="0"
                   style="fill:#202020" /><path
                   d="m 157.3,340.2 c 0,0 -0.1,-0.1 -0.1,0 0,0 0,0 0.1,0 -0.1,0 -0.1,0 0,0 z"
                   id="path4548"
                   inkscape:connector-curvature="0"
                   style="fill:#202020" /><path
                   d="m 155.7,340.2 c 0,0 0.1,0 0,0 0.1,0 0.1,0 0,0 l 0,0 z"
                   id="path4550"
                   inkscape:connector-curvature="0"
                   style="fill:#202020" /><path
                   d="m 126.2,342.2 c 0,-0.1 -0.1,-0.2 -0.1,-0.3 0,0.2 -0.2,0.3 0.1,0.3 z"
                   id="path4552"
                   inkscape:connector-curvature="0"
                   style="fill:#202020" /><path
                   d="m 177.7,341.7 c 0,0.1 0,0.1 0,0.1 0,0 0,0 0.1,0 -0.1,0 -0.1,-0.1 -0.1,-0.1 z"
                   id="path4554"
                   inkscape:connector-curvature="0"
                   style="fill:#202020" /><path
                   d="m 157.2,342.4 -0.2,0 c 0,0 0.1,0 0.2,0 z"
                   id="path4556"
                   inkscape:connector-curvature="0"
                   style="fill:#202020" /><path
                   d="m 137.1,342.1 0,0 c 0,0.1 0,0.1 0,0 z"
                   id="path4558"
                   inkscape:connector-curvature="0"
                   style="fill:#202020" /><path
                   d="m 156.2,342.4 c 0,-0.1 -0.1,-0.2 -0.1,-0.2 0,0 0,0 0,0.1 l 0.1,0.1 z"
                   id="path4560"
                   inkscape:connector-curvature="0"
                   style="fill:#202020" /><path
                   d="m 126.1,341.9 c 0,0 0,0 0,0 0,0 0,0 0,0 z"
                   id="path4562"
                   inkscape:connector-curvature="0"
                   style="fill:#202020" /><path
                   d="m 124.5,342.6 c 0.2,0 0.1,-0.4 0.2,-0.6 0.3,-0.1 0.1,0.3 0.2,0.5 0.2,-0.1 0.3,-0.4 0.4,-0.4 0,0.1 0,0.1 0,0.2 0.2,-0.3 0.5,0 0.8,-0.4 0,0 0,0.1 0,0.1 0,-0.2 0,-0.4 0,-0.5 0.1,0 0.2,-0.2 0.2,0 -0.1,0 -0.1,0.1 -0.1,0.2 l 0.1,-0.1 c 0.1,0.3 -0.1,0.1 -0.1,0.4 0.2,-0.1 0.5,-0.4 0.6,-0.3 0,0.3 -0.4,0.1 -0.2,0.4 l -0.3,-0.1 c 0.2,0.5 -0.2,0 0,0.5 0.3,0.1 0.4,-0.2 0.7,-0.1 0.1,-0.2 0,-0.3 0,-0.5 0.5,-0.3 0.4,0.9 0.7,0.4 0.1,-0.2 0.1,-0.7 0.4,-0.4 l -0.1,0.4 c 0.3,0 0.2,-0.6 0.5,-0.3 -0.1,0.2 -0.3,0.1 -0.2,0.2 0.2,0.3 0.2,-0.2 0.3,-0.2 l 0,0.3 c 0.3,-0.1 0.7,-0.3 1.1,-0.4 0,0.1 -0.1,0.2 0,0.3 0.5,-0.2 1,0 1.5,0.2 l 0.2,-0.3 c 0,0 0.1,0.1 0,0.2 0.2,0.1 0,-0.2 0.1,-0.3 0.1,0 0.1,0.2 0.1,0.3 0.3,-0.2 0.9,-0.5 1.2,-0.2 l -0.1,0.1 c 0.3,0.1 0.3,-0.6 0.5,-0.3 l 0,0.1 c 0.6,0.1 1.2,-0.1 1.6,0.3 0.1,-0.4 0.6,0.2 0.6,-0.4 0.3,0.3 0.2,0.4 0.7,0.6 0.1,0 0.2,-0.4 0.3,-0.4 l 0,0.3 0.2,-0.3 0.1,0.4 0.1,-0.1 c -0.1,0 -0.1,-0.1 -0.1,-0.2 0.2,-0.1 0.5,0.2 0.5,0.4 l 0.5,-0.3 c 0,0.1 -0.1,0.2 -0.2,0.2 0.3,-0.3 0.1,0.3 0.3,0 0,-0.1 0,-0.2 0,-0.2 0.1,0.2 0.4,0.2 0.6,0.1 l 0,0.2 c 0.4,0.1 0.8,-0.1 1.2,-0.1 -0.2,-0.1 -0.1,-0.5 0,-0.5 l 0.1,0.3 c 0.1,-0.2 -0.1,-0.1 0,-0.4 0.2,0 0.1,0.4 0,0.5 l 0.2,-0.1 c 0,0.1 0,0.1 0,0.3 0.1,-0.2 0.3,0.3 0.5,0 l 0,0.1 c 0.4,0 0.6,-0.1 1,-0.1 0,-0.3 0.1,-0.2 0.2,-0.4 0.3,0.1 0.5,0.3 0.9,0.3 0.2,-0.1 0.1,-0.2 0.2,-0.4 0,0.3 0.3,0.2 0.2,0.4 0.4,0 0.5,-0.1 0.9,-0.3 -0.1,-0.1 -0.1,-0.2 -0.1,-0.2 0.1,0 0.2,0.1 0.2,0.2 l 0,0 c 0.5,-0.4 1.2,0.7 1.6,0.2 l 0,0 0.4,-0.3 c 0.2,0 -0.1,0.2 0,0.4 0.5,-0.4 0.7,0.1 1.1,-0.2 0.3,0.8 1.1,-0.1 1.5,0.4 l 0,-0.2 c 0.1,-0.2 0.1,0.1 0.2,0.1 0,-0.1 -0.1,-0.2 0,-0.3 0.9,-0.2 1.8,0.3 2.7,0.4 0.3,0 0.2,-0.9 0.6,-0.5 l -0.1,0.3 c 0.7,-0.4 1.4,0 2,-0.3 0,0.1 0,0.2 -0.1,0.2 0.1,0.2 0.5,0 0.5,-0.2 0.1,0 0,0.2 0.1,0.3 0.1,0.1 0.3,-0.3 0.4,-0.1 0,0 0,0.1 -0.1,0.1 0.1,-0.1 0.4,0 0.3,-0.2 0.2,0.1 0.5,-0.1 0.7,0 0.1,-0.3 0.4,0.1 0.5,-0.3 0,0.5 0.4,0.4 0.6,0.2 -0.1,0.1 0.1,0.1 0.1,0.3 0.2,0 0.3,-0.1 0.3,-0.3 0.3,0.5 0.7,-0.4 0.8,0.3 0.5,-0.2 1,-0.4 1.5,-0.5 0,0.5 -0.5,0 -0.5,0.5 0.5,-0.2 0.7,-0.6 1.2,-0.5 0.1,0.1 -0.1,0.2 -0.1,0.3 0.5,-0.2 0.9,0 1.3,-0.2 0,0 0,0.1 -0.1,0.1 0.1,0 0.2,0.1 0.2,-0.1 l -0.1,0.1 c -0.1,-0.3 0.3,-0.6 0.3,-0.8 -0.1,0.6 0.4,0.1 0.2,0.9 0.1,0 0.1,-0.1 0.1,-0.3 0.1,0 0.1,0.1 0,0.3 0.3,-0.1 0.2,-0.3 0.4,-0.3 0,0.1 -0.1,0.1 -0.1,0.3 0.1,-0.2 0.3,-0.4 0.5,-0.3 0,0.1 0,0.1 -0.1,0.1 0.4,0 0.6,-0.5 1,-0.3 -0.1,0.4 0.1,0.1 0.2,0.5 l 0.2,-0.1 -0.1,-0.2 c 0.2,0 0.4,-0.3 0.5,-0.1 l -0.1,0.2 0.4,-0.1 -0.2,-0.1 c 0.2,-0.2 0,-0.5 0.2,-0.4 -0.1,0 0.2,0 0.3,0.2 0,0 0,0 0,0 0.1,-0.1 0.2,-0.2 0.3,-0.2 0,0.1 0,0.4 0,0.5 0.1,-0.3 0.5,-0.1 0.6,-0.4 0,0.1 0,0.3 0,0.3 l 0.1,-0.3 c 0.1,0.1 0.1,0.1 0.1,0.3 0.3,0 -0.1,-0.5 0.2,-0.3 0,0 0,0.1 -0.1,0.1 0.3,0.1 0.6,-0.2 0.9,0 0.1,0.4 -0.3,0.1 -0.2,0.4 0.4,-0.1 0.9,-0.5 1.3,-0.4 l -0.1,0 c 0.1,-0.5 0.3,0.3 0.5,0 -0.1,0 -0.1,0.3 -0.1,0.2 0.3,0.1 0.6,-0.1 1,-0.3 l -0.1,0.1 c 0.2,0.1 0.4,0.1 0.6,0.1 0.1,-0.1 0.2,-0.1 0.1,-0.3 0.6,0.8 1.1,-0.4 1.5,0.2 -0.1,0 -0.1,0.1 -0.1,0.1 l 0.4,-0.1 c 0,-0.2 -0.1,-0.1 -0.1,-0.3 0.1,-0.1 0.2,-0.2 0.3,-0.2 -0.2,0.2 0,0.4 0.1,0.5 0,-0.1 0,-0.1 0,-0.2 0.2,0.4 0,-0.5 0.3,-0.2 l 0,0.1 c 0.1,-0.1 0.2,-0.2 0.3,-0.2 0,0.3 -0.1,0.1 -0.1,0.3 0.2,0 0.3,-0.5 0.5,-0.2 -0.1,0.1 -0.2,0.1 -0.2,0.1 0.2,0.3 0.2,0.2 0.3,0.3 l 0,0 0.3,0.1 -0.1,-0.1 c 0.2,-0.7 0.4,-0.1 0.7,-0.6 -0.3,0.4 0,0.3 -0.1,0.6 0.1,0.1 0.2,0.2 0.2,0.3 0.1,-0.2 0.2,0.2 0.4,-0.2 0,0.1 0.1,0 0.1,0.3 0.2,-0.1 0,-0.2 0,-0.3 0.3,-0.3 0.6,0.4 1,-0.1 0.3,-0.2 0.4,-0.5 0.7,-0.7 0.1,0.2 -0.1,0.4 -0.1,0.4 0.2,0.1 0.3,0.1 0.5,0 0,0.1 0,0.2 0,0.3 0.1,0 0.1,-0.4 0.3,-0.2 0,0.1 -0.1,0.3 -0.1,0.4 0.2,-0.1 0.3,-0.3 0.5,-0.4 0,0.2 -0.1,0.3 -0.1,0.4 0.2,-0.1 0.5,-0.2 0.5,-0.4 l -0.1,-0.1 c 0.1,0 0,0.2 0,0.3 -0.1,0.2 -0.2,-0.1 -0.2,-0.2 l 0.1,-0.1 c -0.1,-0.6 -0.4,0.1 -0.7,0.1 l 0.1,-0.4 -0.2,0.3 c 0,-0.1 -0.1,-0.3 0,-0.4 -0.2,-0.2 -0.1,0.1 -0.3,-0.1 0,0 0,-0.1 0,-0.1 l -0.2,0.1 c 0,-0.1 0,-0.3 0.1,-0.2 -0.3,-0.2 -0.5,0.3 -0.6,0 l 0,0 c -0.4,0.1 0,0.3 -0.3,0.7 l -0.2,-0.8 0,0.3 c 0,0 -0.1,0 -0.1,-0.2 -0.1,0.2 0,0.1 -0.1,0.3 -0.2,-0.3 -0.5,0.1 -0.6,-0.4 -0.1,0.2 0.2,0.2 0,0.3 -0.1,-0.5 -0.2,0.1 -0.4,-0.2 0.1,-0.3 0.2,-0.1 0,-0.4 -0.1,0.5 -0.3,-0.1 -0.5,0 0,0.4 -0.3,0.2 -0.6,0.3 0,-0.1 -0.5,-0.2 -0.7,-0.3 l 0,-0.1 c 0,0.4 -0.3,0.3 -0.5,0.4 0,-0.2 0,-0.3 0.1,-0.4 l -0.2,0 c 0,0.1 -0.1,0.2 -0.2,0.2 l 0,-0.3 c -0.2,0 -0.4,0.3 -0.7,0.1 0,0.3 0.2,0.7 -0.1,0.9 0,-0.1 0,-0.4 0.1,-0.4 0,0 -0.1,0.1 -0.1,0.1 l 0.1,-0.2 c -0.1,-0.1 -0.1,0.2 -0.2,0.2 0,-0.2 -0.1,-0.1 -0.1,-0.3 0,0 0.1,0.1 0.1,0 -0.1,0 -0.3,-0.2 -0.3,-0.3 0,0.1 0,0.3 -0.1,0.3 -0.2,0 -0.1,-0.2 -0.2,-0.3 -0.1,0.1 -0.2,0 -0.2,0.3 -0.1,0 -0.1,-0.1 -0.1,-0.2 -0.1,0.1 -0.5,0 -0.4,0.4 l 0,0 c 0,0 0,0 0,0 0,0 0,0 0,0 l 0,0 c -0.4,0.3 -0.8,-0.2 -1.1,0 l 0,-0.1 c -0.2,0.1 -0.5,0.1 -0.6,0.3 -0.1,0 -0.2,-0.2 -0.1,-0.3 -0.2,0.1 -0.2,0.2 -0.4,0 0.2,-0.2 -0.1,-0.2 0.2,-0.1 -0.2,-0.1 -0.3,-0.2 -0.5,0 0.1,-0.3 -0.2,-0.3 -0.3,-0.2 l 0.2,0.2 c -0.1,0 -0.2,0 -0.3,0 l 0.1,-0.3 c -0.4,-0.4 -0.8,0.7 -1.1,0 -0.1,0.2 0.2,0.2 0.1,0.4 -0.2,0 -0.4,-0.5 -0.5,-0.5 -0.3,-0.2 -0.3,0.5 -0.6,0.4 0,0.1 0.1,0.4 -0.1,0.5 -0.2,0 -0.3,-0.5 -0.1,-0.6 0,0 0.1,0 0.1,0.1 0.1,0 0.2,-0.1 0.1,-0.2 l 0,0.1 c -0.1,-0.1 -0.4,-0.1 -0.3,-0.3 -0.2,0.1 -0.1,0.2 0,0.3 -0.3,-0.2 -0.4,0 -0.7,-0.1 0,0.1 0.1,0.2 0,0.2 -0.4,-0.1 -0.2,0.2 -0.4,0.3 -0.2,-0.2 0.1,-0.4 -0.2,-0.3 -0.2,-0.1 0,-0.3 0,-0.4 -0.2,0.2 -0.5,-0.2 -0.6,-0.2 l 0.1,-0.1 c -0.1,0.1 -0.1,0.1 -0.2,0.1 l 0.1,0.2 c -0.1,0 -0.1,0 -0.1,-0.1 -0.1,0.2 0.1,0.4 -0.1,0.6 -0.1,-0.1 -0.3,0.1 -0.3,-0.2 0.3,0.1 0,-0.3 0.2,-0.4 -0.1,0 -0.1,0 -0.2,0 0,0 0,-0.1 0,-0.1 -0.3,-0.3 -0.1,0.4 -0.5,0.3 0,-0.2 -0.1,-0.3 -0.1,-0.3 0.1,0 0.1,0.3 -0.1,0.4 -0.2,-0.1 -0.2,0.1 -0.3,0.1 l 0.1,0.1 c 0,0.2 -0.1,0.2 -0.3,0.2 0,-0.1 0.1,-0.1 0.1,-0.2 -0.2,0.3 -0.4,-0.3 -0.6,-0.1 -0.1,-0.1 0,-0.3 -0.1,-0.4 -0.2,0.2 -0.3,-0.2 -0.5,-0.1 0.1,0.2 0.1,0.2 -0.1,0.4 l 0.4,-0.2 -0.3,0.3 c 0.1,0 0.3,-0.1 0.3,-0.1 -0.1,0.2 -0.1,0.1 -0.1,0.3 -0.2,-0.4 -0.3,0.2 -0.6,0 l 0,-0.6 c -0.3,-0.3 -0.5,0.3 -0.9,0.2 l 0.1,0.1 c -0.1,0.2 -0.2,0 -0.4,0.1 0,-0.2 -0.1,-0.3 -0.1,-0.4 0,0.1 -0.3,0 -0.3,0.4 l -0.2,-0.3 c -0.3,-0.1 -0.4,0.6 -0.7,0.5 0.1,-0.2 0,-0.4 0.2,-0.5 -0.1,0 -0.2,0 -0.2,0.1 -0.1,-0.1 -0.3,0.3 -0.4,0.1 0,0.1 -0.1,0.3 -0.2,0.3 0,0 0,-0.1 0,-0.1 0,0.1 -0.2,0.1 -0.1,0.4 -0.3,-0.6 -0.9,0 -1.2,-0.5 -0.2,0.1 -0.5,0.1 -0.7,0.1 0,-0.1 0,-0.1 0,-0.1 -0.3,-0.2 -0.2,0.6 -0.5,0.4 -0.2,-0.3 0.2,-0.2 0.1,-0.3 0,-0.6 -0.4,0.1 -0.6,-0.3 l 0.1,0 c -0.2,-0.2 -0.4,0.2 -0.7,0.2 0,0 0,-0.1 0,-0.1 -0.2,0.3 -0.5,0.4 -0.8,0.5 0.1,-0.3 0.1,-0.1 0.1,-0.4 -0.1,0 0,0.4 -0.2,0.5 -0.1,-0.1 -0.2,-0.3 -0.3,-0.5 l 0.2,0 c -0.1,-0.4 -0.3,0 -0.4,0 l 0,-0.2 c -0.3,0.1 -0.3,0.4 -0.7,0.4 l 0,0.1 c -0.2,0.4 -0.2,-0.2 -0.4,0.1 l -0.1,-0.4 c -0.1,0.1 -0.5,0.4 -0.7,0.5 0.1,-0.3 0.4,-0.4 0.6,-0.6 -0.1,0 -0.4,0 -0.5,0.2 0.1,0 0.1,-0.1 0.2,-0.1 -0.2,0.3 -0.4,0.5 -0.6,0.5 0,-0.8 -0.7,-0.2 -0.9,-0.8 -0.5,0.3 -0.9,-0.1 -1.4,-0.1 0.2,0.6 -0.2,0 -0.1,0.6 -0.1,0 -0.2,0 -0.2,0 l -0.4,-0.4 c -0.1,-0.2 0.1,-0.1 0.1,-0.3 -0.3,0 -0.1,-0.3 -0.3,-0.4 0,0.2 -0.1,0.3 -0.2,0.2 l 0.2,0.3 c -0.4,0.3 -0.3,-0.5 -0.7,-0.2 l 0.1,-0.2 c -0.2,0.1 -0.7,0 -0.9,0.5 0,-0.1 -0.1,-0.2 0,-0.3 -0.5,-0.1 -1,0.5 -1.4,0.2 l 0,-0.1 c -0.1,0 -0.2,0.3 -0.3,0.1 0,-0.1 0,-0.1 0,-0.2 0,0.1 -0.2,0.3 -0.3,0.2 l 0.1,-0.2 c -0.5,-0.2 -0.7,0.4 -1.1,0.5 0,-0.4 -0.4,-0.6 -0.5,-0.7 l 0,-0.1 c -0.5,-0.1 -0.9,0.4 -1.4,0.5 -0.3,-0.5 -1,-0.2 -1.5,-0.5 0.1,0.1 0,0.3 -0.1,0.4 -0.1,-0.1 -0.3,0.3 -0.3,-0.1 l 0,0 c -0.1,-0.4 -0.3,-0.3 -0.5,-0.3 l 0,0.5 c -0.5,-0.8 -1.3,0.3 -1.5,-0.4 -0.1,0.1 -0.3,0.1 -0.4,0.3 l 0,-0.3 c -0.3,-0.1 -0.5,-0.1 -0.9,0 l 0.1,-0.2 c -0.2,0 -0.3,0.8 -0.5,0.8 l -0.1,-0.4 c -0.4,0 -0.8,-0.4 -1.2,0 0,-0.1 0,-0.2 0.1,-0.2 -0.2,0 -0.7,-0.3 -0.6,0.3 0,-0.4 -0.4,0 -0.6,0.1 l 0,-0.3 c -0.2,0.4 -0.2,0.5 -0.4,0.6 -0.1,0 -0.1,-0.2 0,-0.2 -0.2,-0.1 -0.2,0.3 -0.4,0.1 l 0.1,-0.2 c -0.2,0 -0.2,0.1 -0.3,0.3 -0.1,0.1 -0.4,-0.1 -0.4,-0.3 0,0.2 -0.1,0.4 -0.3,0.3 0,-0.1 0,-0.2 0,-0.2 -0.3,-0.2 -0.5,0.3 -0.7,0.1 0,-0.1 0,-0.1 0,-0.2 0.3,0 0.5,0 0.5,0 0,-0.3 -0.2,-0.3 0,-0.7 -0.2,0.2 -0.5,0.6 -0.7,0.5 0,0 0,0 0,-0.1 l 0,0 c 0,0 -0.1,0 -0.1,0 -0.1,0 -0.1,-0.1 -0.2,-0.1 0,-0.2 -0.2,-0.1 -0.4,-0.1 0,0.3 -0.1,0.2 0,0.5 0,0 0,0 0.1,0 0,0 0,0 0,0 0,0 0,0 0,0 0.1,0 0.2,0 0.3,0 -0.1,0.1 -0.2,0.3 -0.3,0.1 -0.1,0.2 -0.1,0.4 -0.2,0.5 -0.1,-0.4 -0.4,-0.6 -0.5,-0.8 -0.3,0.2 -0.8,0.1 -1,0.6 -0.1,0.1 -0.1,-0.2 -0.1,-0.2 0.1,-0.1 0.1,0 0.1,-0.1 -0.2,0.1 -0.6,0.1 -0.6,0.4 -0.2,-0.2 0.1,-0.3 -0.2,-0.3 l 0,-0.1 c -0.6,-0.6 -1,0.9 -1.7,0.2 0,0 0.1,0.1 0.1,0.1 -0.8,-0.3 -1.7,0.3 -2.5,-0.2 -0.2,-0.1 -0.3,0.1 -0.4,0.3 l 0,-0.3 -0.2,0.3 c -0.3,0.3 -0.6,-0.7 -1,-0.3 l 0.1,0.2 c -0.2,0 -0.5,0.1 -0.5,-0.1 0,0 0,0.2 -0.1,0.1 l 0,-0.2 -0.4,0.3 c -0.3,-0.1 0,-0.6 -0.4,-0.7 -0.2,0.1 -0.4,0.5 -0.4,0.6 0.1,0 0.2,0.1 0.2,0.3 l -0.1,0.1 c 0,0.5 -0.1,0.9 0.2,1.3 l 0.2,-0.3 0.1,0.2 -0.2,0 c 0.1,0.2 0.2,0 0.3,-0.1 0,0.1 0.1,0.2 0.1,0.2 l 0.2,-0.4 c 0,0.2 -0.1,0.4 0.1,0.5 0.1,-0.2 -0.1,-0.4 0.1,-0.5 0.1,0.2 0.1,0.4 0.2,0.2 0,0.1 0,0.2 -0.1,0.2 0.1,-0.1 0.3,-0.1 0.4,-0.3 0.1,0.3 0.4,-0.1 0.4,0.4 0,-0.1 0.2,-0.3 0.3,-0.4 -0.2,0.5 0.4,0 0.4,0.6 0.2,-0.5 0.6,-0.2 0.8,-0.5 0,0 0,0.1 -0.1,0.1 0.2,0 0.2,0.2 0.3,0.3 0,-0.4 0.3,-0.5 0.4,-0.7 0.2,0.4 -0.1,0.5 -0.1,0.8 0,-0.3 0.3,-0.3 0.3,-0.6 0.1,0.2 0.1,0.1 0.2,0.4 0,-0.5 0.1,-0.1 0.3,-0.4 0.2,0.2 0.1,0.5 0.3,0.3 1.2,0.3 1,0.5 1,0.5 z m 5.4,-0.9 c 0,0.1 0,0.1 0,0 0,0 -0.1,0 -0.1,0 0,0.1 0,0.1 0.1,0 z m 0.4,0 c -0.1,0 -0.1,0 -0.2,0 0,-0.1 0,-0.2 0,-0.2 0.1,0.1 0.2,0.2 0.2,0.2 z m -0.9,-1.9 c 0.1,0 0.1,0 0.1,0.1 0,0 -0.1,0 -0.1,0 0,0 0,0 0,0 0,0 0,-0.1 0,-0.1 z"
                   id="path4564"
                   inkscape:connector-curvature="0"
                   style="fill:#202020" /><path
                   d="m 129.3,340.2 c -0.1,0 -0.1,0 0,0 -0.1,0 0,0 0,0 0,0 0,0 0,0 0,0 0,0 0,0 z"
                   id="path4566"
                   inkscape:connector-curvature="0"
                   style="fill:#202020" /><path
                   d="m 170.4,340.6 0,0 c 0,0 0,0 0,0 0,0 0,0 0,0 z"
                   id="path4568"
                   inkscape:connector-curvature="0"
                   style="fill:#202020" /><polygon
                   points="136.6,342.3 136.6,342.2 136.6,342.3 "
                   id="polygon4570"
                   style="fill:#202020" /><path
                   d="m 172.9,341.5 c 0,0.1 0,0.1 0,0 0,0.1 0,0.1 0,0 z"
                   id="path4572"
                   inkscape:connector-curvature="0"
                   style="fill:#202020" /><path
                   d="m 174,341.6 0.2,0.1 c -0.1,0 -0.2,-0.1 -0.2,-0.1 z"
                   id="path4574"
                   inkscape:connector-curvature="0"
                   style="fill:#202020" /><path
                   d="m 174.8,341.7 c 0,0 0,-0.1 0,-0.1 0,0 0,0 0,0 l 0,0.1 z"
                   id="path4576"
                   inkscape:connector-curvature="0"
                   style="fill:#202020" /><path
                   d="m 161.6,342.1 c 0,0 0,0 0,0 -0.1,0 0,0 0,0 z"
                   id="path4578"
                   inkscape:connector-curvature="0"
                   style="fill:#202020" /><path
                   d="m 165.5,341.4 c 0,0.1 -0.1,0.1 -0.1,0.1 0.1,0.1 0.1,0.1 0.1,-0.1 z"
                   id="path4580"
                   inkscape:connector-curvature="0"
                   style="fill:#202020" /><path
                   d="m 157.2,342.4 c 0,0 0,0 0,0 0,0 0,0 0,0 l 0,0 z"
                   id="path4582"
                   inkscape:connector-curvature="0"
                   style="fill:#202020" /><path
                   d="m 165.2,341.6 c 0.1,0.1 0.1,0 0.2,0 0,-0.1 -0.1,-0.1 -0.2,0 z"
                   id="path4584"
                   inkscape:connector-curvature="0"
                   style="fill:#202020" /><path
                   d="m 178.4,341.9 0,0 c 0.1,0 0.1,0 0,0 l 0,0 z"
                   id="path4586"
                   inkscape:connector-curvature="0"
                   style="fill:#202020" /><path
                   d="m 178.5,341.8 0,0 c 0,0 0,0 0,0 z"
                   id="path4588"
                   inkscape:connector-curvature="0"
                   style="fill:#202020" /><path
                   d="m 178.6,341.7 0,0 c -0.1,0.1 0,0.1 0,0 z"
                   id="path4590"
                   inkscape:connector-curvature="0"
                   style="fill:#202020" /><path
                   d="m 177.3,341.7 0,0.1 c 0,0 0,0 0,-0.1 z"
                   id="path4592"
                   inkscape:connector-curvature="0"
                   style="fill:#202020" /><path
                   d="m 177,341.8 c 0.1,0 0.2,0.2 0.3,0.2 l 0,-0.1 c 0,0.1 -0.2,-0.3 -0.3,-0.1 z"
                   id="path4594"
                   inkscape:connector-curvature="0"
                   style="fill:#202020" /><path
                   d="m 175.6,340.5 0.3,0.1 c 0,-0.1 -0.1,-0.3 0,-0.3 -0.4,-0.3 0.1,0.3 -0.3,0.2 z"
                   id="path4596"
                   inkscape:connector-curvature="0"
                   style="fill:#202020" /><path
                   d="m 174.7,340.4 c 0.2,-0.1 0,-0.2 0,-0.2 -0.1,0 -0.1,0.1 0,0.2 z"
                   id="path4598"
                   inkscape:connector-curvature="0"
                   style="fill:#202020" /><path
                   d="m 168.5,340.4 0,-0.3 c -0.1,0 0,0.1 0,0.3 z"
                   id="path4600"
                   inkscape:connector-curvature="0"
                   style="fill:#202020" /><polygon
                   points="167.3,341.7 167.4,341.8 167.4,341.6 "
                   id="polygon4602"
                   style="fill:#202020" /><polygon
                   points="166.5,339.9 166.6,339.8 166.4,339.9 "
                   id="polygon4604"
                   style="fill:#202020" /><path
                   d="m 156,339.9 0,0.3 c 0.1,0 0.1,-0.3 0,-0.3 z"
                   id="path4606"
                   inkscape:connector-curvature="0"
                   style="fill:#202020" /><path
                   d="m 151.5,340.3 c 0,-0.2 -0.2,-0.3 -0.3,-0.1 0.1,0 0.2,0.1 0.3,0.1 z"
                   id="path4608"
                   inkscape:connector-curvature="0"
                   style="fill:#202020" /><polygon
                   points="137.8,339.8 137.9,339.7 137.7,339.7 "
                   id="polygon4610"
                   style="fill:#202020" /></g></g></g></g></g><line
         x1="63.099998"
         y1="256.5"
         x2="179.10001"
         y2="256.5"
         id="line4612"
         style="fill:none;stroke:#1a1a1a;stroke-width:3" /><ellipse
         cx="148"
         cy="322.89999"
         rx="33.900002"
         ry="18.1"
         id="ellipse4614"
         style="fill:none;stroke:#0071bc" /></g><g
       id="g4616"><rect
         x="198.60001"
         y="222.10001"
         transform="matrix(0.9057,0.4239,-0.4239,0.9057,129.7929,-63.2077)"
         width="16.799999"
         height="76"
         id="rect4618"
         style="fill:#f2f2f2;stroke:#1a1a1a;stroke-width:2" /><path
         d="M 217.6,226.1 187,291.3 c -0.3,0.6 -0.9,0.8 -1.5,0.6 l -2.1,-0.8 c -0.1,0 -0.1,0 -0.2,0.1 l -1.9,23.8 17,-16.7 c 0.1,-0.1 0,-0.2 0,-0.2 l -1.5,-0.8 c -0.7,-0.4 -1,-1.2 -0.6,-1.9 l 30.4,-65 c 0.6,-1.3 0.1,-2.8 -1.1,-3.4 -1.3,-0.6 -2.6,-0.3 -3.2,1 l -31.2,66.6 31.2,-66.7 c 0.5,-1.1 -0.2,-2.4 -1.2,-2.9 l 0,0 c -1.4,-0.8 -2.9,-0.3 -3.5,1.1 z"
         id="path4620"
         inkscape:connector-curvature="0"
         style="fill:#f2f2f2;stroke:#1a1a1a;stroke-width:2" /><polygon
         points="182,306.7 187.2,309.1 181.3,314.9 "
         id="polygon4622"
         style="fill:#1a1a1a;stroke:#1a1a1a;stroke-width:2" /><line
         x1="183.39999"
         y1="291.10001"
         x2="198.3"
         y2="298.20001"
         id="line4624"
         style="fill:#f2f2f2;stroke:#1a1a1a;stroke-width:2" /></g></g></svg>