<?xml version="1.0" encoding="utf-8"?>
<!-- Generator: Adobe Illustrator 18.1.1, SVG Export Plug-In . SVG Version: 6.00 Build 0)  -->
<svg version="1.1" id="Layer_1" xmlns="http://www.w3.org/2000/svg" xmlns:xlink="http://www.w3.org/1999/xlink" x="0px" y="0px"
	 viewBox="0 0 383.2 354.4" enable-background="new 0 0 383.2 354.4" xml:space="preserve">
<g>
	<path fill="#B3B3B3" d="M152.3,163.2H11.9c-6.6,0-11.9-5.3-11.9-11.9V29.8c0-6.6,5.3-11.9,11.9-11.9h140.4
		c6.6,0,11.9,5.3,11.9,11.9v121.5C164.2,157.9,158.9,163.2,152.3,163.2z"/>
	<rect x="0" y="17.9" fill="#1A1A1A" width="164.2" height="52"/>
	<text transform="matrix(1 0 0 1 38.8953 58.0905)" fill="#F2F2F2" font-family="'OratorStd'" font-size="36">2014</text>
	<text transform="matrix(1 0 0 1 41.7673 132.9644)" fill="#1A1A1A" font-family="'BerlinSansFB-Reg'" font-size="60">Jan</text>
	<path fill="#333333" d="M29.3,40.5h-5.8c-1.8,0-3.3-1.5-3.3-3.3V13.6c0-1.8,1.5-3.3,3.3-3.3h5.8c1.8,0,3.3,1.5,3.3,3.3v23.6
		C32.6,39,31.1,40.5,29.3,40.5z"/>
	<path fill="#333333" d="M139.6,40.5h-5c-2,0-3.7-1.7-3.7-3.7V14c0-2,1.7-3.7,3.7-3.7h5c2,0,3.7,1.7,3.7,3.7v22.8
		C143.3,38.8,141.7,40.5,139.6,40.5z"/>
	<rect x="0" y="70" fill="#333333" width="164.2" height="8.1"/>
</g>
<g>
	<path fill="#4D4D4D" d="M369,100.1c0,44.8-36.4,81.1-81.2,81c-44.8,0-81.1-36.4-81-81.1c0-44.8,36.4-81.1,81.1-81l0.2,0l-0.1,81
		L365,75.1C367.6,83,369,91.4,369,100.1z"/>
	<circle fill="#FF00FF" stroke="#F2F2F2" stroke-width="6" cx="287.6" cy="100.5" r="50"/>
	<path id="SVGID_x5F_1_x5F_" fill="none" d="M316.7,130.2c-16.1,15.7-42.1,15.2-58.2-1.3c-16.1-16.4-16-42.5,0-58.2
		s42.1-15.2,58.2,1.3S332.8,114.5,316.7,130.2z"/>
	<text>	<textPath  xlink:href="#SVGID_x5F_1_x5F_" startOffset="41.5365%">
<tspan  fill="#E6E6E6" font-family="'MyriadPro-Regular'" font-size="9.773">100% Woman Owned</tspan>	</textPath>
</text>
	<path id="SVGID_x5F_2_x5F_" fill="none" d="M215.7,123.7c-3.9-11.8-4.9-24.7-2.4-37.8c7.8-41.1,47.4-68,88.5-60.2
		s68,47.4,60.2,88.5c-7.8,41.1-47.4,68-88.5,60.2C245.5,169.1,224,149,215.7,123.7"/>
	<text>	<textPath  xlink:href="#SVGID_x5F_2_x5F_" startOffset="29.3164%">
<tspan  fill="#E6E6E6" font-family="'MyriadPro-Regular'" font-size="15.8672">70% Black Woman Owned</tspan>	</textPath>
</text>
	<g transform="translate(0,1025)scale(1,-1)">
		<ellipse fill="none" stroke="#CCCCCC" stroke-width="2" cx="287.6" cy="944.5" rx="12.4" ry="11.7"/>
		<path fill="none" stroke="#E6E6E6" stroke-width="3" d="M287.6,905.9v26.9 M272.8,919.8h29.6"/>
		<path fill="#E6E6E6" d="M289.1,932.8l0,3.5c2.1,1.2,5,3.4,5,5.4c0,1-0.7,1.9-1.9,1.9c-1,0-1.6-0.3-2.5-0.3c-1.9,0-1.6,1-2.1,1
			s-0.9-0.5-0.9-1.3c0-1.2,1-1.8,1.9-1.8c0.6,0,0.8,0.2,1.1,0.2c0.2,0,0.3,0,0.3-0.2c0-0.2-0.4-0.6-1-0.6c-1.9,0-2.2,1.4-4.6,1.4
			c-1.5,0-2.4-1-2.4-2.5c0-2,2.2-2.9,3.8-3.2l0-3.5H289.1z M293.2,946.7c0,0.8-0.9,2.1-1.5,2.1c-0.6,0-1-3.4-1-3.8
			c0-0.6,0.6-1.3,1.2-1.3C292.3,943.7,293.2,945.9,293.2,946.7z M290.7,948.5c0,1-1.5,1.5-2.1,1.5c-0.7,0-1-2-1-4
			c0-0.8,0.3-1.9,1.3-1.9C290,944.1,290.7,946.4,290.7,948.5z M287.4,948.7c0,0.6-0.2,1.1-0.7,1.1c-0.8,0-2.3-1-2.3-2
			c0-2,0.4-4,1.4-4C286.9,943.8,287.4,947.6,287.4,948.7z M284.4,943.8c0,1.8-0.2,4-0.8,4c-0.8,0-1.7-0.6-1.7-1.5
			c0-1.7,0.8-3.8,1.9-3.8C284.2,942.3,284.4,942.7,284.4,943.8z"/>
	</g>
	<path fill="none" d="M365,75l-76.9,25V19C324.1,19,354.5,42.5,365,75z"/>
	<line fill="none" x1="288.1" y1="19" x2="288.1" y2="0"/>
	<line fill="none" x1="383.2" y1="69.1" x2="365" y2="75"/>
</g>
<g>
	<g>
		<path fill="#F2F2F2" stroke="#1A1A1A" stroke-width="4" d="M195.4,196.3v142.6c0,7.4-6,13.4-13.4,13.4H26.4h-9.5
			c-8,0-14.5-6.5-14.5-14.5V224.3h23.6v-28H195.4z"/>
		<path fill="#4D4D4D" d="M89.6,329"/>
		<path fill="#4D4D4D" d="M104.1,340.8"/>
		<path fill="none" stroke="#1A1A1A" stroke-width="4" d="M25.9,223c0,0,0.2,113.8,0.2,117.8c0,5.5-3.5,10.9-9.2,11.6"/>
		<text transform="matrix(1.2535 0 0 1 43.898 247.2578)" fill="#1A1A1A" font-family="'Rockwell'" font-size="48.9679">JOBS</text>
		<rect x="44" y="266" fill="none" stroke="#1A1A1A" stroke-width="4" width="60.2" height="42.8"/>
		<line fill="none" stroke="#1A1A1A" stroke-width="4" x1="44.1" y1="320" x2="104.1" y2="320"/>
		<line fill="none" stroke="#1A1A1A" stroke-width="4" x1="44.1" y1="330" x2="104.1" y2="330"/>
		<line fill="none" stroke="#1A1A1A" stroke-width="4" x1="44.1" y1="341" x2="104.1" y2="341"/>
		<line fill="none" stroke="#1A1A1A" stroke-width="4" x1="119.1" y1="267" x2="179.1" y2="267"/>
		<line fill="none" stroke="#1A1A1A" stroke-width="4" x1="119.1" y1="278" x2="179.1" y2="278"/>
		<line fill="none" stroke="#1A1A1A" stroke-width="4" x1="119.1" y1="288" x2="179.1" y2="288"/>
		<line fill="none" stroke="#1A1A1A" stroke-width="4" x1="119.1" y1="299" x2="179.1" y2="299"/>
		<line fill="none" stroke="#1A1A1A" stroke-width="4" x1="119.1" y1="309" x2="179.1" y2="309"/>
		<g>
			<g>
				<g>
					<g>
						<g>
							<path fill="#202020" d="M179.8,320.5c0-0.1,0-0.3-0.1-0.2l-0.1,0.3L179.8,320.5z"/>
							<path fill="#202020" d="M179.2,319.9c-0.1,0.2-0.2,0.4-0.2,0.7c0.1-0.3,0.1-0.2,0.2-0.6c0.1,0,0.2,0.1,0.1,0.2
								c0-0.1,0.1,0.1,0.2-0.1c-0.1-0.3-0.3-0.3-0.4-0.1C179.2,320.1,179.2,320,179.2,319.9z"/>
							<path fill="#202020" d="M170.7,319.4L170.7,319.4C170.7,319.4,170.7,319.4,170.7,319.4z"/>
							<path fill="#202020" d="M165.4,319.2C165.5,319.2,165.5,319.2,165.4,319.2C165.4,319.2,165.4,319.2,165.4,319.2z"/>
							<path fill="#202020" d="M164.5,318.8C164.5,318.9,164.5,318.9,164.5,318.8C164.5,318.8,164.5,318.8,164.5,318.8z"/>
							<path fill="#202020" d="M170.7,319.4l-0.1-0.1C170.5,319.4,170.6,319.4,170.7,319.4z"/>
							<path fill="#202020" d="M178,320.7C178,320.7,178.1,320.7,178,320.7C178.1,320.6,178,320.6,178,320.7
								C178,320.7,178,320.7,178,320.7z"/>
							<path fill="#202020" d="M173,319.1L173,319.1c0.1,0,0.1-0.1,0.1-0.1L173,319.1z"/>
							<path fill="#202020" d="M174.8,319.1c0,0-0.1,0.3-0.1,0.4c0-0.1,0.1-0.2,0.1-0.2C174.8,319.2,174.8,319.2,174.8,319.1z"/>
							<path fill="#202020" d="M177.6,319.6L177.6,319.6C177.7,319.5,177.6,319.6,177.6,319.6z"/>
							<path fill="#202020" d="M171.7,319.1c0,0,0-0.1,0-0.1C171.7,319,171.7,319,171.7,319.1z"/>
							<path fill="#202020" d="M121.8,321.2C121.8,321.2,121.8,321.1,121.8,321.2C121.8,321.2,121.8,321.2,121.8,321.2z"/>
							<path fill="#202020" d="M119.8,319.8L119.8,319.8c0-0.1,0-0.1,0-0.2L119.8,319.8z"/>
							<path fill="#202020" d="M162.9,318.5C162.9,318.5,162.9,318.5,162.9,318.5C162.9,318.5,162.9,318.5,162.9,318.5z"/>
							<path fill="#202020" d="M147.7,318.7c0.2,0.3-0.3,0.3,0,0.6C147.7,319.2,148,318.9,147.7,318.7z"/>
							<path fill="#202020" d="M178,320.7C177.9,320.7,177.9,320.7,178,320.7C177.9,320.7,178,320.7,178,320.7z"/>
							<path fill="#202020" d="M147.7,319.3C147.7,319.3,147.7,319.3,147.7,319.3L147.7,319.3C147.7,319.3,147.7,319.3,147.7,319.3z
								"/>
							<path fill="#202020" d="M159.1,318.7c0,0,0,0.1,0,0.1C159.1,318.8,159.1,318.7,159.1,318.7z"/>
							<path fill="#202020" d="M161.9,319.1L161.9,319.1C161.9,319,161.9,319.1,161.9,319.1z"/>
							<path fill="#202020" d="M157.6,319.1c0,0-0.1-0.1-0.1,0C157.5,319,157.5,319.1,157.6,319.1C157.5,319,157.6,319,157.6,319.1z
								"/>
							<path fill="#202020" d="M156.1,319.1C156.1,319.1,156.1,319.1,156.1,319.1C156.1,319.1,156.1,319.1,156.1,319.1L156.1,319.1z
								"/>
							<path fill="#202020" d="M126.5,321c0-0.1-0.1-0.2-0.1-0.3C126.4,321,126.2,321.1,126.5,321z"/>
							<path fill="#202020" d="M178,320.5c0,0.1,0,0.1,0,0.1c0,0,0,0,0.1,0C178,320.6,178,320.6,178,320.5z"/>
							<path fill="#202020" d="M157.5,321.3l-0.2,0C157.4,321.3,157.5,321.3,157.5,321.3z"/>
							<path fill="#202020" d="M137.5,321L137.5,321C137.4,321,137.4,321,137.5,321z"/>
							<path fill="#202020" d="M156.6,321.3c0-0.1-0.1-0.2-0.1-0.2c0,0,0,0,0,0.1L156.6,321.3z"/>
							<path fill="#202020" d="M126.4,320.8C126.4,320.8,126.4,320.8,126.4,320.8C126.4,320.8,126.4,320.8,126.4,320.8z"/>
							<path fill="#202020" d="M124.8,321.5c0.2,0,0.1-0.4,0.2-0.6c0.3-0.1,0.1,0.3,0.2,0.5c0.2-0.1,0.3-0.4,0.4-0.4
								c0,0.1,0,0.1,0,0.2c0.2-0.3,0.5,0,0.8-0.4c0,0,0,0.1,0,0.1c0-0.2,0-0.4,0-0.5c0.1,0,0.2-0.2,0.2,0c-0.1,0-0.1,0.1-0.1,0.2
								l0.1-0.1c0.1,0.3-0.1,0.1-0.1,0.4c0.2-0.1,0.5-0.4,0.6-0.3c0,0.3-0.4,0.1-0.2,0.4l-0.3-0.1c0.2,0.5-0.2,0,0,0.5
								c0.3,0.1,0.4-0.2,0.7-0.1c0.1-0.2,0-0.3,0-0.5c0.5-0.3,0.4,0.9,0.7,0.4c0.1-0.2,0.1-0.7,0.4-0.4l-0.1,0.4
								c0.3,0,0.2-0.6,0.5-0.3c-0.1,0.2-0.3,0.1-0.2,0.2c0.2,0.3,0.2-0.2,0.3-0.2l0,0.3c0.3-0.1,0.7-0.3,1.1-0.4
								c0,0.1-0.1,0.2,0,0.3c0.5-0.2,1,0,1.5,0.2l0.2-0.3c0,0,0.1,0.1,0,0.2c0.2,0.1,0-0.2,0.1-0.3c0.1,0,0.1,0.2,0.1,0.3
								c0.3-0.2,0.9-0.5,1.2-0.2l-0.1,0.1c0.3,0.1,0.3-0.6,0.5-0.3l0,0.1c0.6,0.1,1.2-0.1,1.6,0.3c0.1-0.4,0.6,0.2,0.6-0.4
								c0.3,0.3,0.2,0.4,0.7,0.6c0.1,0,0.2-0.4,0.3-0.4l0,0.3l0.2-0.3l0.1,0.4l0.1-0.1c-0.1,0-0.1-0.1-0.1-0.2
								c0.2-0.1,0.5,0.2,0.5,0.4l0.5-0.3c0,0.1-0.1,0.2-0.2,0.2c0.3-0.3,0.1,0.3,0.3,0c0-0.1,0-0.2,0-0.2c0.1,0.2,0.4,0.2,0.6,0.1
								l0,0.2c0.4,0.1,0.8-0.1,1.2-0.1c-0.2-0.1-0.1-0.5,0-0.5l0.1,0.3c0.1-0.2-0.1-0.1,0-0.4c0.2,0,0.1,0.4,0,0.5l0.2-0.1
								c0,0.1,0,0.1,0,0.3c0.1-0.2,0.3,0.3,0.5,0l0,0.1c0.4,0,0.6-0.1,1-0.1c0-0.3,0.1-0.2,0.2-0.4c0.3,0.1,0.5,0.3,0.9,0.3
								c0.2-0.1,0.1-0.2,0.2-0.4c0,0.3,0.3,0.2,0.2,0.4c0.4,0,0.5-0.1,0.9-0.3c-0.1-0.1-0.1-0.2-0.1-0.2c0.1,0,0.2,0.1,0.2,0.2l0,0
								c0.5-0.4,1.2,0.7,1.6,0.2l0,0l0.4-0.3c0.2,0-0.1,0.2,0,0.4c0.5-0.4,0.7,0.1,1.1-0.2c0.3,0.8,1.1-0.1,1.5,0.4l0-0.2
								c0.1-0.2,0.1,0.1,0.2,0.1c0-0.1-0.1-0.2,0-0.3c0.9-0.2,1.8,0.3,2.7,0.4c0.3,0,0.2-0.9,0.6-0.5l-0.1,0.3c0.7-0.4,1.4,0,2-0.3
								c0,0.1,0,0.2-0.1,0.2c0.1,0.2,0.5,0,0.5-0.2c0.1,0,0,0.2,0.1,0.3c0.1,0.1,0.3-0.3,0.4-0.1c0,0,0,0.1-0.1,0.1
								c0.1-0.1,0.4,0,0.3-0.2c0.2,0.1,0.5-0.1,0.7,0c0.1-0.3,0.4,0.1,0.5-0.3c0,0.5,0.4,0.4,0.6,0.2c-0.1,0.1,0.1,0.1,0.1,0.3
								c0.2,0,0.3-0.1,0.3-0.3c0.3,0.5,0.7-0.4,0.8,0.3c0.5-0.2,1-0.4,1.5-0.5c0,0.5-0.5,0-0.5,0.5c0.5-0.2,0.7-0.6,1.2-0.5
								c0.1,0.1-0.1,0.2-0.1,0.3c0.5-0.2,0.9,0,1.3-0.2c0,0,0,0.1-0.1,0.1c0.1,0,0.2,0.1,0.2-0.1l-0.1,0.1c-0.1-0.3,0.3-0.6,0.3-0.8
								c-0.1,0.6,0.4,0.1,0.2,0.9c0.1,0,0.1-0.1,0.1-0.3c0.1,0,0.1,0.1,0,0.3c0.3-0.1,0.2-0.3,0.4-0.3c0,0.1-0.1,0.1-0.1,0.3
								c0.1-0.2,0.3-0.4,0.5-0.3c0,0.1,0,0.1-0.1,0.1c0.4,0,0.6-0.5,1-0.3c-0.1,0.4,0.1,0.1,0.2,0.5l0.2-0.1l-0.1-0.2
								c0.2,0,0.4-0.3,0.5-0.1l-0.1,0.2l0.4-0.1l-0.2-0.1c0.2-0.2,0-0.5,0.2-0.4c-0.1,0,0.2,0,0.3,0.2c0,0,0,0,0,0
								c0.1-0.1,0.2-0.2,0.3-0.2c0,0.1,0,0.4,0,0.5c0.1-0.3,0.5-0.1,0.6-0.4c0,0.1,0,0.3,0,0.3l0.1-0.3c0.1,0.1,0.1,0.1,0.1,0.3
								c0.3,0-0.1-0.5,0.2-0.3c0,0,0,0.1-0.1,0.1c0.3,0.1,0.6-0.2,0.9,0c0.1,0.4-0.3,0.1-0.2,0.4c0.4-0.1,0.9-0.5,1.3-0.4l-0.1,0
								c0.1-0.5,0.3,0.3,0.5,0c-0.1,0-0.1,0.3-0.1,0.2c0.3,0.1,0.6-0.1,1-0.3l-0.1,0.1c0.2,0.1,0.4,0.1,0.6,0.1
								c0.1-0.1,0.2-0.1,0.1-0.3c0.6,0.8,1.1-0.4,1.5,0.2c-0.1,0-0.1,0.1-0.1,0.1l0.4-0.1c0-0.2-0.1-0.1-0.1-0.3
								c0.1-0.1,0.2-0.2,0.3-0.2c-0.2,0.2,0,0.4,0.1,0.5c0-0.1,0-0.1,0-0.2c0.2,0.4,0-0.5,0.3-0.2l0,0.1c0.1-0.1,0.2-0.2,0.3-0.2
								c0,0.3-0.1,0.1-0.1,0.3c0.2,0,0.3-0.5,0.5-0.2c-0.1,0.1-0.2,0.1-0.2,0.1c0.2,0.3,0.2,0.2,0.3,0.3l0,0l0.3,0.1l-0.1-0.1
								c0.2-0.7,0.4-0.1,0.7-0.6c-0.3,0.4,0,0.3-0.1,0.6c0.1,0.1,0.2,0.2,0.2,0.3c0.1-0.2,0.2,0.2,0.4-0.2c0,0.1,0.1,0,0.1,0.3
								c0.2-0.1,0-0.2,0-0.3c0.3-0.3,0.6,0.4,1-0.1c0.3-0.2,0.4-0.5,0.7-0.7c0.1,0.2-0.1,0.4-0.1,0.4c0.2,0.1,0.3,0.1,0.5,0
								c0,0.1,0,0.2,0,0.3c0.1,0,0.1-0.4,0.3-0.2c0,0.1-0.1,0.3-0.1,0.4c0.2-0.1,0.3-0.3,0.5-0.4c0,0.2-0.1,0.3-0.1,0.4
								c0.2-0.1,0.5-0.2,0.5-0.4l-0.1-0.1c0.1,0,0,0.2,0,0.3c-0.1,0.2-0.2-0.1-0.2-0.2l0.1-0.1c-0.1-0.6-0.4,0.1-0.7,0.1l0.1-0.4
								l-0.2,0.3c0-0.1-0.1-0.3,0-0.4c-0.2-0.2-0.1,0.1-0.3-0.1c0,0,0-0.1,0-0.1l-0.2,0.1c0-0.1,0-0.3,0.1-0.2
								c-0.3-0.2-0.5,0.3-0.6,0l0,0c-0.4,0.1,0,0.3-0.3,0.7l-0.2-0.8l0,0.3c0,0-0.1,0-0.1-0.2c-0.1,0.2,0,0.1-0.1,0.3
								c-0.2-0.3-0.5,0.1-0.6-0.4c-0.1,0.2,0.2,0.2,0,0.3c-0.1-0.5-0.2,0.1-0.4-0.2c0.1-0.3,0.2-0.1,0-0.4c-0.1,0.5-0.3-0.1-0.5,0
								c0,0.4-0.3,0.2-0.6,0.3c0-0.1-0.5-0.2-0.7-0.3l0-0.1c0,0.4-0.3,0.3-0.5,0.4c0-0.2,0-0.3,0.1-0.4l-0.2,0
								c0,0.1-0.1,0.2-0.2,0.2l0-0.3c-0.2,0-0.4,0.3-0.7,0.1c0,0.3,0.2,0.7-0.1,0.9c0-0.1,0-0.4,0.1-0.4c0,0-0.1,0.1-0.1,0.1
								l0.1-0.2c-0.1-0.1-0.1,0.2-0.2,0.2c0-0.2-0.1-0.1-0.1-0.3c0,0,0.1,0.1,0.1,0c-0.1,0-0.3-0.2-0.3-0.3c0,0.1,0,0.3-0.1,0.3
								c-0.2,0-0.1-0.2-0.2-0.3c-0.1,0.1-0.2,0-0.2,0.3c-0.1,0-0.1-0.1-0.1-0.2c-0.1,0.1-0.5,0-0.4,0.4l0,0c0,0,0,0,0,0c0,0,0,0,0,0
								h0c-0.4,0.3-0.8-0.2-1.1,0l0-0.1c-0.2,0.1-0.5,0.1-0.6,0.3c-0.1,0-0.2-0.2-0.1-0.3c-0.2,0.1-0.2,0.2-0.4,0
								c0.2-0.2-0.1-0.2,0.2-0.1c-0.2-0.1-0.3-0.2-0.5,0c0.1-0.3-0.2-0.3-0.3-0.2l0.2,0.2c-0.1,0-0.2,0-0.3,0l0.1-0.3
								c-0.4-0.4-0.8,0.7-1.1,0c-0.1,0.2,0.2,0.2,0.1,0.4c-0.2,0-0.4-0.5-0.5-0.5c-0.3-0.2-0.3,0.5-0.6,0.4c0,0.1,0.1,0.4-0.1,0.5
								c-0.2,0-0.3-0.5-0.1-0.6c0,0,0.1,0,0.1,0.1c0.1,0,0.2-0.1,0.1-0.2l0,0.1c-0.1-0.1-0.4-0.1-0.3-0.3c-0.2,0.1-0.1,0.2,0,0.3
								c-0.3-0.2-0.4,0-0.7-0.1c0,0.1,0.1,0.2,0,0.2c-0.4-0.1-0.2,0.2-0.4,0.3c-0.2-0.2,0.1-0.4-0.2-0.3c-0.2-0.1,0-0.3,0-0.4
								c-0.2,0.2-0.5-0.2-0.6-0.2l0.1-0.1c-0.1,0.1-0.1,0.1-0.2,0.1l0.1,0.2c-0.1,0-0.1,0-0.1-0.1c-0.1,0.2,0.1,0.4-0.1,0.6
								c-0.1-0.1-0.3,0.1-0.3-0.2c0.3,0.1,0-0.3,0.2-0.4c-0.1,0-0.1,0-0.2,0c0,0,0-0.1,0-0.1c-0.3-0.3-0.1,0.4-0.5,0.3
								c0-0.2-0.1-0.3-0.1-0.3c0.1,0,0.1,0.3-0.1,0.4c-0.2-0.1-0.2,0.1-0.3,0.1l0.1,0.1c0,0.2-0.1,0.2-0.3,0.2
								c0-0.1,0.1-0.1,0.1-0.2c-0.2,0.3-0.4-0.3-0.6-0.1c-0.1-0.1,0-0.3-0.1-0.4c-0.2,0.2-0.3-0.2-0.5-0.1c0.1,0.2,0.1,0.2-0.1,0.4
								l0.4-0.2l-0.3,0.3c0.1,0,0.3-0.1,0.3-0.1c-0.1,0.2-0.1,0.1-0.1,0.3c-0.2-0.4-0.3,0.2-0.6,0l0-0.6c-0.3-0.3-0.5,0.3-0.9,0.2
								l0.1,0.1c-0.1,0.2-0.2,0-0.4,0.1c0-0.2-0.1-0.3-0.1-0.4c0,0.1-0.3,0-0.3,0.4l-0.2-0.3c-0.3-0.1-0.4,0.6-0.7,0.5
								c0.1-0.2,0-0.4,0.2-0.5c-0.1,0-0.2,0-0.2,0.1c-0.1-0.1-0.3,0.3-0.4,0.1c0,0.1-0.1,0.3-0.2,0.3c0,0,0-0.1,0-0.1
								c0,0.1-0.2,0.1-0.1,0.4c-0.3-0.6-0.9,0-1.2-0.5c-0.2,0.1-0.5,0.1-0.7,0.1c0-0.1,0-0.1,0-0.1c-0.3-0.2-0.2,0.6-0.5,0.4
								c-0.2-0.3,0.2-0.2,0.1-0.3c0-0.6-0.4,0.1-0.6-0.3l0.1,0c-0.2-0.2-0.4,0.2-0.7,0.2c0,0,0-0.1,0-0.1c-0.2,0.3-0.5,0.4-0.8,0.5
								c0.1-0.3,0.1-0.1,0.1-0.4c-0.1,0,0,0.4-0.2,0.5c-0.1-0.1-0.2-0.3-0.3-0.5l0.2,0c-0.1-0.4-0.3,0-0.4,0l0-0.2
								c-0.3,0.1-0.3,0.4-0.7,0.4l0,0.1c-0.2,0.4-0.2-0.2-0.4,0.1l-0.1-0.4c-0.1,0.1-0.5,0.4-0.7,0.5c0.1-0.3,0.4-0.4,0.6-0.6
								c-0.1,0-0.4,0-0.5,0.2c0.1,0,0.1-0.1,0.2-0.1c-0.2,0.3-0.4,0.5-0.6,0.5c0-0.8-0.7-0.2-0.9-0.8c-0.5,0.3-0.9-0.1-1.4-0.1
								c0.2,0.6-0.2,0-0.1,0.6c-0.1,0-0.2,0-0.2,0l-0.4-0.4c-0.1-0.2,0.1-0.1,0.1-0.3c-0.3,0-0.1-0.3-0.3-0.4c0,0.2-0.1,0.3-0.2,0.2
								l0.2,0.3c-0.4,0.3-0.3-0.5-0.7-0.2l0.1-0.2c-0.2,0.1-0.7,0-0.9,0.5c0-0.1-0.1-0.2,0-0.3c-0.5-0.1-1,0.5-1.4,0.2l0-0.1
								c-0.1,0-0.2,0.3-0.3,0.1c0-0.1,0-0.1,0-0.2c0,0.1-0.2,0.3-0.3,0.2l0.1-0.2c-0.5-0.2-0.7,0.4-1.1,0.5c0-0.4-0.4-0.6-0.5-0.7
								l0-0.1c-0.5-0.1-0.9,0.4-1.4,0.5c-0.3-0.5-1-0.2-1.5-0.5c0.1,0.1,0,0.3-0.1,0.4c-0.1-0.1-0.3,0.3-0.3-0.1l0,0
								c-0.1-0.4-0.3-0.3-0.5-0.3l0,0.5c-0.5-0.8-1.3,0.3-1.5-0.4c-0.1,0.1-0.3,0.1-0.4,0.3l0-0.3c-0.3-0.1-0.5-0.1-0.9,0l0.1-0.2
								c-0.2,0-0.3,0.8-0.5,0.8l-0.1-0.4c-0.4,0-0.8-0.4-1.2,0c0-0.1,0-0.2,0.1-0.2c-0.2,0-0.7-0.3-0.6,0.3c0-0.4-0.4,0-0.6,0.1
								l0-0.3c-0.2,0.4-0.2,0.5-0.4,0.6c-0.1,0-0.1-0.2,0-0.2c-0.2-0.1-0.2,0.3-0.4,0.1l0.1-0.2c-0.2,0-0.2,0.1-0.3,0.3
								c-0.1,0.1-0.4-0.1-0.4-0.3c0,0.2-0.1,0.4-0.3,0.3c0-0.1,0-0.2,0-0.2c-0.3-0.2-0.5,0.3-0.7,0.1c0-0.1,0-0.1,0-0.2
								c0.3,0,0.5,0,0.5,0c0-0.3-0.2-0.3,0-0.7c-0.2,0.2-0.5,0.6-0.7,0.5c0,0,0,0,0-0.1l0,0c0,0-0.1,0-0.1,0c-0.1,0-0.1-0.1-0.2-0.1
								c0-0.2-0.2-0.1-0.4-0.1c0,0.3-0.1,0.2,0,0.5c0,0,0,0,0.1,0c0,0,0,0,0,0c0,0,0,0,0,0c0.1,0,0.2,0,0.3,0
								c-0.1,0.1-0.2,0.3-0.3,0.1c-0.1,0.2-0.1,0.4-0.2,0.5c-0.1-0.4-0.4-0.6-0.5-0.8c-0.3,0.2-0.8,0.1-1,0.6
								c-0.1,0.1-0.1-0.2-0.1-0.2c0.1-0.1,0.1,0,0.1-0.1c-0.2,0.1-0.6,0.1-0.6,0.4c-0.2-0.2,0.1-0.3-0.2-0.3l0-0.1
								c-0.6-0.6-1,0.9-1.7,0.2c0,0,0.1,0.1,0.1,0.1c-0.8-0.3-1.7,0.3-2.5-0.2c-0.2-0.1-0.3,0.1-0.4,0.3l0-0.3l-0.2,0.3
								c-0.3,0.3-0.6-0.7-1-0.3l0.1,0.2c-0.2,0-0.5,0.1-0.5-0.1c0,0,0,0.2-0.1,0.1l0-0.2l-0.4,0.3c-0.3-0.1,0-0.6-0.4-0.7
								c-0.2,0.1-0.4,0.5-0.4,0.6c0.1,0,0.2,0.1,0.2,0.3l-0.1,0.1c0,0.5-0.1,0.9,0.2,1.3l0.2-0.3l0.1,0.2l-0.2,0
								c0.1,0.2,0.2,0,0.3-0.1c0,0.1,0.1,0.2,0.1,0.2l0.2-0.4c0,0.2-0.1,0.4,0.1,0.5c0.1-0.2-0.1-0.4,0.1-0.5
								c0.1,0.2,0.1,0.4,0.2,0.2c0,0.1,0,0.2-0.1,0.2c0.1-0.1,0.3-0.1,0.4-0.3c0.1,0.3,0.4-0.1,0.4,0.4c0-0.1,0.2-0.3,0.3-0.4
								c-0.2,0.5,0.4,0,0.4,0.6c0.2-0.5,0.6-0.2,0.8-0.5c0,0,0,0.1-0.1,0.1c0.2,0,0.2,0.2,0.3,0.3c0-0.4,0.3-0.5,0.4-0.7
								c0.2,0.4-0.1,0.5-0.1,0.8c0-0.3,0.3-0.3,0.3-0.6c0.1,0.2,0.1,0.1,0.2,0.4c0-0.5,0.1-0.1,0.3-0.4c0.2,0.2,0.1,0.5,0.3,0.3
								C125,321.3,124.8,321.5,124.8,321.5z M130.2,320.6C130.2,320.6,130.2,320.6,130.2,320.6c0,0-0.1,0-0.1,0
								C130.1,320.6,130.2,320.6,130.2,320.6z M130.7,320.6c-0.1,0-0.1,0-0.2,0c0-0.1,0-0.2,0-0.2
								C130.5,320.5,130.6,320.5,130.7,320.6z M129.7,318.7c0.1,0,0.1,0,0.1,0.1c0,0-0.1,0-0.1,0c0,0,0,0,0,0
								C129.7,318.7,129.7,318.7,129.7,318.7z"/>
							<path fill="#202020" d="M129.6,319C129.6,319,129.6,319,129.6,319C129.6,319.1,129.6,319.1,129.6,319
								C129.6,319.1,129.6,319,129.6,319C129.6,319,129.6,319,129.6,319z"/>
							<path fill="#202020" d="M170.7,319.4L170.7,319.4C170.7,319.4,170.8,319.5,170.7,319.4C170.8,319.5,170.8,319.5,170.7,319.4z
								"/>
							<polygon fill="#202020" points="136.9,321.1 136.9,321.1 136.9,321.1 							"/>
							<path fill="#202020" d="M173.2,320.4C173.3,320.4,173.3,320.5,173.2,320.4C173.3,320.5,173.3,320.4,173.2,320.4z"/>
							<path fill="#202020" d="M174.3,320.5l0.2,0.1C174.4,320.5,174.4,320.5,174.3,320.5z"/>
							<path fill="#202020" d="M175.2,320.6c0,0,0-0.1,0-0.1c0,0,0,0,0,0L175.2,320.6z"/>
							<path fill="#202020" d="M162,320.9C161.9,320.9,161.9,320.9,162,320.9C161.8,321,161.9,321,162,320.9z"/>
							<path fill="#202020" d="M165.9,320.3c0,0.1-0.1,0.1-0.1,0.1C165.8,320.4,165.9,320.4,165.9,320.3z"/>
							<path fill="#202020" d="M157.6,321.3C157.6,321.3,157.6,321.3,157.6,321.3C157.6,321.3,157.5,321.3,157.6,321.3L157.6,321.3z
								"/>
							<path fill="#202020" d="M165.6,320.4c0.1,0.1,0.1,0,0.2,0C165.7,320.4,165.6,320.4,165.6,320.4z"/>
							<path fill="#202020" d="M178.8,320.7L178.8,320.7C178.8,320.7,178.8,320.7,178.8,320.7L178.8,320.7z"/>
							<path fill="#202020" d="M178.8,320.7L178.8,320.7C178.8,320.7,178.8,320.7,178.8,320.7z"/>
							<path fill="#202020" d="M178.9,320.6L178.9,320.6C178.9,320.7,178.9,320.7,178.9,320.6z"/>
							<path fill="#202020" d="M177.7,320.6l0,0.1C177.7,320.7,177.7,320.7,177.7,320.6z"/>
							<path fill="#202020" d="M177.3,320.6c0.1,0,0.2,0.2,0.3,0.2l0-0.1C177.6,320.9,177.4,320.5,177.3,320.6z"/>
							<path fill="#202020" d="M175.9,319.4l0.3,0.1c0-0.1-0.1-0.3,0-0.3C175.9,318.9,176.3,319.4,175.9,319.4z"/>
							<path fill="#202020" d="M175.1,319.2c0.2-0.1,0-0.2,0-0.2C175,319.1,174.9,319.1,175.1,319.2z"/>
							<path fill="#202020" d="M168.8,319.2l0-0.3C168.7,319,168.8,319.1,168.8,319.2z"/>
							<polygon fill="#202020" points="167.6,320.5 167.7,320.7 167.8,320.5 							"/>
							<polygon fill="#202020" points="166.9,318.7 166.9,318.7 166.7,318.8 							"/>
							<path fill="#202020" d="M156.3,318.8l0,0.3C156.5,319.1,156.5,318.7,156.3,318.8z"/>
							<path fill="#202020" d="M151.8,319.1c0-0.2-0.2-0.3-0.3-0.1C151.6,319,151.7,319.2,151.8,319.1z"/>
							<polygon fill="#202020" points="138.2,318.6 138.2,318.5 138.1,318.6 							"/>
						</g>
					</g>
				</g>
			</g>
		</g>
		<g>
			<g>
				<g>
					<g>
						<g>
							<path fill="#202020" d="M179.4,330.7c0-0.1,0-0.3-0.1-0.2l-0.1,0.3L179.4,330.7z"/>
							<path fill="#202020" d="M178.9,330.1c-0.1,0.2-0.2,0.4-0.2,0.7c0.1-0.3,0.1-0.2,0.2-0.6c0.1,0,0.2,0.1,0.1,0.2
								c0-0.1,0.1,0.1,0.2-0.1c-0.1-0.3-0.3-0.3-0.4-0.1C178.8,330.2,178.9,330.1,178.9,330.1z"/>
							<path fill="#202020" d="M170.3,329.5L170.3,329.5C170.4,329.6,170.4,329.5,170.3,329.5z"/>
							<path fill="#202020" d="M165.1,329.4C165.1,329.3,165.1,329.3,165.1,329.4C165.1,329.3,165.1,329.3,165.1,329.4z"/>
							<path fill="#202020" d="M164.2,329C164.2,329,164.2,329,164.2,329C164.2,329,164.2,329,164.2,329z"/>
							<path fill="#202020" d="M170.3,329.5l-0.1-0.1C170.2,329.5,170.3,329.5,170.3,329.5z"/>
							<path fill="#202020" d="M177.7,330.9C177.7,330.8,177.7,330.8,177.7,330.9C177.7,330.8,177.7,330.8,177.7,330.9
								C177.7,330.8,177.7,330.8,177.7,330.9z"/>
							<path fill="#202020" d="M172.7,329.3L172.7,329.3c0.1,0,0.1-0.1,0.1-0.1L172.7,329.3z"/>
							<path fill="#202020" d="M174.5,329.2c0,0-0.1,0.3-0.1,0.4c0-0.1,0.1-0.2,0.1-0.2C174.5,329.4,174.5,329.3,174.5,329.2z"/>
							<path fill="#202020" d="M177.3,329.7L177.3,329.7C177.3,329.7,177.3,329.7,177.3,329.7z"/>
							<path fill="#202020" d="M171.4,329.2c0,0,0-0.1,0-0.1C171.4,329.1,171.4,329.2,171.4,329.2z"/>
							<path fill="#202020" d="M121.5,331.3C121.5,331.3,121.5,331.3,121.5,331.3C121.5,331.3,121.5,331.3,121.5,331.3z"/>
							<path fill="#202020" d="M119.4,329.9L119.4,329.9c0-0.1,0-0.1,0-0.2L119.4,329.9z"/>
							<path fill="#202020" d="M162.5,328.6C162.5,328.6,162.5,328.6,162.5,328.6C162.6,328.6,162.6,328.6,162.5,328.6z"/>
							<path fill="#202020" d="M147.4,328.8c0.2,0.3-0.3,0.3,0,0.6C147.4,329.3,147.6,329,147.4,328.8z"/>
							<path fill="#202020" d="M177.6,330.8C177.6,330.8,177.6,330.8,177.6,330.8C177.6,330.8,177.6,330.8,177.6,330.8z"/>
							<path fill="#202020" d="M147.4,329.4C147.4,329.4,147.4,329.4,147.4,329.4L147.4,329.4C147.4,329.5,147.4,329.4,147.4,329.4z
								"/>
							<path fill="#202020" d="M158.7,328.8c0,0,0,0.1,0,0.1C158.8,328.9,158.8,328.9,158.7,328.8z"/>
							<path fill="#202020" d="M161.6,329.2L161.6,329.2C161.5,329.2,161.5,329.2,161.6,329.2z"/>
							<path fill="#202020" d="M157.3,329.2c0,0-0.1-0.1-0.1,0C157.2,329.2,157.2,329.2,157.3,329.2
								C157.2,329.2,157.2,329.2,157.3,329.2z"/>
							<path fill="#202020" d="M155.7,329.2C155.7,329.2,155.8,329.2,155.7,329.2C155.8,329.2,155.8,329.2,155.7,329.2L155.7,329.2z
								"/>
							<path fill="#202020" d="M126.2,331.2c0-0.1-0.1-0.2-0.1-0.3C126.1,331.1,125.9,331.2,126.2,331.2z"/>
							<path fill="#202020" d="M177.7,330.7c0,0.1,0,0.1,0,0.1c0,0,0,0,0.1,0C177.7,330.8,177.7,330.7,177.7,330.7z"/>
							<path fill="#202020" d="M157.2,331.4l-0.2,0C157,331.4,157.1,331.4,157.2,331.4z"/>
							<path fill="#202020" d="M137.1,331.1L137.1,331.1C137.1,331.2,137.1,331.2,137.1,331.1z"/>
							<path fill="#202020" d="M156.2,331.4c0-0.1-0.1-0.2-0.1-0.2c0,0,0,0,0,0.1L156.2,331.4z"/>
							<path fill="#202020" d="M126.1,330.9C126.1,330.9,126.1,330.9,126.1,330.9C126.1,330.9,126.1,330.9,126.1,330.9z"/>
							<path fill="#202020" d="M124.5,331.6c0.2,0,0.1-0.4,0.2-0.6c0.3-0.1,0.1,0.3,0.2,0.5c0.2-0.1,0.3-0.4,0.4-0.4
								c0,0.1,0,0.1,0,0.2c0.2-0.3,0.5,0,0.8-0.4c0,0,0,0.1,0,0.1c0-0.2,0-0.4,0-0.5c0.1,0,0.2-0.2,0.2,0c-0.1,0-0.1,0.1-0.1,0.2
								l0.1-0.1c0.1,0.3-0.1,0.1-0.1,0.4c0.2-0.1,0.5-0.4,0.6-0.3c0,0.3-0.4,0.1-0.2,0.4l-0.3-0.1c0.2,0.5-0.2,0,0,0.5
								c0.3,0.1,0.4-0.2,0.7-0.1c0.1-0.2,0-0.3,0-0.5c0.5-0.3,0.4,0.9,0.7,0.4c0.1-0.2,0.1-0.7,0.4-0.4l-0.1,0.4
								c0.3,0,0.2-0.6,0.5-0.3c-0.1,0.2-0.3,0.1-0.2,0.2c0.2,0.3,0.2-0.2,0.3-0.2l0,0.3c0.3-0.1,0.7-0.3,1.1-0.4
								c0,0.1-0.1,0.2,0,0.3c0.5-0.2,1,0,1.5,0.2l0.2-0.3c0,0,0.1,0.1,0,0.2c0.2,0.1,0-0.2,0.1-0.3c0.1,0,0.1,0.2,0.1,0.3
								c0.3-0.2,0.9-0.5,1.2-0.2l-0.1,0.1c0.3,0.1,0.3-0.6,0.5-0.3l0,0.1c0.6,0.1,1.2-0.1,1.6,0.3c0.1-0.4,0.6,0.2,0.6-0.4
								c0.3,0.3,0.2,0.4,0.7,0.6c0.1,0,0.2-0.4,0.3-0.4l0,0.3l0.2-0.3l0.1,0.4l0.1-0.1c-0.1,0-0.1-0.1-0.1-0.2
								c0.2-0.1,0.5,0.2,0.5,0.4l0.5-0.3c0,0.1-0.1,0.2-0.2,0.2c0.3-0.3,0.1,0.3,0.3,0c0-0.1,0-0.2,0-0.2c0.1,0.2,0.4,0.2,0.6,0.1
								l0,0.2c0.4,0.1,0.8-0.1,1.2-0.1c-0.2-0.1-0.1-0.5,0-0.5l0.1,0.3c0.1-0.2-0.1-0.1,0-0.4c0.2,0,0.1,0.4,0,0.5l0.2-0.1
								c0,0.1,0,0.1,0,0.3c0.1-0.2,0.3,0.3,0.5,0l0,0.1c0.4,0,0.6-0.1,1-0.1c0-0.3,0.1-0.2,0.2-0.4c0.3,0.1,0.5,0.3,0.9,0.3
								c0.2-0.1,0.1-0.2,0.2-0.4c0,0.3,0.3,0.2,0.2,0.4c0.4,0,0.5-0.1,0.9-0.3c-0.1-0.1-0.1-0.2-0.1-0.2c0.1,0,0.2,0.1,0.2,0.2l0,0
								c0.5-0.4,1.2,0.7,1.6,0.2l0,0l0.4-0.3c0.2,0-0.1,0.2,0,0.4c0.5-0.4,0.7,0.1,1.1-0.2c0.3,0.8,1.1-0.1,1.5,0.4l0-0.2
								c0.1-0.2,0.1,0.1,0.2,0.1c0-0.1-0.1-0.2,0-0.3c0.9-0.2,1.8,0.3,2.7,0.4c0.3,0,0.2-0.9,0.6-0.5l-0.1,0.3c0.7-0.4,1.4,0,2-0.3
								c0,0.1,0,0.2-0.1,0.2c0.1,0.2,0.5,0,0.5-0.2c0.1,0,0,0.2,0.1,0.3c0.1,0.1,0.3-0.3,0.4-0.1c0,0,0,0.1-0.1,0.1
								c0.1-0.1,0.4,0,0.3-0.2c0.2,0.1,0.5-0.1,0.7,0c0.1-0.3,0.4,0.1,0.5-0.3c0,0.5,0.4,0.4,0.6,0.2c-0.1,0.1,0.1,0.1,0.1,0.3
								c0.2,0,0.3-0.1,0.3-0.3c0.3,0.5,0.7-0.4,0.8,0.3c0.5-0.2,1-0.4,1.5-0.5c0,0.5-0.5,0-0.5,0.5c0.5-0.2,0.7-0.6,1.2-0.5
								c0.1,0.1-0.1,0.2-0.1,0.3c0.5-0.2,0.9,0,1.3-0.2c0,0,0,0.1-0.1,0.1c0.1,0,0.2,0.1,0.2-0.1l-0.1,0.1c-0.1-0.3,0.3-0.6,0.3-0.8
								c-0.1,0.6,0.4,0.1,0.2,0.9c0.1,0,0.1-0.1,0.1-0.3c0.1,0,0.1,0.1,0,0.3c0.3-0.1,0.2-0.3,0.4-0.3c0,0.1-0.1,0.1-0.1,0.3
								c0.1-0.2,0.3-0.4,0.5-0.3c0,0.1,0,0.1-0.1,0.1c0.4,0,0.6-0.5,1-0.3c-0.1,0.4,0.1,0.1,0.2,0.5l0.2-0.1l-0.1-0.2
								c0.2,0,0.4-0.3,0.5-0.1l-0.1,0.2l0.4-0.1l-0.2-0.1c0.2-0.2,0-0.5,0.2-0.4c-0.1,0,0.2,0,0.3,0.2c0,0,0,0,0,0
								c0.1-0.1,0.2-0.2,0.3-0.2c0,0.1,0,0.4,0,0.5c0.1-0.3,0.5-0.1,0.6-0.4c0,0.1,0,0.3,0,0.3l0.1-0.3c0.1,0.1,0.1,0.1,0.1,0.3
								c0.3,0-0.1-0.5,0.2-0.3c0,0,0,0.1-0.1,0.1c0.3,0.1,0.6-0.2,0.9,0c0.1,0.4-0.3,0.1-0.2,0.4c0.4-0.1,0.9-0.5,1.3-0.4l-0.1,0
								c0.1-0.5,0.3,0.3,0.5,0c-0.1,0-0.1,0.3-0.1,0.2c0.3,0.1,0.6-0.1,1-0.3l-0.1,0.1c0.2,0.1,0.4,0.1,0.6,0.1
								c0.1-0.1,0.2-0.1,0.1-0.3c0.6,0.8,1.1-0.4,1.5,0.2c-0.1,0-0.1,0.1-0.1,0.1l0.4-0.1c0-0.2-0.1-0.1-0.1-0.3
								c0.1-0.1,0.2-0.2,0.3-0.2c-0.2,0.2,0,0.4,0.1,0.5c0-0.1,0-0.1,0-0.2c0.2,0.4,0-0.5,0.3-0.2l0,0.1c0.1-0.1,0.2-0.2,0.3-0.2
								c0,0.3-0.1,0.1-0.1,0.3c0.2,0,0.3-0.5,0.5-0.2c-0.1,0.1-0.2,0.1-0.2,0.1c0.2,0.3,0.2,0.2,0.3,0.3l0,0l0.3,0.1l-0.1-0.1
								c0.2-0.7,0.4-0.1,0.7-0.6c-0.3,0.4,0,0.3-0.1,0.6c0.1,0.1,0.2,0.2,0.2,0.3c0.1-0.2,0.2,0.2,0.4-0.2c0,0.1,0.1,0,0.1,0.3
								c0.2-0.1,0-0.2,0-0.3c0.3-0.3,0.6,0.4,1-0.1c0.3-0.2,0.4-0.5,0.7-0.7c0.1,0.2-0.1,0.4-0.1,0.4c0.2,0.1,0.3,0.1,0.5,0
								c0,0.1,0,0.2,0,0.3c0.1,0,0.1-0.4,0.3-0.2c0,0.1-0.1,0.3-0.1,0.4c0.2-0.1,0.3-0.3,0.5-0.4c0,0.2-0.1,0.3-0.1,0.4
								c0.2-0.1,0.5-0.2,0.5-0.4l-0.1-0.1c0.1,0,0,0.2,0,0.3c-0.1,0.2-0.2-0.1-0.2-0.2l0.1-0.1c-0.1-0.6-0.4,0.1-0.7,0.1l0.1-0.4
								l-0.2,0.3c0-0.1-0.1-0.3,0-0.4c-0.2-0.2-0.1,0.1-0.3-0.1c0,0,0-0.1,0-0.1l-0.2,0.1c0-0.1,0-0.3,0.1-0.2
								c-0.3-0.2-0.5,0.3-0.6,0l0,0c-0.4,0.1,0,0.3-0.3,0.7l-0.2-0.8l0,0.3c0,0-0.1,0-0.1-0.2c-0.1,0.2,0,0.1-0.1,0.3
								c-0.2-0.3-0.5,0.1-0.6-0.4c-0.1,0.2,0.2,0.2,0,0.3c-0.1-0.5-0.2,0.1-0.4-0.2c0.1-0.3,0.2-0.1,0-0.4c-0.1,0.5-0.3-0.1-0.5,0
								c0,0.4-0.3,0.2-0.6,0.3c0-0.1-0.5-0.2-0.7-0.3l0-0.1c0,0.4-0.3,0.3-0.5,0.4c0-0.2,0-0.3,0.1-0.4l-0.2,0
								c0,0.1-0.1,0.2-0.2,0.2l0-0.3c-0.2,0-0.4,0.3-0.7,0.1c0,0.3,0.2,0.7-0.1,0.9c0-0.1,0-0.4,0.1-0.4c0,0-0.1,0.1-0.1,0.1
								l0.1-0.2c-0.1-0.1-0.1,0.2-0.2,0.2c0-0.2-0.1-0.1-0.1-0.3c0,0,0.1,0.1,0.1,0c-0.1,0-0.3-0.2-0.3-0.3c0,0.1,0,0.3-0.1,0.3
								c-0.2,0-0.1-0.2-0.2-0.3c-0.1,0.1-0.2,0-0.2,0.3c-0.1,0-0.1-0.1-0.1-0.2c-0.1,0.1-0.5,0-0.4,0.4l0,0c0,0,0,0,0,0c0,0,0,0,0,0
								h0c-0.4,0.3-0.8-0.2-1.1,0l0-0.1c-0.2,0.1-0.5,0.1-0.6,0.3c-0.1,0-0.2-0.2-0.1-0.3c-0.2,0.1-0.2,0.2-0.4,0
								c0.2-0.2-0.1-0.2,0.2-0.1c-0.2-0.1-0.3-0.2-0.5,0c0.1-0.3-0.2-0.3-0.3-0.2l0.2,0.2c-0.1,0-0.2,0-0.3,0l0.1-0.3
								c-0.4-0.4-0.8,0.7-1.1,0c-0.1,0.2,0.2,0.2,0.1,0.4c-0.2,0-0.4-0.5-0.5-0.5c-0.3-0.2-0.3,0.5-0.6,0.4c0,0.1,0.1,0.4-0.1,0.5
								c-0.2,0-0.3-0.5-0.1-0.6c0,0,0.1,0,0.1,0.1c0.1,0,0.2-0.1,0.1-0.2l0,0.1c-0.1-0.1-0.4-0.1-0.3-0.3c-0.2,0.1-0.1,0.2,0,0.3
								c-0.3-0.2-0.4,0-0.7-0.1c0,0.1,0.1,0.2,0,0.2c-0.4-0.1-0.2,0.2-0.4,0.3c-0.2-0.2,0.1-0.4-0.2-0.3c-0.2-0.1,0-0.3,0-0.4
								c-0.2,0.2-0.5-0.2-0.6-0.2l0.1-0.1c-0.1,0.1-0.1,0.1-0.2,0.1l0.1,0.2c-0.1,0-0.1,0-0.1-0.1c-0.1,0.2,0.1,0.4-0.1,0.6
								c-0.1-0.1-0.3,0.1-0.3-0.2c0.3,0.1,0-0.3,0.2-0.4c-0.1,0-0.1,0-0.2,0c0,0,0-0.1,0-0.1c-0.3-0.3-0.1,0.4-0.5,0.3
								c0-0.2-0.1-0.3-0.1-0.3c0.1,0,0.1,0.3-0.1,0.4c-0.2-0.1-0.2,0.1-0.3,0.1l0.1,0.1c0,0.2-0.1,0.2-0.3,0.2
								c0-0.1,0.1-0.1,0.1-0.2c-0.2,0.3-0.4-0.3-0.6-0.1c-0.1-0.1,0-0.3-0.1-0.4c-0.2,0.2-0.3-0.2-0.5-0.1c0.1,0.2,0.1,0.2-0.1,0.4
								l0.4-0.2l-0.3,0.3c0.1,0,0.3-0.1,0.3-0.1c-0.1,0.2-0.1,0.1-0.1,0.3c-0.2-0.4-0.3,0.2-0.6,0l0-0.6c-0.3-0.3-0.5,0.3-0.9,0.2
								l0.1,0.1c-0.1,0.2-0.2,0-0.4,0.1c0-0.2-0.1-0.3-0.1-0.4c0,0.1-0.3,0-0.3,0.4l-0.2-0.3c-0.3-0.1-0.4,0.6-0.7,0.5
								c0.1-0.2,0-0.4,0.2-0.5c-0.1,0-0.2,0-0.2,0.1c-0.1-0.1-0.3,0.3-0.4,0.1c0,0.1-0.1,0.3-0.2,0.3c0,0,0-0.1,0-0.1
								c0,0.1-0.2,0.1-0.1,0.4c-0.3-0.6-0.9,0-1.2-0.5c-0.2,0.1-0.5,0.1-0.7,0.1c0-0.1,0-0.1,0-0.1c-0.3-0.2-0.2,0.6-0.5,0.4
								c-0.2-0.3,0.2-0.2,0.1-0.3c0-0.6-0.4,0.1-0.6-0.3l0.1,0c-0.2-0.2-0.4,0.2-0.7,0.2c0,0,0-0.1,0-0.1c-0.2,0.3-0.5,0.4-0.8,0.5
								c0.1-0.3,0.1-0.1,0.1-0.4c-0.1,0,0,0.4-0.2,0.5c-0.1-0.1-0.2-0.3-0.3-0.5l0.2,0c-0.1-0.4-0.3,0-0.4,0l0-0.2
								c-0.3,0.1-0.3,0.4-0.7,0.4l0,0.1c-0.2,0.4-0.2-0.2-0.4,0.1l-0.1-0.4c-0.1,0.1-0.5,0.4-0.7,0.5c0.1-0.3,0.4-0.4,0.6-0.6
								c-0.1,0-0.4,0-0.5,0.2c0.1,0,0.1-0.1,0.2-0.1c-0.2,0.3-0.4,0.5-0.6,0.5c0-0.8-0.7-0.2-0.9-0.8c-0.5,0.3-0.9-0.1-1.4-0.1
								c0.2,0.6-0.2,0-0.1,0.6c-0.1,0-0.2,0-0.2,0l-0.4-0.4c-0.1-0.2,0.1-0.1,0.1-0.3c-0.3,0-0.1-0.3-0.3-0.4c0,0.2-0.1,0.3-0.2,0.2
								l0.2,0.3c-0.4,0.3-0.3-0.5-0.7-0.2l0.1-0.2c-0.2,0.1-0.7,0-0.9,0.5c0-0.1-0.1-0.2,0-0.3c-0.5-0.1-1,0.5-1.4,0.2l0-0.1
								c-0.1,0-0.2,0.3-0.3,0.1c0-0.1,0-0.1,0-0.2c0,0.1-0.2,0.3-0.3,0.2l0.1-0.2c-0.5-0.2-0.7,0.4-1.1,0.5c0-0.4-0.4-0.6-0.5-0.7
								l0-0.1c-0.5-0.1-0.9,0.4-1.4,0.5c-0.3-0.5-1-0.2-1.5-0.5c0.1,0.1,0,0.3-0.1,0.4c-0.1-0.1-0.3,0.3-0.3-0.1l0,0
								c-0.1-0.4-0.3-0.3-0.5-0.3l0,0.5c-0.5-0.8-1.3,0.3-1.5-0.4c-0.1,0.1-0.3,0.1-0.4,0.3l0-0.3c-0.3-0.1-0.5-0.1-0.9,0l0.1-0.2
								c-0.2,0-0.3,0.8-0.5,0.8l-0.1-0.4c-0.4,0-0.8-0.4-1.2,0c0-0.1,0-0.2,0.1-0.2c-0.2,0-0.7-0.3-0.6,0.3c0-0.4-0.4,0-0.6,0.1
								l0-0.3c-0.2,0.4-0.2,0.5-0.4,0.6c-0.1,0-0.1-0.2,0-0.2c-0.2-0.1-0.2,0.3-0.4,0.1l0.1-0.2c-0.2,0-0.2,0.1-0.3,0.3
								c-0.1,0.1-0.4-0.1-0.4-0.3c0,0.2-0.1,0.4-0.3,0.3c0-0.1,0-0.2,0-0.2c-0.3-0.2-0.5,0.3-0.7,0.1c0-0.1,0-0.1,0-0.2
								c0.3,0,0.5,0,0.5,0c0-0.3-0.2-0.3,0-0.7c-0.2,0.2-0.5,0.6-0.7,0.5c0,0,0,0,0-0.1l0,0c0,0-0.1,0-0.1,0c-0.1,0-0.1-0.1-0.2-0.1
								c0-0.2-0.2-0.1-0.4-0.1c0,0.3-0.1,0.2,0,0.5c0,0,0,0,0.1,0c0,0,0,0,0,0c0,0,0,0,0,0c0.1,0,0.2,0,0.3,0
								c-0.1,0.1-0.2,0.3-0.3,0.1c-0.1,0.2-0.1,0.4-0.2,0.5c-0.1-0.4-0.4-0.6-0.5-0.8c-0.3,0.2-0.8,0.1-1,0.6
								c-0.1,0.1-0.1-0.2-0.1-0.2c0.1-0.1,0.1,0,0.1-0.1c-0.2,0.1-0.6,0.1-0.6,0.4c-0.2-0.2,0.1-0.3-0.2-0.3l0-0.1
								c-0.6-0.6-1,0.9-1.7,0.2c0,0,0.1,0.1,0.1,0.1c-0.8-0.3-1.7,0.3-2.5-0.2c-0.2-0.1-0.3,0.1-0.4,0.3l0-0.3l-0.2,0.3
								c-0.3,0.3-0.6-0.7-1-0.3l0.1,0.2c-0.2,0-0.5,0.1-0.5-0.1c0,0,0,0.2-0.1,0.1l0-0.2l-0.4,0.3c-0.3-0.1,0-0.6-0.4-0.7
								c-0.2,0.1-0.4,0.5-0.4,0.6c0.1,0,0.2,0.1,0.2,0.3l-0.1,0.1c0,0.5-0.1,0.9,0.2,1.3l0.2-0.3l0.1,0.2l-0.2,0
								c0.1,0.2,0.2,0,0.3-0.1c0,0.1,0.1,0.2,0.1,0.2l0.2-0.4c0,0.2-0.1,0.4,0.1,0.5c0.1-0.2-0.1-0.4,0.1-0.5
								c0.1,0.2,0.1,0.4,0.2,0.2c0,0.1,0,0.2-0.1,0.2c0.1-0.1,0.3-0.1,0.4-0.3c0.1,0.3,0.4-0.1,0.4,0.4c0-0.1,0.2-0.3,0.3-0.4
								c-0.2,0.5,0.4,0,0.4,0.6c0.2-0.5,0.6-0.2,0.8-0.5c0,0,0,0.1-0.1,0.1c0.2,0,0.2,0.2,0.3,0.3c0-0.4,0.3-0.5,0.4-0.7
								c0.2,0.4-0.1,0.5-0.1,0.8c0-0.3,0.3-0.3,0.3-0.6c0.1,0.2,0.1,0.1,0.2,0.4c0-0.5,0.1-0.1,0.3-0.4c0.2,0.2,0.1,0.5,0.3,0.3
								C124.7,331.4,124.5,331.6,124.5,331.6z M129.9,330.7C129.9,330.8,129.9,330.8,129.9,330.7c0,0-0.1,0-0.1,0
								C129.8,330.8,129.8,330.8,129.9,330.7z M130.3,330.7c-0.1,0-0.1,0-0.2,0c0-0.1,0-0.2,0-0.2
								C130.2,330.6,130.3,330.7,130.3,330.7z M129.4,328.8c0.1,0,0.1,0,0.1,0.1c0,0-0.1,0-0.1,0c0,0,0,0,0,0
								C129.4,328.9,129.4,328.8,129.4,328.8z"/>
							<path fill="#202020" d="M129.3,329.2C129.2,329.2,129.2,329.2,129.3,329.2C129.2,329.2,129.3,329.2,129.3,329.2
								C129.3,329.2,129.3,329.2,129.3,329.2C129.3,329.2,129.3,329.2,129.3,329.2z"/>
							<path fill="#202020" d="M170.4,329.6L170.4,329.6C170.4,329.6,170.4,329.6,170.4,329.6C170.4,329.6,170.4,329.6,170.4,329.6z
								"/>
							<polygon fill="#202020" points="136.6,331.3 136.6,331.2 136.6,331.3 							"/>
							<path fill="#202020" d="M172.9,330.5C172.9,330.6,172.9,330.6,172.9,330.5C172.9,330.6,172.9,330.6,172.9,330.5z"/>
							<path fill="#202020" d="M174,330.6l0.2,0.1C174.1,330.7,174,330.6,174,330.6z"/>
							<path fill="#202020" d="M174.8,330.7c0,0,0-0.1,0-0.1c0,0,0,0,0,0L174.8,330.7z"/>
							<path fill="#202020" d="M161.6,331.1C161.6,331.1,161.6,331.1,161.6,331.1C161.5,331.1,161.6,331.1,161.6,331.1z"/>
							<path fill="#202020" d="M165.5,330.4c0,0.1-0.1,0.1-0.1,0.1C165.5,330.6,165.5,330.6,165.5,330.4z"/>
							<path fill="#202020" d="M157.2,331.4C157.2,331.4,157.2,331.4,157.2,331.4C157.2,331.4,157.2,331.4,157.2,331.4L157.2,331.4z
								"/>
							<path fill="#202020" d="M165.2,330.6c0.1,0.1,0.1,0,0.2,0C165.4,330.5,165.3,330.5,165.2,330.6z"/>
							<path fill="#202020" d="M178.4,330.9L178.4,330.9C178.5,330.9,178.5,330.9,178.4,330.9L178.4,330.9z"/>
							<path fill="#202020" d="M178.5,330.8L178.5,330.8C178.5,330.8,178.5,330.8,178.5,330.8z"/>
							<path fill="#202020" d="M178.6,330.7L178.6,330.7C178.5,330.8,178.6,330.8,178.6,330.7z"/>
							<path fill="#202020" d="M177.3,330.7l0,0.1C177.3,330.8,177.3,330.8,177.3,330.7z"/>
							<path fill="#202020" d="M177,330.8c0.1,0,0.2,0.2,0.3,0.2l0-0.1C177.3,331,177.1,330.6,177,330.8z"/>
							<path fill="#202020" d="M175.6,329.5l0.3,0.1c0-0.1-0.1-0.3,0-0.3C175.5,329,176,329.6,175.6,329.5z"/>
							<path fill="#202020" d="M174.7,329.4c0.2-0.1,0-0.2,0-0.2C174.6,329.2,174.6,329.3,174.7,329.4z"/>
							<path fill="#202020" d="M168.5,329.4l0-0.3C168.4,329.1,168.5,329.2,168.5,329.4z"/>
							<polygon fill="#202020" points="167.3,330.7 167.4,330.8 167.4,330.6 							"/>
							<polygon fill="#202020" points="166.5,328.9 166.6,328.8 166.4,328.9 							"/>
							<path fill="#202020" d="M156,328.9l0,0.3C156.1,329.2,156.1,328.9,156,328.9z"/>
							<path fill="#202020" d="M151.5,329.3c0-0.2-0.2-0.3-0.3-0.1C151.3,329.2,151.4,329.3,151.5,329.3z"/>
							<polygon fill="#202020" points="137.8,328.8 137.9,328.7 137.7,328.7 							"/>
						</g>
					</g>
				</g>
			</g>
		</g>
		<g>
			<g>
				<g>
					<g>
						<g>
							<path fill="#202020" d="M179.4,341.7c0-0.1,0-0.3-0.1-0.2l-0.1,0.3L179.4,341.7z"/>
							<path fill="#202020" d="M178.9,341.1c-0.1,0.2-0.2,0.4-0.2,0.7c0.1-0.3,0.1-0.2,0.2-0.6c0.1,0,0.2,0.1,0.1,0.2
								c0-0.1,0.1,0.1,0.2-0.1c-0.1-0.3-0.3-0.3-0.4-0.1C178.8,341.2,178.9,341.1,178.9,341.1z"/>
							<path fill="#202020" d="M170.3,340.5L170.3,340.5C170.4,340.6,170.4,340.5,170.3,340.5z"/>
							<path fill="#202020" d="M165.1,340.4C165.1,340.3,165.1,340.3,165.1,340.4C165.1,340.3,165.1,340.3,165.1,340.4z"/>
							<path fill="#202020" d="M164.2,340C164.2,340,164.2,340,164.2,340C164.2,340,164.2,340,164.2,340z"/>
							<path fill="#202020" d="M170.3,340.5l-0.1-0.1C170.2,340.5,170.3,340.5,170.3,340.5z"/>
							<path fill="#202020" d="M177.7,341.9C177.7,341.8,177.7,341.8,177.7,341.9C177.7,341.8,177.7,341.8,177.7,341.9
								C177.7,341.8,177.7,341.8,177.7,341.9z"/>
							<path fill="#202020" d="M172.7,340.3L172.7,340.3c0.1,0,0.1-0.1,0.1-0.1L172.7,340.3z"/>
							<path fill="#202020" d="M174.5,340.2c0,0-0.1,0.3-0.1,0.4c0-0.1,0.1-0.2,0.1-0.2C174.5,340.4,174.5,340.3,174.5,340.2z"/>
							<path fill="#202020" d="M177.3,340.7L177.3,340.7C177.3,340.7,177.3,340.7,177.3,340.7z"/>
							<path fill="#202020" d="M171.4,340.2c0,0,0-0.1,0-0.1C171.4,340.1,171.4,340.2,171.4,340.2z"/>
							<path fill="#202020" d="M121.5,342.3C121.5,342.3,121.5,342.3,121.5,342.3C121.5,342.3,121.5,342.3,121.5,342.3z"/>
							<path fill="#202020" d="M119.4,340.9L119.4,340.9c0-0.1,0-0.1,0-0.2L119.4,340.9z"/>
							<path fill="#202020" d="M162.5,339.6C162.5,339.6,162.5,339.6,162.5,339.6C162.6,339.6,162.6,339.6,162.5,339.6z"/>
							<path fill="#202020" d="M147.4,339.8c0.2,0.3-0.3,0.3,0,0.6C147.4,340.3,147.6,340,147.4,339.8z"/>
							<path fill="#202020" d="M177.6,341.8C177.6,341.8,177.6,341.8,177.6,341.8C177.6,341.8,177.6,341.8,177.6,341.8z"/>
							<path fill="#202020" d="M147.4,340.4C147.4,340.4,147.4,340.4,147.4,340.4L147.4,340.4C147.4,340.5,147.4,340.4,147.4,340.4z
								"/>
							<path fill="#202020" d="M158.7,339.8c0,0,0,0.1,0,0.1C158.8,339.9,158.8,339.9,158.7,339.8z"/>
							<path fill="#202020" d="M161.6,340.2L161.6,340.2C161.5,340.2,161.5,340.2,161.6,340.2z"/>
							<path fill="#202020" d="M157.3,340.2c0,0-0.1-0.1-0.1,0C157.2,340.2,157.2,340.2,157.3,340.2
								C157.2,340.2,157.2,340.2,157.3,340.2z"/>
							<path fill="#202020" d="M155.7,340.2C155.7,340.2,155.8,340.2,155.7,340.2C155.8,340.2,155.8,340.2,155.7,340.2L155.7,340.2z
								"/>
							<path fill="#202020" d="M126.2,342.2c0-0.1-0.1-0.2-0.1-0.3C126.1,342.1,125.9,342.2,126.2,342.2z"/>
							<path fill="#202020" d="M177.7,341.7c0,0.1,0,0.1,0,0.1c0,0,0,0,0.1,0C177.7,341.8,177.7,341.7,177.7,341.7z"/>
							<path fill="#202020" d="M157.2,342.4l-0.2,0C157,342.4,157.1,342.4,157.2,342.4z"/>
							<path fill="#202020" d="M137.1,342.1L137.1,342.1C137.1,342.2,137.1,342.2,137.1,342.1z"/>
							<path fill="#202020" d="M156.2,342.4c0-0.1-0.1-0.2-0.1-0.2c0,0,0,0,0,0.1L156.2,342.4z"/>
							<path fill="#202020" d="M126.1,341.9C126.1,341.9,126.1,341.9,126.1,341.9C126.1,341.9,126.1,341.9,126.1,341.9z"/>
							<path fill="#202020" d="M124.5,342.6c0.2,0,0.1-0.4,0.2-0.6c0.3-0.1,0.1,0.3,0.2,0.5c0.2-0.1,0.3-0.4,0.4-0.4
								c0,0.1,0,0.1,0,0.2c0.2-0.3,0.5,0,0.8-0.4c0,0,0,0.1,0,0.1c0-0.2,0-0.4,0-0.5c0.1,0,0.2-0.2,0.2,0c-0.1,0-0.1,0.1-0.1,0.2
								l0.1-0.1c0.1,0.3-0.1,0.1-0.1,0.4c0.2-0.1,0.5-0.4,0.6-0.3c0,0.3-0.4,0.1-0.2,0.4l-0.3-0.1c0.2,0.5-0.2,0,0,0.5
								c0.3,0.1,0.4-0.2,0.7-0.1c0.1-0.2,0-0.3,0-0.5c0.5-0.3,0.4,0.9,0.7,0.4c0.1-0.2,0.1-0.7,0.4-0.4l-0.1,0.4
								c0.3,0,0.2-0.6,0.5-0.3c-0.1,0.2-0.3,0.1-0.2,0.2c0.2,0.3,0.2-0.2,0.3-0.2l0,0.3c0.3-0.1,0.7-0.3,1.1-0.4
								c0,0.1-0.1,0.2,0,0.3c0.5-0.2,1,0,1.5,0.2l0.2-0.3c0,0,0.1,0.1,0,0.2c0.2,0.1,0-0.2,0.1-0.3c0.1,0,0.1,0.2,0.1,0.3
								c0.3-0.2,0.9-0.5,1.2-0.2l-0.1,0.1c0.3,0.1,0.3-0.6,0.5-0.3l0,0.1c0.6,0.1,1.2-0.1,1.6,0.3c0.1-0.4,0.6,0.2,0.6-0.4
								c0.3,0.3,0.2,0.4,0.7,0.6c0.1,0,0.2-0.4,0.3-0.4l0,0.3l0.2-0.3l0.1,0.4l0.1-0.1c-0.1,0-0.1-0.1-0.1-0.2
								c0.2-0.1,0.5,0.2,0.5,0.4l0.5-0.3c0,0.1-0.1,0.2-0.2,0.2c0.3-0.3,0.1,0.3,0.3,0c0-0.1,0-0.2,0-0.2c0.1,0.2,0.4,0.2,0.6,0.1
								l0,0.2c0.4,0.1,0.8-0.1,1.2-0.1c-0.2-0.1-0.1-0.5,0-0.5l0.1,0.3c0.1-0.2-0.1-0.1,0-0.4c0.2,0,0.1,0.4,0,0.5l0.2-0.1
								c0,0.1,0,0.1,0,0.3c0.1-0.2,0.3,0.3,0.5,0l0,0.1c0.4,0,0.6-0.1,1-0.1c0-0.3,0.1-0.2,0.2-0.4c0.3,0.1,0.5,0.3,0.9,0.3
								c0.2-0.1,0.1-0.2,0.2-0.4c0,0.3,0.3,0.2,0.2,0.4c0.4,0,0.5-0.1,0.9-0.3c-0.1-0.1-0.1-0.2-0.1-0.2c0.1,0,0.2,0.1,0.2,0.2l0,0
								c0.5-0.4,1.2,0.7,1.6,0.2l0,0l0.4-0.3c0.2,0-0.1,0.2,0,0.4c0.5-0.4,0.7,0.1,1.1-0.2c0.3,0.8,1.1-0.1,1.5,0.4l0-0.2
								c0.1-0.2,0.1,0.1,0.2,0.1c0-0.1-0.1-0.2,0-0.3c0.9-0.2,1.8,0.3,2.7,0.4c0.3,0,0.2-0.9,0.6-0.5l-0.1,0.3c0.7-0.4,1.4,0,2-0.3
								c0,0.1,0,0.2-0.1,0.2c0.1,0.2,0.5,0,0.5-0.2c0.1,0,0,0.2,0.1,0.3c0.1,0.1,0.3-0.3,0.4-0.1c0,0,0,0.1-0.1,0.1
								c0.1-0.1,0.4,0,0.3-0.2c0.2,0.1,0.5-0.1,0.7,0c0.1-0.3,0.4,0.1,0.5-0.3c0,0.5,0.4,0.4,0.6,0.2c-0.1,0.1,0.1,0.1,0.1,0.3
								c0.2,0,0.3-0.1,0.3-0.3c0.3,0.5,0.7-0.4,0.8,0.3c0.5-0.2,1-0.4,1.5-0.5c0,0.5-0.5,0-0.5,0.5c0.5-0.2,0.7-0.6,1.2-0.5
								c0.1,0.1-0.1,0.2-0.1,0.3c0.5-0.2,0.9,0,1.3-0.2c0,0,0,0.1-0.1,0.1c0.1,0,0.2,0.1,0.2-0.1l-0.1,0.1c-0.1-0.3,0.3-0.6,0.3-0.8
								c-0.1,0.6,0.4,0.1,0.2,0.9c0.1,0,0.1-0.1,0.1-0.3c0.1,0,0.1,0.1,0,0.3c0.3-0.1,0.2-0.3,0.4-0.3c0,0.1-0.1,0.1-0.1,0.3
								c0.1-0.2,0.3-0.4,0.5-0.3c0,0.1,0,0.1-0.1,0.1c0.4,0,0.6-0.5,1-0.3c-0.1,0.4,0.1,0.1,0.2,0.5l0.2-0.1l-0.1-0.2
								c0.2,0,0.4-0.3,0.5-0.1l-0.1,0.2l0.4-0.1l-0.2-0.1c0.2-0.2,0-0.5,0.2-0.4c-0.1,0,0.2,0,0.3,0.2c0,0,0,0,0,0
								c0.1-0.1,0.2-0.2,0.3-0.2c0,0.1,0,0.4,0,0.5c0.1-0.3,0.5-0.1,0.6-0.4c0,0.1,0,0.3,0,0.3l0.1-0.3c0.1,0.1,0.1,0.1,0.1,0.3
								c0.3,0-0.1-0.5,0.2-0.3c0,0,0,0.1-0.1,0.1c0.3,0.1,0.6-0.2,0.9,0c0.1,0.4-0.3,0.1-0.2,0.4c0.4-0.1,0.9-0.5,1.3-0.4l-0.1,0
								c0.1-0.5,0.3,0.3,0.5,0c-0.1,0-0.1,0.3-0.1,0.2c0.3,0.1,0.6-0.1,1-0.3l-0.1,0.1c0.2,0.1,0.4,0.1,0.6,0.1
								c0.1-0.1,0.2-0.1,0.1-0.3c0.6,0.8,1.1-0.4,1.5,0.2c-0.1,0-0.1,0.1-0.1,0.1l0.4-0.1c0-0.2-0.1-0.1-0.1-0.3
								c0.1-0.1,0.2-0.2,0.3-0.2c-0.2,0.2,0,0.4,0.1,0.5c0-0.1,0-0.1,0-0.2c0.2,0.4,0-0.5,0.3-0.2l0,0.1c0.1-0.1,0.2-0.2,0.3-0.2
								c0,0.3-0.1,0.1-0.1,0.3c0.2,0,0.3-0.5,0.5-0.2c-0.1,0.1-0.2,0.1-0.2,0.1c0.2,0.3,0.2,0.2,0.3,0.3l0,0l0.3,0.1l-0.1-0.1
								c0.2-0.7,0.4-0.1,0.7-0.6c-0.3,0.4,0,0.3-0.1,0.6c0.1,0.1,0.2,0.2,0.2,0.3c0.1-0.2,0.2,0.2,0.4-0.2c0,0.1,0.1,0,0.1,0.3
								c0.2-0.1,0-0.2,0-0.3c0.3-0.3,0.6,0.4,1-0.1c0.3-0.2,0.4-0.5,0.7-0.7c0.1,0.2-0.1,0.4-0.1,0.4c0.2,0.1,0.3,0.1,0.5,0
								c0,0.1,0,0.2,0,0.3c0.1,0,0.1-0.4,0.3-0.2c0,0.1-0.1,0.3-0.1,0.4c0.2-0.1,0.3-0.3,0.5-0.4c0,0.2-0.1,0.3-0.1,0.4
								c0.2-0.1,0.5-0.2,0.5-0.4l-0.1-0.1c0.1,0,0,0.2,0,0.3c-0.1,0.2-0.2-0.1-0.2-0.2l0.1-0.1c-0.1-0.6-0.4,0.1-0.7,0.1l0.1-0.4
								l-0.2,0.3c0-0.1-0.1-0.3,0-0.4c-0.2-0.2-0.1,0.1-0.3-0.1c0,0,0-0.1,0-0.1l-0.2,0.1c0-0.1,0-0.3,0.1-0.2
								c-0.3-0.2-0.5,0.3-0.6,0l0,0c-0.4,0.1,0,0.3-0.3,0.7l-0.2-0.8l0,0.3c0,0-0.1,0-0.1-0.2c-0.1,0.2,0,0.1-0.1,0.3
								c-0.2-0.3-0.5,0.1-0.6-0.4c-0.1,0.2,0.2,0.2,0,0.3c-0.1-0.5-0.2,0.1-0.4-0.2c0.1-0.3,0.2-0.1,0-0.4c-0.1,0.5-0.3-0.1-0.5,0
								c0,0.4-0.3,0.2-0.6,0.3c0-0.1-0.5-0.2-0.7-0.3l0-0.1c0,0.4-0.3,0.3-0.5,0.4c0-0.2,0-0.3,0.1-0.4l-0.2,0
								c0,0.1-0.1,0.2-0.2,0.2l0-0.3c-0.2,0-0.4,0.3-0.7,0.1c0,0.3,0.2,0.7-0.1,0.9c0-0.1,0-0.4,0.1-0.4c0,0-0.1,0.1-0.1,0.1
								l0.1-0.2c-0.1-0.1-0.1,0.2-0.2,0.2c0-0.2-0.1-0.1-0.1-0.3c0,0,0.1,0.1,0.1,0c-0.1,0-0.3-0.2-0.3-0.3c0,0.1,0,0.3-0.1,0.3
								c-0.2,0-0.1-0.2-0.2-0.3c-0.1,0.1-0.2,0-0.2,0.3c-0.1,0-0.1-0.1-0.1-0.2c-0.1,0.1-0.5,0-0.4,0.4l0,0c0,0,0,0,0,0c0,0,0,0,0,0
								h0c-0.4,0.3-0.8-0.2-1.1,0l0-0.1c-0.2,0.1-0.5,0.1-0.6,0.3c-0.1,0-0.2-0.2-0.1-0.3c-0.2,0.1-0.2,0.2-0.4,0
								c0.2-0.2-0.1-0.2,0.2-0.1c-0.2-0.1-0.3-0.2-0.5,0c0.1-0.3-0.2-0.3-0.3-0.2l0.2,0.2c-0.1,0-0.2,0-0.3,0l0.1-0.3
								c-0.4-0.4-0.8,0.7-1.1,0c-0.1,0.2,0.2,0.2,0.1,0.4c-0.2,0-0.4-0.5-0.5-0.5c-0.3-0.2-0.3,0.5-0.6,0.4c0,0.1,0.1,0.4-0.1,0.5
								c-0.2,0-0.3-0.5-0.1-0.6c0,0,0.1,0,0.1,0.1c0.1,0,0.2-0.1,0.1-0.2l0,0.1c-0.1-0.1-0.4-0.1-0.3-0.3c-0.2,0.1-0.1,0.2,0,0.3
								c-0.3-0.2-0.4,0-0.7-0.1c0,0.1,0.1,0.2,0,0.2c-0.4-0.1-0.2,0.2-0.4,0.3c-0.2-0.2,0.1-0.4-0.2-0.3c-0.2-0.1,0-0.3,0-0.4
								c-0.2,0.2-0.5-0.2-0.6-0.2l0.1-0.1c-0.1,0.1-0.1,0.1-0.2,0.1l0.1,0.2c-0.1,0-0.1,0-0.1-0.1c-0.1,0.2,0.1,0.4-0.1,0.6
								c-0.1-0.1-0.3,0.1-0.3-0.2c0.3,0.1,0-0.3,0.2-0.4c-0.1,0-0.1,0-0.2,0c0,0,0-0.1,0-0.1c-0.3-0.3-0.1,0.4-0.5,0.3
								c0-0.2-0.1-0.3-0.1-0.3c0.1,0,0.1,0.3-0.1,0.4c-0.2-0.1-0.2,0.1-0.3,0.1l0.1,0.1c0,0.2-0.1,0.2-0.3,0.2
								c0-0.1,0.1-0.1,0.1-0.2c-0.2,0.3-0.4-0.3-0.6-0.1c-0.1-0.1,0-0.3-0.1-0.4c-0.2,0.2-0.3-0.2-0.5-0.1c0.1,0.2,0.1,0.2-0.1,0.4
								l0.4-0.2l-0.3,0.3c0.1,0,0.3-0.1,0.3-0.1c-0.1,0.2-0.1,0.1-0.1,0.3c-0.2-0.4-0.3,0.2-0.6,0l0-0.6c-0.3-0.3-0.5,0.3-0.9,0.2
								l0.1,0.1c-0.1,0.2-0.2,0-0.4,0.1c0-0.2-0.1-0.3-0.1-0.4c0,0.1-0.3,0-0.3,0.4l-0.2-0.3c-0.3-0.1-0.4,0.6-0.7,0.5
								c0.1-0.2,0-0.4,0.2-0.5c-0.1,0-0.2,0-0.2,0.1c-0.1-0.1-0.3,0.3-0.4,0.1c0,0.1-0.1,0.3-0.2,0.3c0,0,0-0.1,0-0.1
								c0,0.1-0.2,0.1-0.1,0.4c-0.3-0.6-0.9,0-1.2-0.5c-0.2,0.1-0.5,0.1-0.7,0.1c0-0.1,0-0.1,0-0.1c-0.3-0.2-0.2,0.6-0.5,0.4
								c-0.2-0.3,0.2-0.2,0.1-0.3c0-0.6-0.4,0.1-0.6-0.3l0.1,0c-0.2-0.2-0.4,0.2-0.7,0.2c0,0,0-0.1,0-0.1c-0.2,0.3-0.5,0.4-0.8,0.5
								c0.1-0.3,0.1-0.1,0.1-0.4c-0.1,0,0,0.4-0.2,0.5c-0.1-0.1-0.2-0.3-0.3-0.5l0.2,0c-0.1-0.4-0.3,0-0.4,0l0-0.2
								c-0.3,0.1-0.3,0.4-0.7,0.4l0,0.1c-0.2,0.4-0.2-0.2-0.4,0.1l-0.1-0.4c-0.1,0.1-0.5,0.4-0.7,0.5c0.1-0.3,0.4-0.4,0.6-0.6
								c-0.1,0-0.4,0-0.5,0.2c0.1,0,0.1-0.1,0.2-0.1c-0.2,0.3-0.4,0.5-0.6,0.5c0-0.8-0.7-0.2-0.9-0.8c-0.5,0.3-0.9-0.1-1.4-0.1
								c0.2,0.6-0.2,0-0.1,0.6c-0.1,0-0.2,0-0.2,0l-0.4-0.4c-0.1-0.2,0.1-0.1,0.1-0.3c-0.3,0-0.1-0.3-0.3-0.4c0,0.2-0.1,0.3-0.2,0.2
								l0.2,0.3c-0.4,0.3-0.3-0.5-0.7-0.2l0.1-0.2c-0.2,0.1-0.7,0-0.9,0.5c0-0.1-0.1-0.2,0-0.3c-0.5-0.1-1,0.5-1.4,0.2l0-0.1
								c-0.1,0-0.2,0.3-0.3,0.1c0-0.1,0-0.1,0-0.2c0,0.1-0.2,0.3-0.3,0.2l0.1-0.2c-0.5-0.2-0.7,0.4-1.1,0.5c0-0.4-0.4-0.6-0.5-0.7
								l0-0.1c-0.5-0.1-0.9,0.4-1.4,0.5c-0.3-0.5-1-0.2-1.5-0.5c0.1,0.1,0,0.3-0.1,0.4c-0.1-0.1-0.3,0.3-0.3-0.1l0,0
								c-0.1-0.4-0.3-0.3-0.5-0.3l0,0.5c-0.5-0.8-1.3,0.3-1.5-0.4c-0.1,0.1-0.3,0.1-0.4,0.3l0-0.3c-0.3-0.1-0.5-0.1-0.9,0l0.1-0.2
								c-0.2,0-0.3,0.8-0.5,0.8l-0.1-0.4c-0.4,0-0.8-0.4-1.2,0c0-0.1,0-0.2,0.1-0.2c-0.2,0-0.7-0.3-0.6,0.3c0-0.4-0.4,0-0.6,0.1
								l0-0.3c-0.2,0.4-0.2,0.5-0.4,0.6c-0.1,0-0.1-0.2,0-0.2c-0.2-0.1-0.2,0.3-0.4,0.1l0.1-0.2c-0.2,0-0.2,0.1-0.3,0.3
								c-0.1,0.1-0.4-0.1-0.4-0.3c0,0.2-0.1,0.4-0.3,0.3c0-0.1,0-0.2,0-0.2c-0.3-0.2-0.5,0.3-0.7,0.1c0-0.1,0-0.1,0-0.2
								c0.3,0,0.5,0,0.5,0c0-0.3-0.2-0.3,0-0.7c-0.2,0.2-0.5,0.6-0.7,0.5c0,0,0,0,0-0.1l0,0c0,0-0.1,0-0.1,0c-0.1,0-0.1-0.1-0.2-0.1
								c0-0.2-0.2-0.1-0.4-0.1c0,0.3-0.1,0.2,0,0.5c0,0,0,0,0.1,0c0,0,0,0,0,0c0,0,0,0,0,0c0.1,0,0.2,0,0.3,0
								c-0.1,0.1-0.2,0.3-0.3,0.1c-0.1,0.2-0.1,0.4-0.2,0.5c-0.1-0.4-0.4-0.6-0.5-0.8c-0.3,0.2-0.8,0.1-1,0.6
								c-0.1,0.1-0.1-0.2-0.1-0.2c0.1-0.1,0.1,0,0.1-0.1c-0.2,0.1-0.6,0.1-0.6,0.4c-0.2-0.2,0.1-0.3-0.2-0.3l0-0.1
								c-0.6-0.6-1,0.9-1.7,0.2c0,0,0.1,0.1,0.1,0.1c-0.8-0.3-1.7,0.3-2.5-0.2c-0.2-0.1-0.3,0.1-0.4,0.3l0-0.3l-0.2,0.3
								c-0.3,0.3-0.6-0.7-1-0.3l0.1,0.2c-0.2,0-0.5,0.1-0.5-0.1c0,0,0,0.2-0.1,0.1l0-0.2l-0.4,0.3c-0.3-0.1,0-0.6-0.4-0.7
								c-0.2,0.1-0.4,0.5-0.4,0.6c0.1,0,0.2,0.1,0.2,0.3l-0.1,0.1c0,0.5-0.1,0.9,0.2,1.3l0.2-0.3l0.1,0.2l-0.2,0
								c0.1,0.2,0.2,0,0.3-0.1c0,0.1,0.1,0.2,0.1,0.2l0.2-0.4c0,0.2-0.1,0.4,0.1,0.5c0.1-0.2-0.1-0.4,0.1-0.5
								c0.1,0.2,0.1,0.4,0.2,0.2c0,0.1,0,0.2-0.1,0.2c0.1-0.1,0.3-0.1,0.4-0.3c0.1,0.3,0.4-0.1,0.4,0.4c0-0.1,0.2-0.3,0.3-0.4
								c-0.2,0.5,0.4,0,0.4,0.6c0.2-0.5,0.6-0.2,0.8-0.5c0,0,0,0.1-0.1,0.1c0.2,0,0.2,0.2,0.3,0.3c0-0.4,0.3-0.5,0.4-0.7
								c0.2,0.4-0.1,0.5-0.1,0.8c0-0.3,0.3-0.3,0.3-0.6c0.1,0.2,0.1,0.1,0.2,0.4c0-0.5,0.1-0.1,0.3-0.4c0.2,0.2,0.1,0.5,0.3,0.3
								C124.7,342.4,124.5,342.6,124.5,342.6z M129.9,341.7C129.9,341.8,129.9,341.8,129.9,341.7c0,0-0.1,0-0.1,0
								C129.8,341.8,129.8,341.8,129.9,341.7z M130.3,341.7c-0.1,0-0.1,0-0.2,0c0-0.1,0-0.2,0-0.2
								C130.2,341.6,130.3,341.7,130.3,341.7z M129.4,339.8c0.1,0,0.1,0,0.1,0.1c0,0-0.1,0-0.1,0c0,0,0,0,0,0
								C129.4,339.9,129.4,339.8,129.4,339.8z"/>
							<path fill="#202020" d="M129.3,340.2C129.2,340.2,129.2,340.2,129.3,340.2C129.2,340.2,129.3,340.2,129.3,340.2
								C129.3,340.2,129.3,340.2,129.3,340.2C129.3,340.2,129.3,340.2,129.3,340.2z"/>
							<path fill="#202020" d="M170.4,340.6L170.4,340.6C170.4,340.6,170.4,340.6,170.4,340.6C170.4,340.6,170.4,340.6,170.4,340.6z
								"/>
							<polygon fill="#202020" points="136.6,342.3 136.6,342.2 136.6,342.3 							"/>
							<path fill="#202020" d="M172.9,341.5C172.9,341.6,172.9,341.6,172.9,341.5C172.9,341.6,172.9,341.6,172.9,341.5z"/>
							<path fill="#202020" d="M174,341.6l0.2,0.1C174.1,341.7,174,341.6,174,341.6z"/>
							<path fill="#202020" d="M174.8,341.7c0,0,0-0.1,0-0.1c0,0,0,0,0,0L174.8,341.7z"/>
							<path fill="#202020" d="M161.6,342.1C161.6,342.1,161.6,342.1,161.6,342.1C161.5,342.1,161.6,342.1,161.6,342.1z"/>
							<path fill="#202020" d="M165.5,341.4c0,0.1-0.1,0.1-0.1,0.1C165.5,341.6,165.5,341.6,165.5,341.4z"/>
							<path fill="#202020" d="M157.2,342.4C157.2,342.4,157.2,342.4,157.2,342.4C157.2,342.4,157.2,342.4,157.2,342.4L157.2,342.4z
								"/>
							<path fill="#202020" d="M165.2,341.6c0.1,0.1,0.1,0,0.2,0C165.4,341.5,165.3,341.5,165.2,341.6z"/>
							<path fill="#202020" d="M178.4,341.9L178.4,341.9C178.5,341.9,178.5,341.9,178.4,341.9L178.4,341.9z"/>
							<path fill="#202020" d="M178.5,341.8L178.5,341.8C178.5,341.8,178.5,341.8,178.5,341.8z"/>
							<path fill="#202020" d="M178.6,341.7L178.6,341.7C178.5,341.8,178.6,341.8,178.6,341.7z"/>
							<path fill="#202020" d="M177.3,341.7l0,0.1C177.3,341.8,177.3,341.8,177.3,341.7z"/>
							<path fill="#202020" d="M177,341.8c0.1,0,0.2,0.2,0.3,0.2l0-0.1C177.3,342,177.1,341.6,177,341.8z"/>
							<path fill="#202020" d="M175.6,340.5l0.3,0.1c0-0.1-0.1-0.3,0-0.3C175.5,340,176,340.6,175.6,340.5z"/>
							<path fill="#202020" d="M174.7,340.4c0.2-0.1,0-0.2,0-0.2C174.6,340.2,174.6,340.3,174.7,340.4z"/>
							<path fill="#202020" d="M168.5,340.4l0-0.3C168.4,340.1,168.5,340.2,168.5,340.4z"/>
							<polygon fill="#202020" points="167.3,341.7 167.4,341.8 167.4,341.6 							"/>
							<polygon fill="#202020" points="166.5,339.9 166.6,339.8 166.4,339.9 							"/>
							<path fill="#202020" d="M156,339.9l0,0.3C156.1,340.2,156.1,339.9,156,339.9z"/>
							<path fill="#202020" d="M151.5,340.3c0-0.2-0.2-0.3-0.3-0.1C151.3,340.2,151.4,340.3,151.5,340.3z"/>
							<polygon fill="#202020" points="137.8,339.8 137.9,339.7 137.7,339.7 							"/>
						</g>
					</g>
				</g>
			</g>
		</g>
		<line fill="none" stroke="#1A1A1A" stroke-width="3" x1="63.1" y1="256.5" x2="179.1" y2="256.5"/>
		<ellipse fill="none" stroke="#0071BC" cx="148" cy="322.9" rx="33.9" ry="18.1"/>
	</g>
	<g>
		
			<rect x="198.6" y="222.1" transform="matrix(0.9057 0.4239 -0.4239 0.9057 129.7929 -63.2077)" fill="#F2F2F2" stroke="#1A1A1A" stroke-width="2" width="16.8" height="76"/>
		<path fill="#F2F2F2" stroke="#1A1A1A" stroke-width="2" d="M217.6,226.1L187,291.3c-0.3,0.6-0.9,0.8-1.5,0.6l-2.1-0.8
			c-0.1,0-0.1,0-0.2,0.1l-1.9,23.8l17-16.7c0.1-0.1,0-0.2,0-0.2l-1.5-0.8c-0.7-0.4-1-1.2-0.6-1.9l30.4-65c0.6-1.3,0.1-2.8-1.1-3.4
			c-1.3-0.6-2.6-0.3-3.2,1l-31.2,66.6l31.2-66.7c0.5-1.1-0.2-2.4-1.2-2.9l0,0C219.7,224.2,218.2,224.7,217.6,226.1z"/>
		<polygon fill="#1A1A1A" stroke="#1A1A1A" stroke-width="2" points="182,306.7 187.2,309.1 181.3,314.9 		"/>
		<line fill="#F2F2F2" stroke="#1A1A1A" stroke-width="2" x1="183.4" y1="291.1" x2="198.3" y2="298.2"/>
	</g>
</g>
</svg>
