<?xml version="1.0" encoding="utf-8"?>
<!-- Generator: Adobe Illustrator 18.1.1, SVG Export Plug-In . SVG Version: 6.00 Build 0)  -->
<svg version="1.1" id="Layer_1" xmlns="http://www.w3.org/2000/svg" xmlns:xlink="http://www.w3.org/1999/xlink" x="0px" y="0px"
	 viewBox="0 0 164.2 152.9" enable-background="new 0 0 164.2 152.9" xml:space="preserve">
<g>
	<path fill="#B3B3B3" d="M152.3,152.9H11.9c-6.6,0-11.9-5.3-11.9-11.9V19.6C0,13,5.3,7.7,11.9,7.7h140.4c6.6,0,11.9,5.3,11.9,11.9
		v121.5C164.2,147.6,158.9,152.9,152.3,152.9z"/>
	<rect x="0" y="7.7" fill="#1A1A1A" width="164.2" height="52"/>
	<text transform="matrix(1 0 0 1 38.8953 47.8134)" fill="#F2F2F2" font-family="'OratorStd'" font-size="36">2014</text>
	<text transform="matrix(1 0 0 1 41.7673 122.6874)" fill="#1A1A1A" font-family="'BerlinSansFB-Reg'" font-size="60">Jan</text>
	<path fill="#333333" d="M29.3,30.2h-5.8c-1.8,0-3.3-1.5-3.3-3.3V3.3c0-1.8,1.5-3.3,3.3-3.3h5.8c1.8,0,3.3,1.5,3.3,3.3v23.6
		C32.6,28.7,31.1,30.2,29.3,30.2z"/>
	<path fill="#333333" d="M139.6,30.2h-5c-2,0-3.7-1.7-3.7-3.7V3.7c0-2,1.7-3.7,3.7-3.7h5c2,0,3.7,1.7,3.7,3.7v22.8
		C143.3,28.5,141.7,30.2,139.6,30.2z"/>
	<rect x="0" y="59.7" fill="#333333" width="164.2" height="8.1"/>
</g>
</svg>
