<?xml version="1.0" encoding="utf-8"?>
<!-- Generator: Adobe Illustrator 18.1.1, SVG Export Plug-In . SVG Version: 6.00 Build 0)  -->
<svg version="1.1" id="Layer_1" xmlns="http://www.w3.org/2000/svg" xmlns:xlink="http://www.w3.org/1999/xlink" x="0px" y="0px"
	 viewBox="0 0 383.2 193.1" enable-background="new 0 0 383.2 193.1" xml:space="preserve">
<g>
	<path fill="#B3B3B3" d="M152.3,163.2H11.9c-6.6,0-11.9-5.3-11.9-11.9V29.8c0-6.6,5.3-11.9,11.9-11.9h140.4
		c6.6,0,11.9,5.3,11.9,11.9v121.5C164.2,157.9,158.9,163.2,152.3,163.2z"/>
	<rect x="0" y="17.9" fill="#1A1A1A" width="164.2" height="52"/>
	<text transform="matrix(1 0 0 1 38.8953 58.0905)" fill="#F2F2F2" font-family="'OratorStd'" font-size="36">2014</text>
	<text transform="matrix(1 0 0 1 41.7673 132.9644)" fill="#1A1A1A" font-family="'BerlinSansFB-Reg'" font-size="60">Jan</text>
	<path fill="#333333" d="M29.3,40.5h-5.8c-1.8,0-3.3-1.5-3.3-3.3V13.6c0-1.8,1.5-3.3,3.3-3.3h5.8c1.8,0,3.3,1.5,3.3,3.3v23.6
		C32.6,39,31.1,40.5,29.3,40.5z"/>
	<path fill="#333333" d="M139.6,40.5h-5c-2,0-3.7-1.7-3.7-3.7V14c0-2,1.7-3.7,3.7-3.7h5c2,0,3.7,1.7,3.7,3.7v22.8
		C143.3,38.8,141.7,40.5,139.6,40.5z"/>
	<rect x="0" y="70" fill="#333333" width="164.2" height="8.1"/>
</g>
<g>
	<path fill="#4D4D4D" d="M369,100.1c0,44.8-36.4,81.1-81.2,81c-44.8,0-81.1-36.4-81-81.1c0-44.8,36.4-81.1,81.1-81l0.2,0l-0.1,81
		L365,75.1C367.6,83,369,91.4,369,100.1z"/>
	<circle fill="#FF00FF" stroke="#F2F2F2" stroke-width="6" cx="287.6" cy="100.5" r="50"/>
	<path id="SVGID_x5F_1_x5F_" fill="none" d="M316.7,130.2c-16.1,15.7-42.1,15.2-58.2-1.3c-16.1-16.4-16-42.5,0-58.2
		s42.1-15.2,58.2,1.3S332.8,114.5,316.7,130.2z"/>
	<text>	<textPath  xlink:href="#SVGID_x5F_1_x5F_" startOffset="41.5365%">
<tspan  fill="#E6E6E6" font-family="'MyriadPro-Regular'" font-size="9.773">100% Woman Owned</tspan>	</textPath>
</text>
	<path id="SVGID_x5F_2_x5F_" fill="none" d="M215.7,123.7c-3.9-11.8-4.9-24.7-2.4-37.8c7.8-41.1,47.4-68,88.5-60.2
		s68,47.4,60.2,88.5c-7.8,41.1-47.4,68-88.5,60.2C245.5,169.1,224,149,215.7,123.7"/>
	<text>	<textPath  xlink:href="#SVGID_x5F_2_x5F_" startOffset="29.3164%">
<tspan  fill="#E6E6E6" font-family="'MyriadPro-Regular'" font-size="15.8672">70% Black Woman Owned</tspan>	</textPath>
</text>
	<g transform="translate(0,1025)scale(1,-1)">
		<ellipse fill="none" stroke="#CCCCCC" stroke-width="2" cx="287.6" cy="944.5" rx="12.4" ry="11.7"/>
		<path fill="none" stroke="#E6E6E6" stroke-width="3" d="M287.6,905.9v26.9 M272.8,919.8h29.6"/>
		<path fill="#E6E6E6" d="M289.1,932.8l0,3.5c2.1,1.2,5,3.4,5,5.4c0,1-0.7,1.9-1.9,1.9c-1,0-1.6-0.3-2.5-0.3c-1.9,0-1.6,1-2.1,1
			s-0.9-0.5-0.9-1.3c0-1.2,1-1.8,1.9-1.8c0.6,0,0.8,0.2,1.1,0.2c0.2,0,0.3,0,0.3-0.2c0-0.2-0.4-0.6-1-0.6c-1.9,0-2.2,1.4-4.6,1.4
			c-1.5,0-2.4-1-2.4-2.5c0-2,2.2-2.9,3.8-3.2l0-3.5H289.1z M293.2,946.7c0,0.8-0.9,2.1-1.5,2.1c-0.6,0-1-3.4-1-3.8
			c0-0.6,0.6-1.3,1.2-1.3C292.3,943.7,293.2,945.9,293.2,946.7z M290.7,948.5c0,1-1.5,1.5-2.1,1.5c-0.7,0-1-2-1-4
			c0-0.8,0.3-1.9,1.3-1.9C290,944.1,290.7,946.4,290.7,948.5z M287.4,948.7c0,0.6-0.2,1.1-0.7,1.1c-0.8,0-2.3-1-2.3-2
			c0-2,0.4-4,1.4-4C286.9,943.8,287.4,947.6,287.4,948.7z M284.4,943.8c0,1.8-0.2,4-0.8,4c-0.8,0-1.7-0.6-1.7-1.5
			c0-1.7,0.8-3.8,1.9-3.8C284.2,942.3,284.4,942.7,284.4,943.8z"/>
	</g>
	<path fill="none" d="M365,75l-76.9,25V19C324.1,19,354.5,42.5,365,75z"/>
	<line fill="none" x1="288.1" y1="19" x2="288.1" y2="0"/>
	<line fill="none" x1="383.2" y1="69.1" x2="365" y2="75"/>
</g>
</svg>
